<svg width="356" height="356" viewBox="0 0 356 356" fill="none" xmlns="http://www.w3.org/2000/svg">
<g clip-path="url(#clip0_243_692)">
<circle cx="178" cy="178" r="178" fill="white"/>
<path d="M131.723 187.266C113.327 168.252 86.9855 131.926 65.5209 99.0633C38.9138 222.878 69.6637 219.198 66.6573 256.763C65.1087 276.113 66.011 298.045 66.2161 319.594C116.781 357.961 237.445 406.047 338.275 277.322C320.285 244.49 305.444 208.257 292.771 188.128C301.072 137.153 258.537 78.8788 236.232 56.1136L216.751 175.749C197 165.058 151.836 178.972 131.723 187.266Z" fill="#EED9A8"/>
<path d="M82 223C81.8001 224.599 80.4361 222.964 79.3089 221.28M79.3089 221.28C78.5733 220.181 77.9385 219.062 77.7941 218.807L77.7778 218.778C77.5699 218.412 77.377 218.034 77.198 217.646M79.3089 221.28C79.5808 221.025 79.884 220.609 80.2222 220C80.3611 219.75 80.6275 219.423 80.9972 219.034M79.3089 221.28C78.0437 222.468 77.4592 220.175 77.198 217.646M77.198 217.646C75.3847 213.715 75 208.73 75 204.5C75 201.819 82.3618 207.299 85.2903 207.049M77.198 217.646C77.0392 216.108 77 214.483 77 213.5C77 211.265 76.1527 204.861 78.2222 209C80.0339 212.624 80.9411 214.951 80.9972 219.034M85.2903 207.049C86.1292 206.977 86.6043 206.435 86.4384 205.096M85.2903 207.049C83.7599 210.266 82.8136 214.906 82.3192 217.763M85.2903 207.049C85.6417 206.31 86.0239 205.646 86.4384 205.096M86.4384 205.096C86.342 204.318 86.0288 203.27 85.4444 201.889C81.3519 192.216 78.7295 181.893 76 171.778C75.0245 168.163 74.4317 160.912 78.0556 167.556C80.2335 171.549 82.2859 175.752 84.4074 179.891M86.4384 205.096C86.6194 204.856 86.8066 204.638 87 204.445C88.342 203.103 87.0199 208.303 86.4444 210.111C86.1665 210.985 86.0016 212.978 85.7254 214.738M84.4074 179.891C86.1849 183.359 88.0109 186.783 90 190C91.0463 191.693 91.9164 193.487 92.8205 195.26M84.4074 179.891C83.5075 178.635 82.5934 177.409 81.6667 176.222C80.7934 175.105 78.2162 170.34 79.5556 174.167C80.2891 176.263 80.9606 178.368 81.5871 180.489M84.4074 179.891C89.3738 186.826 93.9106 194.695 97.7778 202C97.7825 202.009 97.7871 202.018 97.7916 202.027M92.8205 195.26C93.3677 196.334 93.9275 197.4 94.5463 198.432M92.8205 195.26C92.6953 195.164 92.603 195.111 92.5556 195.111C91.1089 195.111 92.9831 196.873 94.5463 198.432M92.8205 195.26C93.7188 195.95 96.3103 198.854 96.1734 200.248M94.5463 198.432C94.8316 198.907 95.1294 199.375 95.4444 199.834C95.6346 200.11 95.8467 200.353 96.0719 200.577M94.5463 198.432C95.1092 198.993 95.6318 199.528 95.9444 199.945C95.9703 199.979 96.0541 200.091 96.1734 200.248M96.0719 200.577C96.4079 200.91 96.7731 201.199 97.138 201.49M96.0719 200.577C96.1286 200.48 96.1615 200.37 96.1734 200.248M96.0719 200.577C95.9158 200.842 95.5791 201 95 201M97.138 201.49C97.3581 201.665 97.5781 201.84 97.7916 202.027M97.138 201.49C97.675 202.158 98.1208 202.657 97.7916 202.027M97.138 201.49C96.794 201.061 96.4124 200.563 96.1734 200.248M97.7916 202.027C98.2438 202.421 98.667 202.862 99 203.445C99.2229 203.835 97.1178 205.679 94.2396 208.022M94.2396 208.022C93.0093 209.024 91.6377 210.117 90.2463 211.226M94.2396 208.022C93.1546 209.493 90.6496 211.44 88.4517 212.988M94.2396 208.022C94.55 207.601 94.7442 207.22 94.7817 206.897M90.2463 211.226C89.958 211.456 89.669 211.686 89.3801 211.917M90.2463 211.226C91.9043 209.805 93.5126 208.284 94.7817 206.897M90.2463 211.226C89.918 211.507 89.5878 211.784 89.2578 212.056M89.3801 211.917C88.811 212.371 88.2428 212.825 87.6837 213.275M89.3801 211.917C89.3393 211.963 89.2985 212.009 89.2578 212.056M89.3801 211.917C91.2232 209.822 93.2258 207.721 94.6336 206.335M87.6837 213.275C87.4547 213.459 87.2272 213.642 87.0018 213.824M87.6837 213.275C88.4851 211.432 89.2862 209.587 89.9988 207.718M87.6837 213.275C87.6762 213.292 87.6688 213.309 87.6613 213.326M87.0018 213.824C86.7692 214.012 86.5388 214.199 86.3113 214.384M87.0018 213.824C87.2193 213.663 87.4394 213.496 87.6613 213.326M87.0018 213.824C86.7816 213.988 86.564 214.147 86.3499 214.3M86.3113 214.384C86.1949 214.479 86.0792 214.573 85.9644 214.667M86.3113 214.384C86.2988 214.411 86.2863 214.439 86.2739 214.466M86.3113 214.384C86.3241 214.356 86.337 214.328 86.3499 214.3M85.9644 214.667C85.8767 214.739 85.7894 214.81 85.7026 214.881M85.9644 214.667C85.8768 214.723 85.7922 214.778 85.7108 214.83M85.9644 214.667C86.0639 214.603 86.1671 214.535 86.2739 214.466M85.7026 214.881C84.42 215.932 83.252 216.918 82.3192 217.763M85.7026 214.881C85.7054 214.864 85.7081 214.847 85.7108 214.83M85.7026 214.881C85.6154 215.42 85.5171 215.933 85.401 216.38M82.3192 217.763C82.1743 217.894 82.035 218.022 81.9019 218.146M82.3192 217.763C82.2847 217.962 82.2524 218.153 82.2222 218.334C81.7232 221.327 81.8017 219.847 81.9019 218.146M81.9019 218.146C81.5577 218.467 81.2544 218.764 81 219.032M81.9019 218.146C81.9486 217.354 82 216.514 82 216.056C82 213.854 81 200.823 81 208.222V219.032M81 219.032C80.9991 219.033 80.9981 219.034 80.9972 219.034M81 219.032V219.445C81 219.306 80.9991 219.169 80.9972 219.034M85.7254 214.738C85.7206 214.769 85.7157 214.799 85.7108 214.83M85.7254 214.738C85.9297 214.598 86.1381 214.451 86.3499 214.3M85.7254 214.738C85.4772 214.909 85.2349 215.07 85 215.222C84.0467 215.839 84.5454 215.576 85.7108 214.83M85.401 216.38C85.2356 217.017 85.0342 217.522 84.7778 217.778C84.7676 217.788 85.0092 217.245 85.401 216.38ZM85.401 216.38C85.6427 215.847 85.9416 215.19 86.2739 214.466M86.2739 214.466C86.6548 214.216 87.0798 213.934 87.531 213.626M86.3499 214.3C87.5154 211.76 89.0575 208.452 89.9905 206.618M89.9905 206.618C90.8039 205.019 91.1545 204.54 90.3889 206.667C90.2624 207.018 90.1321 207.369 89.9988 207.718M89.9905 206.618C89.9947 206.986 89.9974 207.353 89.9988 207.718M89.9905 206.618C89.9598 203.944 89.8501 201.211 89.5882 198.487M89.9988 207.718C89.9996 207.924 90 208.129 90 208.334C90 214.415 92.9981 205.203 94.4444 206.167C94.5207 206.218 94.5835 206.274 94.6336 206.335M87.6613 213.326C87.6179 213.426 87.5744 213.526 87.531 213.626M87.6613 213.326C88.1863 212.923 88.7217 212.497 89.2578 212.056M87.531 213.626C87.3863 213.958 87.2418 214.291 87.098 214.624M87.531 213.626C87.8282 213.423 88.1368 213.21 88.4517 212.988M87.098 214.624C86.7243 215.489 86.3552 216.354 86 217.222C84.4723 220.957 83.0494 220.816 85.2222 217.222C85.6594 216.499 86.3165 215.603 87.098 214.624ZM87.098 214.624C87.5182 214.098 87.9744 213.547 88.4517 212.988M88.4517 212.988C88.7148 212.679 88.9843 212.368 89.2578 212.056M94.6336 206.335C96.297 204.698 97.1301 204.06 95.8889 205.611C95.5611 206.021 95.1889 206.452 94.7817 206.897M94.6336 206.335C94.7616 206.492 94.8069 206.681 94.7817 206.897M89.5882 198.487C89.4654 197.21 89.3092 195.935 89.1121 194.668M89.5882 198.487C90.023 199.24 90.4911 200.001 91 200.778C91.0958 200.924 91.1811 201.057 91.2566 201.177M89.5882 198.487C87.5005 194.87 86.179 191.426 84.7778 187.222C83.6667 183.889 81.6373 180.657 81.0556 177.167C80.6058 174.468 80.9395 176.707 81.5871 180.489M89.1121 194.668C88.5169 190.843 87.5485 187.095 86 183.611C84.2266 179.621 86.9201 187.935 89.1121 194.668ZM89.1121 194.668C89.8381 196.898 90.509 198.955 90.9444 200.334C91.0445 200.65 91.1527 200.934 91.2566 201.177M91.2566 201.177C91.7266 202.276 92.1095 202.535 91.2566 201.177ZM81.5871 180.489C82.3588 184.995 83.5761 191.691 84.4444 194.834C84.6138 195.446 88.5746 208.26 87.7778 203.778C86.6734 197.566 84.6038 191.633 83 185.556C82.5515 183.856 82.0834 182.168 81.5871 180.489ZM237 169C237.293 171.346 238.469 171.949 238.944 169.334C238.959 169.252 238.974 169.171 238.988 169.089M238.988 169.089C239.598 165.652 239.909 162.1 240.055 158.507M238.988 169.089C239.213 170.136 239.941 170.765 242 171.222C243.732 171.607 246.426 172.397 249.228 173.28M238.988 169.089C238.781 168.126 239 166.809 239 164.945C239 163.33 239.099 160.701 239.235 158.018M240.055 158.507C240.121 156.881 240.153 155.246 240.163 153.61M240.055 158.507C239.967 156.871 240.011 155.237 240.163 153.61M240.055 158.507C240.123 159.764 240.267 161.022 240.5 162.278C240.735 163.548 241.538 167.351 243.556 165.334C243.736 165.153 243.911 164.935 244.08 164.683M240.163 153.61C240.185 150.231 240.114 146.845 240.059 143.513M240.163 153.61C240.446 150.589 241.106 147.593 242 144.667C242.666 142.486 243.189 141.176 243.596 140.514M240.059 143.513C240.027 141.579 240 139.664 240 137.778C240 137.605 239.905 134.66 240.135 132.09M240.059 143.513C239.841 144.852 239.599 146.193 239.35 147.534M240.059 143.513C240.603 140.168 241 136.83 241 133.5C241 133.308 240.998 133.129 240.993 132.962M240.135 132.09C240.163 131.777 240.196 131.469 240.234 131.173M240.135 132.09C240.008 132 239.881 131.93 239.756 131.884M240.135 132.09C240.423 132.293 240.712 132.597 240.993 132.962M240.234 131.173C240.498 129.142 241.023 127.64 242.056 128.5C245.567 131.426 248.204 134.831 250 139.222C252.247 144.715 252.817 150.218 252.957 155.937M240.234 131.173C240.643 130.768 240.946 131.139 240.993 132.962M240.234 131.173C240.087 131.319 239.925 131.567 239.756 131.884M252.957 155.937C252.993 157.424 253 158.925 253 160.445C253 161.312 252.971 162.09 252.908 162.837M252.957 155.937C252.255 155.207 251.078 153.984 249.903 152.807M252.957 155.937C253.253 156.245 253.464 156.465 253.556 156.556C254.262 157.262 255.052 158.094 255.876 158.838M252.908 162.837C252.895 162.982 252.882 163.127 252.867 163.27M252.908 162.837C251.9 160.115 250.933 157.37 249.997 154.614M252.908 162.837C252.947 162.944 252.987 163.051 253.027 163.158M252.867 163.27C252.747 164.411 252.54 165.507 252.222 166.778C251.97 167.788 253.126 167.318 254.347 166.637M252.867 163.27C252.918 163.228 252.971 163.19 253.027 163.158M252.867 163.27C252.031 163.952 251.65 165.802 250.389 163.667C250.269 163.464 250.142 163.247 250.011 163.02M254.347 166.637C254.476 166.565 254.607 166.49 254.736 166.414M254.347 166.637C253.899 165.482 253.459 164.322 253.027 163.158M254.347 166.637C254.379 166.721 254.412 166.805 254.444 166.889C255.445 169.463 255.082 167.886 254.736 166.414M254.736 166.414C254.755 166.403 254.774 166.392 254.793 166.381M254.736 166.414C254.649 166.043 254.563 165.679 254.5 165.389C254.421 165.028 254.167 164.169 253.895 163.163M254.793 166.381C255.464 165.988 256.104 165.578 256.49 165.363M254.793 166.381C254.575 165.345 254.677 164.517 255.282 164.17M254.793 166.381C255.505 169.762 259.622 175.367 260.778 173.778C260.797 173.751 260.814 173.72 260.828 173.683M256.49 165.363C256.615 165.293 256.714 165.244 256.778 165.222C256.851 165.198 256.924 165.175 256.998 165.153M256.49 165.363C256.741 165.64 256.986 165.924 257.226 166.213M256.49 165.363C256.107 164.942 255.708 164.539 255.282 164.17M256.998 165.153C257.145 165.109 257.293 165.069 257.44 165.035M256.998 165.153C257.057 165.509 257.134 165.865 257.226 166.213M256.998 165.153C256.931 164.754 256.885 164.354 256.86 163.958M257.44 165.035C257.613 164.994 257.786 164.96 257.959 164.933M257.44 165.035C257.636 165.63 257.895 166.194 258.205 166.716M257.44 165.035C257.329 164.7 257.239 164.355 257.172 164.003M257.959 164.933C258.053 164.918 258.146 164.905 258.24 164.894M257.959 164.933C257.744 164.669 257.503 164.364 257.233 164.014M257.959 164.933C258.048 165.043 258.133 165.146 258.213 165.241M258.24 164.894C258.477 164.865 258.714 164.849 258.948 164.844M258.24 164.894C258.257 164.708 258.277 164.523 258.302 164.339M258.24 164.894C258.23 165.009 258.221 165.125 258.213 165.241M258.948 164.844C259.075 164.842 259.202 164.842 259.328 164.846M258.948 164.844C259.629 166.366 259.724 167.044 258.213 165.241M258.948 164.844C258.909 164.757 258.868 164.668 258.826 164.576M259.328 164.846C259.519 164.852 259.708 164.866 259.896 164.886M259.328 164.846C259.591 164.999 259.853 165.167 260.112 165.349M259.328 164.846C259.161 164.749 258.994 164.659 258.826 164.576M259.896 164.886C259.99 164.896 260.083 164.908 260.176 164.922M259.896 164.886C259.965 165.043 260.037 165.197 260.112 165.349M259.896 164.886C259.447 163.869 259.113 162.768 258.882 161.858M260.176 164.922C260.445 164.962 260.711 165.015 260.972 165.083M260.176 164.922C260.164 165.074 260.154 165.225 260.147 165.374M260.176 164.922C260.224 164.307 260.305 163.669 260.401 163.052M260.972 165.083C261.539 165.229 262.086 165.438 262.605 165.698M260.972 165.083C260.895 165.325 260.82 165.574 260.748 165.827M260.972 165.083C261.083 164.734 261.199 164.4 261.317 164.089M262.605 165.698C262.684 165.738 262.762 165.779 262.839 165.82M262.605 165.698C262.595 165.639 262.584 165.58 262.573 165.52M262.605 165.698C262.739 166.458 262.823 167.2 262.849 167.875M262.839 165.82C263.415 166.132 263.953 166.507 264.443 166.93M262.839 165.82C262.75 165.72 262.661 165.62 262.573 165.52M262.839 165.82C262.893 165.88 262.946 165.94 263 166C263.39 166.436 263.782 167.143 263.744 167.602M264.443 166.93C264.494 166.974 264.545 167.019 264.595 167.064M264.443 166.93C264.527 166.837 264.608 166.743 264.687 166.646M264.443 166.93C264.226 167.169 263.992 167.394 263.744 167.602M264.595 167.064C264.786 167.237 264.97 167.417 265.145 167.604M264.595 167.064C264.629 166.926 264.66 166.787 264.687 166.646M264.595 167.064C264.417 167.782 264.146 168.458 263.763 169.061M265.145 167.604C265.593 168.082 265.983 168.603 266.304 169.147M265.145 167.604C265.289 166.99 265.364 166.322 265.38 165.627M265.145 167.604C264.953 168.423 264.64 169.147 264.184 169.713M266.304 169.147C266.744 169.894 267.053 170.687 267.2 171.483M266.304 169.147C266.719 168.713 267.087 168.15 267.389 167.445C267.594 166.965 267.76 166.482 267.888 166.002M266.304 169.147C265.76 169.718 265.135 170.067 264.473 170.227M267.2 171.483C267.606 173.688 266.764 175.913 264 177.222C260.31 178.97 256.75 177.783 253.319 175.847M267.2 171.483C266.847 172.07 266.378 172.585 265.778 173C264.714 173.737 262.164 174.561 260.828 173.683M267.2 171.483C268.11 169.972 268.249 167.985 267.888 166.002M253.319 175.847C252.241 175.239 251.175 174.556 250.123 173.868M253.319 175.847C248.786 175.277 244.135 174.859 240.444 172.222C238.616 170.916 245.246 173.065 250.123 173.868M253.319 175.847C255.382 176.107 257.421 176.398 259.333 176.945C262.97 177.984 257.682 176.03 251.732 174.085M250.123 173.868C249.823 173.672 249.525 173.476 249.228 173.28M250.123 173.868C250.688 173.961 251.23 174.036 251.732 174.085M249.228 173.28C248.171 172.586 247.128 171.906 246.097 171.309M249.228 173.28C250.061 173.543 250.903 173.814 251.732 174.085M246.097 171.309C245.392 170.9 244.693 170.53 244 170.222C241.508 169.115 244.691 170.769 246.097 171.309ZM246.097 171.309C246.259 171.371 246.397 171.418 246.5 171.445C246.65 171.484 247.134 171.565 247.799 171.677M247.799 171.677C248.066 171.722 248.362 171.772 248.677 171.826M247.799 171.677C247.616 171.532 247.423 171.311 247.222 171C246.225 169.459 245.351 167.817 244.632 166.101M247.799 171.677C248.123 171.935 248.417 171.957 248.677 171.826M248.677 171.826C251.232 172.262 255.048 172.965 254.833 173.5C254.579 174.136 253.364 174.245 251.732 174.085M248.677 171.826C249.417 171.452 249.877 169.838 249.944 168.889C250.084 166.935 250.099 164.976 250.011 163.02M239.235 158.018C239.248 157.763 239.262 157.508 239.275 157.253M239.235 158.018C239.714 154.972 240 151.573 240 149.611C240 147.92 239.891 148.459 239.745 150.124M239.235 158.018C239.091 158.94 238.928 159.83 238.751 160.638M239.275 157.253C239.422 154.487 239.601 151.761 239.745 150.124M239.275 157.253C239.621 154.799 239.869 152.289 239.745 150.124M239.275 157.253C239.112 158.408 238.928 159.55 238.751 160.638M239.745 150.124C239.691 149.185 239.567 148.31 239.35 147.534M238.751 160.638C238.265 162.853 237.667 164.451 237.011 164.409M238.751 160.638C238.384 162.898 238.047 164.922 238 166.334C237.79 172.642 237 169.488 237 165.389C237 165.063 237.004 164.736 237.011 164.409M237.011 164.409C236.756 164.393 236.492 164.129 236.222 163.556C235.186 161.353 236.103 157.144 236.556 154.945C237.193 151.85 236.663 143.096 238.5 145.667C238.873 146.19 239.151 146.821 239.35 147.534M237.011 164.409C237.136 158.775 238.309 153.147 239.35 147.534M240.993 132.962C242.114 134.418 243.095 136.842 243.222 137.667C243.347 138.479 243.472 139.441 243.596 140.514M239.756 131.884C239.244 132.844 238.669 134.439 238.222 135.778C236.652 140.49 237.373 135.945 238.056 133.556C238.491 132.033 239.103 131.641 239.756 131.884ZM243.596 140.514C243.783 142.149 243.966 144.04 244.134 146.038M243.596 140.514C243.857 140.089 244.07 139.932 244.243 139.983M244.134 146.038C244.156 146.294 244.177 146.553 244.199 146.813M244.134 146.038C244.212 145.459 244.331 144.958 244.514 144.702M244.134 146.038C244.091 146.364 244.061 146.715 244.04 147.06M244.199 146.813C244.315 148.252 244.424 149.737 244.522 151.213M244.199 146.813C244.384 146.557 244.575 146.408 244.767 146.348M244.199 146.813C244.145 146.886 244.092 146.968 244.04 147.06M244.522 151.213C244.68 153.594 244.807 155.954 244.892 158.07M244.522 151.213C244.424 152.06 244.312 152.929 244.202 153.808M244.522 151.213C244.632 150.258 244.725 149.33 244.778 148.445C244.807 147.945 244.834 147.414 244.856 146.871M244.892 158.07C244.964 159.888 245.004 161.526 245.002 162.842M244.892 158.07C244.561 156.666 244.341 155.248 244.202 153.808M244.892 158.07C245.104 158.971 245.362 159.867 245.673 160.758M245.002 162.842C245 164.967 244.889 166.253 244.632 166.101M245.002 162.842C244.73 163.54 244.432 164.148 244.112 164.635M245.002 162.842C245.247 162.213 245.472 161.511 245.673 160.758M244.632 166.101C244.52 166.035 244.381 165.697 244.211 165.04M244.632 166.101C244.485 165.75 244.344 165.396 244.211 165.04M244.211 165.04C244.179 164.916 244.146 164.782 244.112 164.635M244.211 165.04C244.166 164.921 244.122 164.803 244.08 164.683M244.112 164.635C244.093 164.557 244.075 164.475 244.056 164.389C243.341 161.172 243.754 157.402 244.202 153.808M244.112 164.635C244.101 164.651 244.09 164.667 244.08 164.683M244.202 153.808C244.056 152.289 244 150.745 244 149.167C244 149.06 243.978 148.088 244.04 147.06M244.856 146.871C244.863 146.69 244.87 146.507 244.876 146.324M244.856 146.871C244.826 146.696 244.796 146.522 244.767 146.348M244.856 146.871C245.131 148.442 245.473 150.04 245.911 151.568M244.876 146.324C244.895 145.728 244.908 145.126 244.91 144.541M244.876 146.324C245.4 146.252 245.933 146.813 246.422 147.644M244.876 146.324C244.84 146.329 244.803 146.337 244.767 146.348M244.91 144.541C244.92 142.193 244.765 140.139 244.243 139.983M244.91 144.541C245.004 144.575 245.108 144.651 245.222 144.778C245.773 145.39 246.167 146.396 246.422 147.644M244.91 144.541C244.753 144.486 244.622 144.551 244.514 144.702M244.243 139.983C244.666 139.836 245.878 143.143 246.905 146.299M244.243 139.983C244.059 140.048 244.025 140.768 244.222 142.445C244.308 143.171 244.404 143.927 244.514 144.702M244.08 164.683C242.223 159.533 241.777 153.812 243.556 148.222C243.711 147.733 243.873 147.35 244.04 147.06M245.673 160.758C246.09 159.195 246.404 157.412 246.592 155.608M245.673 160.758C245.915 161.452 246.189 162.144 246.5 162.834C246.827 163.561 247.088 163.818 247.294 163.714M246.592 155.608C246.603 155.504 246.613 155.401 246.623 155.297M246.592 155.608C246.612 155.672 246.632 155.737 246.653 155.801M246.592 155.608C246.158 154.211 245.888 152.826 245.911 151.568M246.623 155.297C246.664 154.868 246.698 154.439 246.724 154.012M246.623 155.297C246.589 154.701 246.559 154.1 246.534 153.504M246.623 155.297C246.633 155.465 246.643 155.634 246.653 155.801M246.724 154.012C246.812 152.568 246.814 151.148 246.716 149.854M246.724 154.012C246.659 153.844 246.596 153.675 246.534 153.504M246.724 154.012C246.961 154.625 247.219 155.217 247.5 155.778C247.653 156.084 247.803 156.328 247.948 156.517M246.716 149.854C246.676 149.315 246.618 148.798 246.541 148.31M246.716 149.854C246.626 149.788 246.546 149.736 246.478 149.697M246.716 149.854C246.973 150.041 247.315 150.332 247.71 150.69M246.541 148.31C246.506 148.082 246.466 147.859 246.422 147.644M246.541 148.31C246.551 148.175 246.563 148.044 246.575 147.917M246.541 148.31C246.509 148.735 246.489 149.201 246.478 149.697M246.422 147.644C246.473 147.732 246.525 147.823 246.575 147.917M244.514 144.702C244.591 145.243 244.675 145.794 244.767 146.348M247.294 163.714C247.737 163.49 247.921 161.583 247.957 159.092M247.294 163.714C247.263 163.283 247.239 162.95 247.222 162.778C247.139 161.95 246.848 159.006 246.653 155.801M247.294 163.714C247.46 166.1 247.811 171.51 248.222 169.556C248.771 166.947 249.072 164.178 249.111 161.403M247.957 159.092C247.968 158.283 247.964 157.412 247.948 156.517M247.957 159.092C248.332 159.904 248.726 160.683 249.111 161.403M247.957 159.092C247.466 158.031 247.01 156.914 246.653 155.801M247.948 156.517C247.912 154.556 247.82 152.481 247.71 150.69M247.948 156.517C248.318 157 248.659 157.128 248.953 157.028M247.71 150.69C247.708 150.66 247.706 150.631 247.704 150.601M247.71 150.69C247.722 150.701 247.734 150.712 247.746 150.723M247.704 150.601C247.652 149.755 247.595 148.974 247.54 148.302M247.704 150.601C247.718 150.642 247.732 150.682 247.746 150.723M247.704 150.601C247.395 149.695 247.006 148.712 246.575 147.917M247.54 148.302C247.483 147.622 247.427 147.053 247.376 146.638M247.54 148.302C247.948 149.626 248.274 150.757 248.427 151.36M247.54 148.302C247.344 147.666 247.129 146.986 246.905 146.299M247.376 146.638C247.315 146.144 247.262 145.869 247.222 145.889C247.198 145.901 247.175 145.916 247.152 145.934M247.376 146.638C247.301 146.404 247.227 146.169 247.152 145.934M247.376 146.638C247.951 148.441 248.536 150.244 249.134 152.044M247.152 145.934C247.059 146.008 246.977 146.132 246.905 146.299M247.152 145.934C246.877 145.067 246.604 144.2 246.333 143.334C244.636 137.902 247.805 145.042 248.222 146.445C248.896 148.71 249.642 150.598 249.903 152.807M246.905 146.299C246.752 146.658 246.645 147.217 246.575 147.917M246.478 149.697C246.453 150.846 246.479 152.16 246.534 153.504M246.478 149.697C246.335 149.617 246.245 149.602 246.222 149.667C246.02 150.251 245.923 150.891 245.911 151.568M246.534 153.504C246.307 152.877 246.1 152.229 245.911 151.568M249.111 161.403C249.132 159.938 249.08 158.472 248.953 157.028M249.111 161.403C249.423 161.985 249.728 162.529 250.011 163.02M248.953 157.028C248.833 155.659 248.645 154.31 248.389 153C248.305 152.572 248.074 151.7 247.746 150.723M248.953 157.028C249.116 156.972 249.264 156.846 249.394 156.671M247.746 150.723C247.959 150.918 248.188 151.132 248.427 151.36M250.011 163.02C249.916 160.896 249.701 158.776 249.394 156.671M249.394 156.671C249.149 154.992 248.846 153.322 248.5 151.667C248.484 151.59 248.459 151.487 248.427 151.36M249.394 156.671C249.746 156.2 249.967 155.373 249.997 154.614M248.427 151.36C248.655 151.577 248.892 151.807 249.134 152.044M249.997 154.614C249.999 154.557 250 154.501 250 154.445C250 153.874 249.965 153.332 249.903 152.807M249.997 154.614C249.706 153.758 249.418 152.902 249.134 152.044M249.903 152.807C249.645 152.548 249.387 152.292 249.134 152.044M253.027 163.158C253.268 163.019 253.549 162.987 253.895 163.163M253.895 163.163C253.374 161.242 252.786 158.784 253.222 158.222C253.536 157.819 255.863 161.816 256.841 163.408M253.895 163.163C253.929 163.181 253.964 163.201 254 163.222C254.456 163.501 254.881 163.821 255.282 164.17M256.841 163.408C256.972 163.623 257.079 163.794 257.154 163.904M256.841 163.408C256.842 163.59 256.849 163.773 256.86 163.958M256.841 163.408C256.832 162.604 256.918 161.835 257.105 161.158M257.154 163.904C257.181 163.944 257.204 163.977 257.222 164C257.226 164.005 257.229 164.009 257.233 164.014M257.154 163.904C257.16 163.937 257.166 163.97 257.172 164.003M257.154 163.904C257.002 163.046 256.984 162.143 257.138 161.22M257.233 164.014C257.584 164.082 257.942 164.192 258.302 164.339M257.233 164.014C257.213 164.01 257.192 164.006 257.172 164.003M258.213 165.241C258.182 165.732 258.178 166.227 258.205 166.716M258.826 164.576C258.699 164.3 258.556 164.003 258.404 163.692M258.826 164.576C258.651 164.489 258.476 164.409 258.302 164.339M258.404 163.692C258.02 162.912 257.571 162.045 257.138 161.22M258.404 163.692C258.521 163.053 258.682 162.435 258.882 161.858M258.404 163.692C258.365 163.906 258.331 164.121 258.302 164.339M257.138 161.22C257.127 161.2 257.116 161.179 257.105 161.158M257.138 161.22C257.162 161.073 257.191 160.925 257.225 160.777M257.105 161.158C256.644 160.281 256.202 159.456 255.876 158.838M257.105 161.158C257.141 161.027 257.181 160.9 257.225 160.777M255.876 158.838C255.821 158.733 255.769 158.634 255.721 158.541M255.876 158.838C256.382 159.295 256.901 159.719 257.421 160.062M255.721 158.541C255.634 158.374 255.559 158.23 255.5 158.111C254.167 155.445 254.005 157 255.721 158.541ZM255.721 158.541C255.809 158.62 255.902 158.699 256 158.778C256.506 159.183 256.983 159.593 257.438 160.01M257.438 160.01C257.469 160.038 257.499 160.066 257.53 160.095M257.438 160.01C257.432 160.027 257.426 160.044 257.421 160.062M257.438 160.01C257.783 158.967 258.361 157.914 259.222 156.889C260.437 155.442 261.732 155.799 262.819 157.091M257.53 160.095C257.572 160.133 257.613 160.171 257.654 160.21M257.53 160.095C257.525 160.104 257.52 160.113 257.515 160.123M257.53 160.095C257.666 159.851 257.822 159.633 258 159.445C258.346 159.078 258.695 158.918 259.037 158.925M257.654 160.21C258.029 160.559 258.389 160.913 258.74 161.27M257.654 160.21C257.608 160.182 257.561 160.152 257.515 160.123M257.654 160.21C257.975 160.405 258.296 160.567 258.614 160.683M258.74 161.27C258.827 161.359 258.913 161.447 258.999 161.536M258.74 161.27C258.782 161.454 258.829 161.651 258.882 161.858M258.74 161.27C258.691 161.055 258.649 160.858 258.614 160.683M258.999 161.536C259.477 162.033 259.941 162.538 260.401 163.052M258.999 161.536C259.088 161.302 259.184 161.075 259.285 160.858M258.999 161.536C258.958 161.642 258.919 161.749 258.882 161.858M260.401 163.052C260.706 163.394 261.011 163.74 261.317 164.089M260.401 163.052C260.543 162.125 260.717 161.245 260.857 160.557M261.317 164.089C261.729 164.559 262.145 165.036 262.573 165.52M261.317 164.089C261.505 163.594 261.697 163.159 261.88 162.821M262.573 165.52C262.405 164.611 262.168 163.683 261.88 162.821M263.744 167.602C263.722 167.869 263.554 168.052 263.154 168.047M263.744 167.602C263.576 167.743 263.402 167.876 263.222 168C263.199 168.016 263.176 168.032 263.154 168.047M263.154 168.047C263.101 168.047 263.045 168.043 262.984 168.035M263.154 168.047C263.119 168.071 263.084 168.094 263.05 168.116M262.984 168.035C262.943 168.03 262.899 168.024 262.854 168.016M262.984 168.035C263.006 168.062 263.028 168.089 263.05 168.116M262.984 168.035C262.94 167.982 262.895 167.928 262.849 167.875M262.854 168.016C262.763 167.999 262.663 167.975 262.556 167.945C261.798 167.728 261.159 167.094 260.628 166.269M262.854 168.016C262.852 167.969 262.851 167.922 262.849 167.875M262.854 168.016C262.856 168.09 262.857 168.164 262.857 168.237M260.628 166.269C260.455 166.002 260.295 165.715 260.145 165.415M260.628 166.269C260.508 166.727 260.401 167.191 260.313 167.645M260.628 166.269C260.667 166.121 260.707 165.973 260.748 165.827M260.145 165.415C260.134 165.393 260.123 165.371 260.112 165.349M260.145 165.415C260.104 166.269 260.141 167.054 260.313 167.645M260.145 165.415C260.145 165.402 260.146 165.388 260.147 165.374M260.112 165.349C260.123 165.357 260.135 165.365 260.147 165.374M258.614 160.683C258.613 160.678 258.612 160.672 258.611 160.667C258.453 159.876 258.638 159.308 259.037 158.925M258.614 160.683C258.84 160.766 259.064 160.825 259.285 160.858M259.037 158.925C259.588 158.397 260.547 158.222 261.575 158.299M259.037 158.925C259.405 158.933 259.766 159.134 260.111 159.479M261.575 158.299C261.692 158.308 261.811 158.32 261.93 158.336M261.575 158.299C261.778 158.222 261.987 158.176 262.2 158.164M261.575 158.299C261.044 158.501 260.549 158.914 260.111 159.479M261.93 158.336C262.121 158.36 262.314 158.393 262.505 158.434M261.93 158.336C261.491 158.656 261.133 159.131 261.056 159.556C261.013 159.788 260.947 160.112 260.868 160.501M261.93 158.336C262.017 158.272 262.108 158.214 262.2 158.164M262.505 158.434C262.967 158.531 263.422 158.673 263.842 158.85M262.505 158.434C262.503 158.437 262.502 158.441 262.5 158.445C262.016 159.509 261.472 160.175 260.889 160.537M262.505 158.434C262.542 158.352 262.575 158.269 262.604 158.184M263.842 158.85C263.874 158.863 263.906 158.877 263.937 158.891M263.842 158.85C263.827 158.806 263.811 158.762 263.796 158.718M263.842 158.85C263.964 159.202 264.08 159.573 264.188 159.957M263.937 158.891C264.006 158.921 264.073 158.952 264.139 158.984M263.937 158.891C263.92 158.855 263.903 158.819 263.886 158.784M263.937 158.891C264.081 159.193 264.217 159.511 264.343 159.842M264.139 158.984C264.445 159.132 264.726 159.299 264.969 159.481M264.139 158.984C264.354 159.162 264.565 159.361 264.771 159.577M264.139 158.984C264.055 158.914 263.971 158.848 263.886 158.784M264.969 159.481C265.351 159.769 265.638 160.095 265.778 160.445C265.88 160.7 265.962 160.956 266.026 161.213M264.969 159.481C264.903 159.51 264.837 159.542 264.771 159.577M264.969 159.481C267.475 158.384 268.944 162.056 267.888 166.002M266.026 161.213C266.408 162.756 266.115 164.308 265.38 165.627M266.026 161.213C266.902 162.607 267.579 164.303 267.888 166.002M266.026 161.213C265.641 160.601 265.218 160.047 264.771 159.577M265.38 165.627C265.18 165.986 264.948 166.327 264.687 166.646M265.38 165.627C265.424 163.717 265.017 161.604 264.343 159.842M264.687 166.646C265.107 164.499 264.772 162.03 264.188 159.957M263.05 168.116C262.985 168.159 262.92 168.199 262.857 168.237M263.05 168.116C263.307 168.43 263.546 168.747 263.763 169.061M262.857 168.237C261.361 169.143 260.621 168.706 260.313 167.645M262.857 168.237C262.862 169.046 262.773 169.735 262.569 170.206M260.313 167.645C260.226 168.095 260.157 168.534 260.114 168.945M260.147 165.374C260.35 165.517 260.55 165.668 260.748 165.827M260.857 160.557C260.86 160.538 260.864 160.52 260.868 160.501M260.857 160.557C260.356 160.858 259.828 160.939 259.285 160.858M260.857 160.557C260.867 160.551 260.878 160.544 260.889 160.537M260.868 160.501C260.628 160.091 260.374 159.743 260.111 159.479M260.868 160.501C260.875 160.513 260.882 160.525 260.889 160.537M262.2 158.164C262.354 158.082 262.511 158.021 262.666 157.989M262.2 158.164C262.333 158.157 262.468 158.163 262.604 158.184M262.666 157.989C263.125 157.894 263.559 158.055 263.778 158.667C263.784 158.684 263.79 158.701 263.796 158.718M262.666 157.989C262.647 158.054 262.627 158.119 262.604 158.184M262.666 157.989C262.748 157.702 262.795 157.4 262.819 157.091M263.796 158.718C263.826 158.74 263.856 158.762 263.886 158.784M263.796 158.718C263.716 158.661 263.636 158.607 263.556 158.556C263.234 158.351 262.915 158.23 262.604 158.184M264.188 159.957C263.508 160.485 262.77 161.346 262 162.611C261.961 162.676 261.921 162.746 261.88 162.821M264.188 159.957C264.24 159.917 264.292 159.878 264.343 159.842M263.763 169.061C263.603 169.314 263.423 169.553 263.222 169.778C263.069 169.95 262.922 170.107 262.782 170.251M263.763 169.061C263.914 169.28 264.055 169.498 264.184 169.713M262.782 170.251C262.511 170.529 262.265 170.757 262.04 170.939M262.782 170.251C263.037 170.3 263.292 170.326 263.545 170.329M262.782 170.251C262.711 170.238 262.64 170.223 262.569 170.206M262.04 170.939C261.728 171.191 261.459 171.356 261.229 171.443M262.04 170.939C262.627 170.849 263.126 170.638 263.545 170.329M262.04 170.939C262.027 170.941 262.013 170.943 262 170.945C261.972 170.949 261.945 170.952 261.917 170.956M261.229 171.443C260.975 171.539 260.769 171.543 260.604 171.468M261.229 171.443C261.465 171.277 261.707 171.115 261.917 170.956M261.229 171.443C261.04 171.576 260.855 171.713 260.693 171.852M260.604 171.468C260.347 171.352 260.191 171.047 260.115 170.614M260.604 171.468C260.636 171.599 260.666 171.727 260.693 171.852M260.604 171.468C260.548 171.238 260.486 170.999 260.418 170.755M260.115 170.614C260.066 170.333 260.051 169.997 260.064 169.624M260.115 170.614C260.214 170.667 260.315 170.714 260.418 170.755M260.115 170.614C259.582 170.333 259.106 169.9 258.693 169.364M260.064 169.624C260.065 169.615 260.065 169.607 260.065 169.598M260.064 169.624C260.073 169.633 260.082 169.642 260.09 169.651M260.064 169.624C260.044 169.603 260.023 169.58 260 169.556C259.401 168.921 258.839 168.224 258.277 167.518M260.065 169.598C260.066 169.591 260.066 169.583 260.066 169.576M260.065 169.598C259.71 169.174 259.123 168.431 259 168C258.976 167.917 258.954 167.837 258.932 167.759M260.065 169.598C260.07 169.603 260.074 169.608 260.078 169.612M260.066 169.576C260.074 169.375 260.091 169.164 260.114 168.945M260.066 169.576C260.07 169.588 260.074 169.6 260.078 169.612M260.066 169.576C259.965 169.257 259.859 168.94 259.753 168.633M260.114 168.945C260.879 169.566 261.723 170.005 262.569 170.206M260.114 168.945C259.991 168.846 259.871 168.742 259.753 168.633M260.748 165.827C261.508 166.434 262.225 167.141 262.849 167.875M261.88 162.821C261.595 161.967 261.259 161.179 260.889 160.537M264.343 159.842C264.489 159.738 264.631 159.65 264.771 159.577M264.473 170.227C264.17 170.299 263.859 170.333 263.545 170.329M264.473 170.227C265.521 172.227 265.404 173.814 263 173.334C262.138 173.161 261.408 172.832 260.798 172.385M264.473 170.227C264.385 170.058 264.288 169.887 264.184 169.713M263.545 170.329C263.783 170.154 263.996 169.947 264.184 169.713M262.569 170.206C262.532 170.293 262.49 170.373 262.444 170.445C262.337 170.613 262.146 170.782 261.917 170.956M259.753 168.633C259.463 168.367 259.188 168.075 258.932 167.759M259.753 168.633C258.868 166.077 257.942 164.234 258.932 167.759M258.932 167.759C258.668 167.435 258.424 167.086 258.205 166.716M258.205 166.716C258.22 166.985 258.243 167.253 258.277 167.518M257.172 164.003C257.068 163.984 256.964 163.969 256.86 163.958M257.225 160.777C257.278 160.539 257.343 160.301 257.421 160.062M257.225 160.777C257.307 160.544 257.404 160.325 257.515 160.123M257.421 160.062C257.452 160.082 257.483 160.103 257.515 160.123M262.819 157.091C263.205 157.55 263.565 158.128 263.886 158.784M262.819 157.091C263.003 154.703 261.78 151.87 264 152C265.846 152.109 265.712 157 263 157M261.917 170.956C261.381 171.018 260.88 170.942 260.418 170.755M260.418 170.755C260.318 170.394 260.207 170.021 260.09 169.651M258.693 169.364C258.037 168.512 257.539 167.399 257.226 166.213M258.693 169.364C258.494 168.778 258.357 168.156 258.277 167.518M258.693 169.364C259.055 170.431 259.624 171.381 260.439 172.097M257.226 166.213C257.583 166.643 257.93 167.082 258.277 167.518M256.86 163.958C256.409 163.91 255.971 163.937 255.556 164.056C255.455 164.085 255.364 164.123 255.282 164.17M260.111 159.479C259.806 159.872 259.529 160.338 259.285 160.858M260.693 171.852C260.599 171.933 260.514 172.014 260.439 172.097M260.693 171.852C260.734 172.038 260.769 172.217 260.798 172.385M260.439 172.097C260.184 172.381 260.062 172.68 260.222 173C260.37 173.295 260.577 173.519 260.828 173.683M260.439 172.097C260.554 172.198 260.673 172.294 260.798 172.385M260.828 173.683C260.922 173.437 260.898 172.972 260.798 172.385M260.09 169.651C260.086 169.638 260.082 169.625 260.078 169.612M260.09 169.651C260.486 170.072 260.36 169.949 260.078 169.612M83 208C81.9064 207.863 81.5424 206.805 81.5685 205.398M81.5685 205.398C81.6331 201.911 84.0905 196.284 83.7778 197.222C83.3963 198.367 82.2141 203.052 81.5685 205.398ZM81.5685 205.398C81.2078 206.708 81.0146 207.288 81.2222 206.111C81.986 201.783 83.8243 188.831 84 193.222C84.0562 194.626 83.9852 206.585 84.2222 206.556C84.3642 206.538 84.4882 206.437 84.5964 206.265M84.5964 206.265C85.4294 204.945 85.3237 199.447 85.2359 195.637M84.5964 206.265C84.4917 203.732 85.1069 196.97 85.2222 195.778C85.2266 195.733 85.2312 195.686 85.2359 195.637M84.5964 206.265C84.6319 207.126 84.7505 207.499 85 207M85.2359 195.637C85.1948 193.856 85.1577 192.444 85.2222 192C86.3269 184.406 85.506 192.848 85.2359 195.637ZM127 256C126.693 255.727 126.388 255.493 126.086 255.295M126.086 255.295C125.821 255.121 125.559 254.975 125.298 254.854M126.086 255.295C126.947 254.384 127.652 253.706 128 253.445C128.128 253.348 128.255 253.255 128.379 253.166M126.086 255.295C125.013 256.433 123.697 257.934 122.533 259.444M125.298 254.854C125.281 254.846 125.264 254.839 125.247 254.831M125.298 254.854C125.333 254.812 125.368 254.77 125.403 254.728M125.298 254.854C124.122 256.277 123.137 257.898 122.533 259.444M125.247 254.831C124.874 254.664 124.506 254.55 124.144 254.484M125.247 254.831C125.299 254.797 125.351 254.762 125.403 254.728M125.247 254.831C124.184 255.539 123.185 256.356 122.263 257.246M124.144 254.484C117.934 253.362 113.495 266.543 116.057 269.855M124.144 254.484C125.803 252.462 127.9 250.787 130.222 250C136.162 247.988 136.376 250.243 134.795 253.293M124.144 254.484C123.43 255.355 122.797 256.29 122.263 257.246M116.057 269.855C116.857 270.89 118.341 270.962 120.667 269.334C121 269.1 121.567 268.581 122.284 267.862M116.057 269.855C115.854 269.839 115.65 269.813 115.444 269.778C111.65 269.121 112.292 264.934 113.444 262.334C115.299 258.149 130.801 238.008 136.333 246.056C137.838 248.245 136.834 251.318 134.674 254.462M116.057 269.855C118.178 270.023 120.183 269.161 122.032 267.844M122.284 267.862C122.543 267.602 122.822 267.316 123.117 267.009M122.284 267.862C122.197 267.861 122.113 267.855 122.032 267.844M122.284 267.862C122.688 267.867 123.163 267.772 123.722 267.556C128.13 265.849 133.646 259.184 134.674 254.462M123.117 267.009C123.675 266.426 124.289 265.765 124.933 265.054M123.117 267.009C122.762 267.302 122.4 267.582 122.032 267.844M123.117 267.009C123.982 266.294 124.809 265.499 125.593 264.69M124.933 265.054C125.553 264.369 126.201 263.637 126.853 262.883M124.933 265.054C124.405 265.289 123.904 265.368 123.457 265.238M124.933 265.054C125.149 264.957 125.369 264.835 125.593 264.69M126.853 262.883C127.069 262.634 127.285 262.382 127.501 262.128M126.853 262.883C126.637 262.993 126.421 263.097 126.207 263.195M126.853 262.883C127.124 262.745 127.396 262.599 127.665 262.446M127.501 262.128C127.538 262.084 127.576 262.04 127.614 261.995M127.501 262.128C127.068 262.496 126.636 262.853 126.207 263.195M127.501 262.128C127.933 261.76 128.365 261.381 128.793 260.992M127.614 261.995C128.797 260.602 129.964 259.167 130.976 257.837M127.614 261.995C127.034 262.473 126.463 262.919 125.922 263.323M127.614 261.995C128.005 261.674 128.4 261.338 128.793 260.992M130.976 257.837C132.896 255.311 134.255 253.164 134.092 252.405M130.976 257.837C130.625 258.577 130.168 259.391 129.645 260.2M130.976 257.837C132.438 254.752 132.062 252.938 127 258M134.092 252.405C134.051 252.214 133.914 252.111 133.667 252.111C131.812 252.111 130.04 252.497 128.379 253.166M134.092 252.405C134.12 252.409 134.148 252.413 134.175 252.419M134.092 252.405C131.839 252.116 124.941 258.649 124 259.778C122.593 261.466 122.003 262.583 121.973 263.259M128.379 253.166C127.341 253.584 126.347 254.113 125.403 254.728M128.379 253.166C132.021 250.54 133.788 250.857 134.175 252.419M125.403 254.728C127.973 251.673 131.411 249.584 133.778 251.222C134.368 251.631 134.643 252.17 134.672 252.799M122.263 257.246C121.491 257.99 120.772 258.786 120.111 259.611C118.347 261.817 112.378 269.688 119.222 267.556C119.642 267.425 120.145 267.207 120.712 266.913M122.263 257.246C121.856 257.973 121.507 258.712 121.222 259.445C120.975 260.08 120.646 261.245 120.444 262.51M120.712 266.913C121.517 266.496 122.451 265.926 123.457 265.238M120.712 266.913C120.528 266.578 120.409 266.171 120.34 265.72M120.712 266.913C120.989 267.422 121.413 267.765 122.032 267.844M123.457 265.238C124.332 264.639 125.261 263.951 126.207 263.195M123.457 265.238C123.366 265.212 123.278 265.177 123.192 265.134M126.207 263.195C126.112 263.239 126.016 263.282 125.922 263.323M128.793 260.992C129.079 260.732 129.363 260.468 129.645 260.2M128.793 260.992C129.067 260.75 129.34 260.504 129.609 260.254M129.645 260.2C129.817 260.037 129.987 259.872 130.157 259.706M129.645 260.2C129.633 260.218 129.621 260.236 129.609 260.254M130.157 259.706C130.961 258.92 131.737 258.107 132.461 257.282M130.157 259.706C130.095 259.777 130.033 259.846 129.973 259.914M130.157 259.706C131.386 258.314 132.932 256.384 134.067 254.561M132.461 257.282C132.869 256.816 133.261 256.346 133.631 255.875M132.461 257.282C131.732 258.164 130.875 259.057 129.973 259.914M132.461 257.282C132.989 256.643 133.45 256.009 133.812 255.401M133.631 255.875C134.001 255.404 134.35 254.933 134.674 254.462M133.631 255.875C133.074 257.236 132.168 258.693 131 259.945C130.322 260.672 129.355 261.413 128.305 262.065M133.631 255.875C133.696 255.716 133.757 255.557 133.812 255.401M134.674 254.462C134.691 254.382 134.707 254.302 134.722 254.222C134.792 253.851 134.814 253.543 134.795 253.293M125.593 264.69C126.322 263.937 127.014 263.171 127.665 262.446M125.593 264.69C126.492 264.105 127.435 263.153 128.305 262.065M127.665 262.446C128.256 261.788 128.813 261.163 129.333 260.611C129.379 260.563 129.425 260.514 129.472 260.463M127.665 262.446C127.881 262.323 128.095 262.196 128.305 262.065M129.472 260.463C129.63 260.294 129.797 260.11 129.973 259.914M129.472 260.463C129.108 261.011 128.714 261.553 128.305 262.065M129.472 260.463C129.518 260.393 129.564 260.324 129.609 260.254M129.973 259.914C129.852 260.028 129.731 260.142 129.609 260.254M134.067 254.561C134.241 254.283 134.405 254.007 134.556 253.736M134.067 254.561C134 254.833 133.914 255.114 133.812 255.401M134.067 254.561C134.273 253.735 134.317 252.993 134.175 252.419M134.556 253.736C134.64 253.586 134.72 253.439 134.795 253.293M134.556 253.736C134.417 254.257 134.16 254.818 133.812 255.401M134.556 253.736C134.644 253.406 134.685 253.093 134.672 252.799M134.795 253.293C134.78 253.092 134.738 252.929 134.672 252.799M120.444 262.51C120.271 263.597 120.192 264.758 120.34 265.72M120.444 262.51C120.976 261.566 121.717 260.503 122.533 259.444M120.444 262.51C119.507 264.175 119.224 265.469 120.34 265.72M120.34 265.72C120.802 265.823 121.504 265.748 122.5 265.445C122.675 265.391 122.909 265.285 123.192 265.134M134.672 252.799C134.565 252.589 134.395 252.467 134.175 252.419M121.973 263.259C121.962 263.498 122.02 263.682 122.137 263.817M121.973 263.259C121.753 262.182 121.987 260.843 122.533 259.444M121.973 263.259C122.012 263.454 122.067 263.64 122.137 263.817M122.137 263.817C122.634 264.393 124.19 264.078 125.922 263.323M122.137 263.817C122.146 263.841 122.156 263.865 122.167 263.889C122.441 264.529 122.79 264.929 123.192 265.134M125.922 263.323C124.839 264.131 123.875 264.766 123.192 265.134M225 232C224.433 232 223.981 232.032 223.628 232.093M223.628 232.093C223.561 232.105 223.498 232.117 223.438 232.131M223.628 232.093C223.492 231.911 223.375 231.731 223.278 231.556C222.896 230.864 222.706 230.193 222.672 229.557M223.628 232.093C224.568 233.355 226.408 234.759 228.687 236.047M223.438 232.131C223.135 232.199 222.92 232.293 222.782 232.41M223.438 232.131C222.964 231.471 222.605 230.776 222.363 230.084M223.438 232.131C223.61 232.37 223.797 232.605 224 232.833C224.874 233.819 226.071 234.736 227.473 235.549M222.782 232.41C221.923 233.132 223.979 234.713 225.783 236.367M222.782 232.41C222.214 231.656 222.023 230.871 222.363 230.084M222.782 232.41C223.65 233.562 225.398 234.643 227.473 235.549M225.783 236.367C225.931 236.504 226.079 236.641 226.222 236.778C229.149 239.572 231.752 239.527 233.396 238.277M225.783 236.367C223.936 235.751 222.433 235.061 221.667 234.445C217.921 231.432 219.268 229.883 222.137 229.291M225.783 236.367C227.794 237.038 230.213 237.621 232.531 237.925M233.396 238.277C233.474 238.217 233.55 238.155 233.624 238.09M233.396 238.277C233.105 238.163 232.817 238.045 232.531 237.925M233.396 238.277C240.752 241.168 249.251 241.916 249 235C248.719 227.286 242.153 224.5 235.386 224.769M233.624 238.09C233.639 238.077 233.653 238.065 233.668 238.052M233.624 238.09C233.549 238.069 233.474 238.048 233.399 238.026M233.624 238.09C237.705 239.241 242.063 239.553 245.111 238.556C249.396 237.153 245.565 230.681 243.722 229.056C241.547 227.136 238.53 225.604 235.386 224.769M233.668 238.052C233.811 237.922 233.946 237.783 234.071 237.635M233.668 238.052C233.578 238.043 233.489 238.035 233.399 238.026M233.668 238.052C234.839 238.158 235.961 238.181 236.965 238.096M234.071 237.635C234.614 236.996 234.984 236.199 235.138 235.354M234.071 237.635C232.326 237.265 230.436 236.718 228.687 236.047M234.071 237.635C235.107 237.855 236.091 238.012 236.965 238.096M235.138 235.354C235.238 234.801 235.246 234.228 235.15 233.664M235.138 235.354C234.072 234.854 233.045 234.172 232.276 233.369M235.138 235.354C237.478 236.451 240.005 236.67 240.387 235.368M235.15 233.664C234.923 232.328 234.11 231.046 232.556 230.222C232.209 230.039 231.763 229.87 231.246 229.721M235.15 233.664C234.219 233.617 233.243 233.52 232.276 233.369M235.15 233.664C235.865 233.701 236.553 233.708 237.19 233.688M231.246 229.721C229.503 229.218 226.949 228.931 224.657 229.013M231.246 229.721C232.346 228.177 236.471 228.879 238.993 230.447M231.246 229.721C230.948 230.14 230.872 230.724 231.111 231.5C231.317 232.17 231.732 232.8 232.276 233.369M224.657 229.013C224.095 229.034 223.548 229.076 223.034 229.143M224.657 229.013C224.632 228.795 224.634 228.569 224.667 228.333C224.689 228.172 224.714 228.014 224.743 227.861M224.657 229.013C224.933 231.408 228.534 232.788 232.276 233.369M223.034 229.143C222.91 229.159 222.789 229.176 222.669 229.195M223.034 229.143C223.156 229.021 223.293 228.899 223.444 228.778C223.846 228.456 224.281 228.15 224.743 227.861M223.034 229.143C222.895 229.281 222.775 229.419 222.672 229.557M222.669 229.195C222.487 229.224 222.309 229.256 222.137 229.291M222.669 229.195C222.744 227.304 224.194 225.75 226.026 224.887M222.669 229.195C222.665 229.314 222.665 229.435 222.672 229.557M222.137 229.291C221.492 226.384 222.958 223.772 226.639 224.289M222.137 229.291C222.195 229.554 222.271 229.819 222.363 230.084M232.531 237.925C232.822 237.963 233.112 237.997 233.399 238.026M232.531 237.925C231.92 237.668 231.32 237.397 230.737 237.116M233.399 238.026C232.491 237.762 231.597 237.457 230.737 237.116M236.965 238.096C238.727 237.945 240.122 237.459 240.774 236.493M236.965 238.096C238.162 238.211 239.151 238.188 239.778 238C246.974 235.841 241.31 228.072 234.947 224.791M240.774 236.493C241.197 235.866 241.306 235.037 240.997 233.967M240.774 236.493C240.657 236.193 240.524 235.804 240.387 235.368M240.774 236.493C240.86 236.715 240.937 236.89 241 237M240.997 233.967C240.912 233.671 240.795 233.356 240.643 233.022M240.997 233.967C240.946 234.358 240.776 234.667 240.425 234.807M240.997 233.967C241.045 233.608 240.991 233.18 240.885 232.749M240.643 233.022C240.438 232.569 240.17 232.081 239.833 231.556C239.685 231.324 239.524 231.099 239.351 230.878M240.643 233.022C240.463 233.15 240.198 233.261 239.864 233.355M240.643 233.022C240.761 232.938 240.843 232.847 240.885 232.749M239.351 230.878C239.237 230.732 239.117 230.588 238.993 230.447M239.351 230.878C239.346 230.806 239.343 230.739 239.342 230.677M239.351 230.878C239.393 231.45 239.566 232.32 239.79 233.231M238.993 230.447C236.999 228.183 233.763 226.515 230.718 225.426M238.993 230.447C239.113 230.522 239.23 230.599 239.342 230.677M230.718 225.426C229.575 225.018 228.458 224.691 227.444 224.445C227.399 224.434 227.355 224.423 227.31 224.413M230.718 225.426C232.093 225.093 233.521 224.875 234.947 224.791M230.718 225.426C228.51 225.963 226.44 226.798 224.743 227.861M227.31 224.413C227.079 224.361 226.855 224.319 226.639 224.289M227.31 224.413C227.612 224.331 227.917 224.267 228.222 224.222C230.176 223.939 232.321 224.076 234.44 224.54M227.31 224.413C226.87 224.533 226.439 224.692 226.026 224.887M226.639 224.289C228.56 222.763 231.539 223.162 234.44 224.54M226.639 224.289C226.421 224.463 226.216 224.661 226.026 224.887M222.363 230.084C222.439 229.908 222.541 229.733 222.672 229.557M227.473 235.549C228.472 236.129 229.574 236.656 230.737 237.116M227.473 235.549C227.867 235.722 228.273 235.888 228.687 236.047M230.737 237.116C230.025 236.773 229.338 236.415 228.687 236.047M235.386 224.769C235.072 224.686 234.756 224.609 234.44 224.54M235.386 224.769C235.239 224.775 235.093 224.782 234.947 224.791M234.44 224.54C234.609 224.62 234.778 224.704 234.947 224.791M226.026 224.887C225.426 225.599 224.98 226.576 224.743 227.861M237.19 233.688C238.249 233.654 239.165 233.544 239.823 233.366M237.19 233.688C234.741 231.279 234.951 226.579 239.333 232.556C239.508 232.794 239.66 233.019 239.79 233.231M237.19 233.688C237.898 234.384 238.828 234.889 239.944 234.889C240.05 234.889 240.146 234.88 240.233 234.863M239.823 233.366C239.837 233.362 239.851 233.358 239.864 233.355M239.823 233.366C239.812 233.321 239.801 233.276 239.79 233.231M239.823 233.366C239.95 233.871 240.091 234.384 240.233 234.863M239.864 233.355C240.203 233.931 240.38 234.413 240.425 234.807M239.864 233.355C239.84 233.314 239.816 233.273 239.79 233.231M240.885 232.749C240.926 232.654 240.928 232.552 240.889 232.445C240.825 232.269 240.736 232.097 240.626 231.928M240.885 232.749C240.816 232.471 240.726 232.191 240.626 231.928M240.626 231.928C240.333 231.479 239.886 231.057 239.342 230.677M240.626 231.928C240.42 231.385 240.174 230.912 240 230.667C239.514 229.98 239.335 230.112 239.342 230.677M240.387 235.368C240.435 235.205 240.449 235.019 240.425 234.807M240.387 235.368C240.336 235.206 240.284 235.037 240.233 234.863M240.425 234.807C240.366 234.83 240.302 234.849 240.233 234.863M161 285C158.968 285.254 169.556 279.568 172.316 278.58M172.316 278.58C172.404 278.549 172.484 278.522 172.556 278.5C178.413 276.729 185.213 273.741 191.832 271.816M172.316 278.58C172.055 278.891 171.837 279.216 171.667 279.556C171.455 279.979 178.45 277.483 178.667 277.389C182.557 275.701 186.34 273.747 190.444 272.611C196.308 270.99 214.417 269 208.333 269C206.063 269 204.017 269.92 201.778 270C200.02 270.063 198.201 270.31 196.345 270.687M172.316 278.58C175.806 274.423 186.864 272.88 191 272C191.273 271.942 191.55 271.881 191.832 271.816M191.832 271.816C193.35 271.375 194.859 270.989 196.345 270.687M191.832 271.816C193.238 271.494 194.758 271.096 196.345 270.687M196.345 270.687C202.231 269.172 209.045 267.513 214.444 269.056C214.774 269.15 215.974 271.557 216 272C216.185 275.153 214.038 276.262 211.827 277.892M211.827 277.892C211.285 278.291 210.739 278.722 210.222 279.223C207.402 281.953 200.137 288.314 197.839 289.841M211.827 277.892C212.606 276.569 213.022 275.297 212.833 274.167C212.71 273.425 208.301 277.822 204.252 282.088M211.827 277.892C209.365 282.075 203.275 286.755 201.222 289C199.938 290.404 191.929 299.335 195 294C195.804 292.604 196.777 291.205 197.839 289.841M197.839 289.841C197.014 290.389 196.829 290.314 197.722 289.223C198.425 288.364 201.239 285.262 204.252 282.088M197.839 289.841C199.704 287.445 201.845 285.155 203.833 283.167C205.876 281.124 205.482 281.223 204.252 282.088M204.252 282.088C202.532 283.296 199.178 286 198.556 286.445C194.395 289.417 190.504 290.69 186.341 290.876M186.341 290.876C184.855 290.943 183.334 290.871 181.754 290.688M186.341 290.876C184.238 290.226 181.956 289.636 179.999 289.204M186.341 290.876C188.542 291.557 190.546 292.302 191.778 293C194.923 294.783 192.341 293.342 191 292M181.754 290.688C181.754 290.688 181.754 290.688 181.754 290.688ZM181.754 290.688C180.993 290.6 180.218 290.486 179.427 290.35M181.754 290.688C181.753 290.687 181.751 290.687 181.75 290.686M181.754 290.688C182.089 290.828 182.453 290.982 182.836 291.147M181.754 290.688C182.236 290.861 182.718 291.039 183.203 291.224M179.427 290.35C179.177 290.306 178.926 290.261 178.673 290.214M179.427 290.35C180.494 290.629 181.661 290.896 182.836 291.147M179.427 290.35C179.193 290.288 178.964 290.226 178.741 290.164M178.673 290.214C178.494 290.18 178.314 290.145 178.133 290.11M178.673 290.214C178.431 290.389 178.24 290.519 178.094 290.609M178.673 290.214C178.695 290.198 178.718 290.181 178.741 290.164M178.133 290.11C177.615 290.008 177.089 289.897 176.556 289.778C176.329 289.728 176.1 289.681 175.871 289.637M178.133 290.11C178.159 290.078 178.186 290.046 178.214 290.013M178.133 290.11C178.002 290.268 177.899 290.402 177.828 290.506M175.871 289.637C174.79 289.43 173.685 289.292 172.573 289.18M175.871 289.637C175.47 289.434 175.086 289.222 174.722 289C174.455 288.838 174.226 288.69 174.032 288.557M175.871 289.637C176.487 289.948 177.143 290.238 177.828 290.506M172.573 289.18C171.431 289.065 170.281 288.976 169.14 288.869M172.573 289.18C171.779 289.483 170.976 289.727 170.167 289.889C168.439 290.235 168.455 289.684 169.14 288.869M172.573 289.18C173.063 288.993 173.549 288.783 174.032 288.557M169.14 288.869C167.226 288.689 165.338 288.454 163.556 287.945C163.517 287.934 163.472 287.92 163.421 287.904M169.14 288.869C169.425 288.53 169.825 288.146 170.263 287.762M163.421 287.904C163.225 287.843 162.947 287.747 162.671 287.641M163.421 287.904C162.703 288.021 162.396 287.961 162.671 287.641M163.421 287.904C164.043 287.803 164.975 287.568 166.106 287.254M162.671 287.641C162.098 287.42 161.533 287.152 161.721 287.045M162.671 287.641C162.793 287.498 163.029 287.305 163.394 287.054M161.721 287.045C161.769 287.018 161.864 287.001 162.02 286.998M161.721 287.045C160.951 287.162 160.674 287.165 161.444 286.945C161.725 286.865 162.014 286.766 162.31 286.652M161.721 287.045C161.814 287.031 161.914 287.015 162.02 286.998M162.02 286.998C162.078 286.997 162.146 286.997 162.222 287C162.61 287.015 163.001 287.033 163.394 287.054M162.02 286.998C162.567 286.909 163.279 286.781 164.021 286.64M163.394 287.054C164.288 287.103 165.194 287.169 166.106 287.254M163.394 287.054C163.445 287.019 163.499 286.982 163.556 286.945C163.72 286.835 163.874 286.733 164.021 286.64M166.106 287.254C167.483 287.382 168.875 287.552 170.263 287.762M166.106 287.254C166.809 287.059 167.591 286.832 168.422 286.588M170.263 287.762C171.448 287.942 172.63 288.151 173.799 288.391M170.263 287.762C170.442 287.605 170.627 287.449 170.814 287.295M173.799 288.391C173.934 288.418 174.069 288.447 174.204 288.475M173.799 288.391C173.619 288.258 173.48 288.142 173.376 288.04M173.799 288.391C173.87 288.443 173.948 288.499 174.032 288.557M174.204 288.475C174.501 288.538 174.796 288.602 175.09 288.669M174.204 288.475C174.147 288.503 174.089 288.53 174.032 288.557M174.204 288.475C174.287 288.435 174.37 288.395 174.453 288.354M175.09 288.669C175.843 288.839 176.589 289.022 177.324 289.217M175.09 288.669C175.162 288.789 175.45 288.971 176 289.223C176.586 289.491 177.346 289.756 178.214 290.013M175.09 288.669C175.06 288.618 175.068 288.578 175.111 288.548M177.324 289.217C177.752 289.331 178.176 289.449 178.596 289.571M177.324 289.217C177.738 289.345 178.151 289.475 178.564 289.607M177.324 289.217C176.589 288.99 175.852 288.768 175.111 288.548M178.596 289.571C178.821 289.636 179.045 289.703 179.267 289.771M178.596 289.571C178.749 289.398 178.918 289.211 179.099 289.012M178.596 289.571C178.585 289.583 178.574 289.595 178.564 289.607M179.267 289.771C179.513 289.846 179.757 289.922 180 290C180.34 290.11 180.966 290.358 181.75 290.686M179.267 289.771C179.247 289.786 179.228 289.801 179.208 289.816M179.267 289.771C179.485 289.605 179.728 289.417 179.999 289.204M181.75 290.686C180.9 290.381 180.054 290.092 179.208 289.816M182.836 291.147C183.881 291.595 185.068 292.116 186.198 292.614M182.836 291.147C182.958 291.173 183.081 291.199 183.203 291.224M186.198 292.614C189.902 294.249 192.984 295.643 188.389 293.445C187.839 293.182 187.294 292.93 186.753 292.689M186.198 292.614C183.481 292.228 180.604 291.56 178.094 290.609M186.198 292.614C186.384 292.64 186.569 292.665 186.753 292.689M186.753 292.689C185.552 292.154 184.372 291.67 183.203 291.224M186.753 292.689C188.091 292.862 189.38 292.966 190.556 293C193.836 293.097 188.534 292.343 183.203 291.224M179.208 289.816C178.993 289.746 178.779 289.676 178.564 289.607M179.208 289.816C179.036 289.946 178.881 290.062 178.741 290.164M178.564 289.607C178.434 289.754 178.317 289.89 178.214 290.013M175.111 288.548C174.892 288.484 174.673 288.419 174.453 288.354M175.111 288.548C175.377 288.367 176.967 288.573 179.099 289.012M174.453 288.354C174.095 288.249 173.736 288.145 173.376 288.04M174.453 288.354C174.778 288.195 175.102 288.027 175.424 287.855M173.376 288.04C172.53 287.794 171.677 287.547 170.814 287.295M173.376 288.04C173.143 287.812 173.086 287.656 173.155 287.555M170.814 287.295C170.47 287.194 170.124 287.093 169.776 286.991M170.814 287.295C170.87 287.248 170.927 287.202 170.983 287.156M169.776 286.991C169.373 286.871 168.966 286.751 168.557 286.628M169.776 286.991C170.377 286.883 171.028 286.755 171.663 286.619M169.776 286.991C167.907 287.325 166.53 287.455 167.667 287C167.966 286.881 168.262 286.756 168.557 286.628M168.557 286.628C168.512 286.614 168.467 286.601 168.422 286.588M168.557 286.628C168.733 286.551 168.908 286.473 169.083 286.393M168.422 286.588C168.025 286.468 167.625 286.347 167.222 286.223C167.049 286.169 166.887 286.125 166.734 286.091M168.422 286.588C168.639 286.524 168.859 286.459 169.083 286.393M166.734 286.091C166.169 285.962 165.726 285.954 165.321 286.042M166.734 286.091C165.965 286.259 164.968 286.46 164.021 286.64M166.734 286.091C167.35 285.956 167.819 285.842 168 285.778C170.868 284.757 173.652 283.544 176.513 282.516M165.321 286.042C165.162 286.076 165.009 286.126 164.857 286.188M165.321 286.042C167.729 285.276 170.689 284.233 171.222 284C172.638 283.383 182.001 279.641 176.513 282.516M165.321 286.042C165.163 286.092 165.009 286.141 164.857 286.188M164.857 286.188C164.586 286.299 164.317 286.452 164.021 286.64M164.857 286.188C162.931 286.789 161.517 287.15 162.31 286.652M169.083 286.393C170.694 285.917 172.461 285.389 174.206 284.895M169.083 286.393C171.526 285.278 173.822 283.909 176.222 282.667C176.323 282.615 176.42 282.564 176.513 282.516M174.206 284.895C177.343 284.007 180.412 283.228 182.389 283.056C182.675 283.031 182.913 283.015 183.109 283.007M174.206 284.895C176.36 283.627 180.553 281.211 179.056 281.667C178.199 281.928 177.352 282.214 176.513 282.516M174.206 284.895C173.686 285.201 173.285 285.44 173.111 285.556C172.94 285.67 172.354 286.085 171.663 286.619M183.109 283.007C184.567 282.948 183.638 283.335 181.93 283.848M183.109 283.007C182.691 283.296 182.274 283.596 181.93 283.848M183.109 283.007C183.42 282.793 183.731 282.585 184.014 282.409M181.93 283.848C179.465 284.588 175.376 285.59 174.5 285.889C173.846 286.112 172.779 286.378 171.663 286.619M181.93 283.848C181.489 284.17 181.167 284.411 181.111 284.445C179.797 285.233 178.421 286.126 176.998 286.965M171.663 286.619C171.5 286.744 171.332 286.876 171.162 287.012M162.31 286.652C162.441 286.57 162.631 286.465 162.889 286.334C164.827 285.347 177.791 277.67 170.389 282.056C168.107 283.408 164.942 285.639 162.31 286.652ZM171.162 287.012C171.103 287.059 171.043 287.107 170.983 287.156M171.162 287.012C170.79 287.034 170.773 287.086 170.983 287.156M171.162 287.012C171.288 287.004 171.455 287 171.667 287C173.469 287 175.244 286.964 176.998 286.965M170.983 287.156C171.312 287.265 172.197 287.415 173.155 287.555M175.424 287.855C175.556 287.784 175.689 287.712 175.821 287.639M175.424 287.855C175.836 287.904 176.148 287.937 176.278 287.945C177.129 287.998 178.281 288.127 179.595 288.269M175.424 287.855C174.803 287.781 173.954 287.671 173.155 287.555M175.821 287.639C176.217 287.421 176.609 287.195 176.998 286.965M175.821 287.639C176.639 287.786 177.406 287.954 177.722 288C178.234 288.076 178.875 288.169 179.595 288.269M175.821 287.639C174.643 287.428 173.359 287.259 173.155 287.555M176.998 286.965C178.312 286.966 179.615 286.988 180.909 287.061M184.014 282.409C184.73 281.964 185.266 281.721 185.154 282.084M184.014 282.409C183.625 282.518 183.415 282.572 183.444 282.556C186.199 281.073 188.912 279.541 191.651 278.055M184.014 282.409C184.303 282.328 184.691 282.218 185.154 282.084M185.154 282.084C185.111 282.221 184.976 282.445 184.722 282.778C183.924 283.826 182.358 285.51 180.909 287.061M185.154 282.084C186.04 281.827 187.201 281.484 188.462 281.1M180.909 287.061C180.513 287.485 180.126 287.899 179.766 288.287M180.909 287.061C181.203 287.078 181.497 287.098 181.79 287.12M179.766 288.287C179.764 288.289 179.763 288.291 179.761 288.292M179.766 288.287C180.161 288.33 180.57 288.374 180.989 288.416M179.766 288.287C179.709 288.281 179.652 288.275 179.595 288.269M179.761 288.292C179.528 288.544 179.305 288.785 179.099 289.012M179.761 288.292C180.137 288.344 180.533 288.399 180.942 288.454M179.761 288.292C179.705 288.284 179.65 288.277 179.595 288.269M179.099 289.012C179.39 289.072 179.69 289.136 179.999 289.204M178.214 290.013C178.385 290.063 178.561 290.114 178.741 290.164M177.828 290.506C177.633 290.794 177.684 290.861 178.094 290.609M177.828 290.506C177.916 290.541 178.005 290.575 178.094 290.609M179.999 289.204C180.283 288.981 180.597 288.731 180.942 288.454M180.942 288.454C180.958 288.441 180.973 288.429 180.989 288.416M180.942 288.454C181.929 288.586 182.993 288.724 184.041 288.85M180.989 288.416C181.235 288.218 181.498 288.005 181.778 287.778C181.975 287.618 182.213 287.415 182.483 287.179M180.989 288.416C182.016 288.521 183.104 288.622 184.199 288.693M182.483 287.179C184.286 285.6 187.496 282.541 189.233 280.865M182.483 287.179C182.317 287.163 182.152 287.149 181.986 287.135M182.483 287.179C183.503 287.274 184.518 287.41 185.531 287.602M189.233 280.865C190.601 279.545 191.055 279.083 189.187 280.879M189.233 280.865C189.218 280.869 189.202 280.874 189.187 280.879M189.233 280.865C192.397 279.892 195.956 278.733 197.389 278.056C201.134 276.285 205.023 274.813 208.628 272.767M189.187 280.879C188.721 281.327 188.11 281.916 187.333 282.667C186.878 283.107 183.665 285.79 181.986 287.135M189.187 280.879C188.943 280.954 188.701 281.028 188.462 281.1M181.986 287.135C180.908 288 180.463 288.311 181.79 287.12M181.986 287.135C181.921 287.13 181.856 287.125 181.79 287.12M181.79 287.12C181.888 287.033 181.994 286.937 182.111 286.834C183.57 285.537 186.072 283.287 188.462 281.1M188.462 281.1C189.66 280.005 190.829 278.926 191.826 277.99M191.826 277.99C191.85 277.967 191.875 277.944 191.899 277.921M191.826 277.99C191.767 278.012 191.709 278.034 191.651 278.055M191.826 277.99C194.024 277.165 196.194 276.25 198.356 275.34M191.899 277.921C192.377 277.471 192.814 277.056 193.193 276.69M191.899 277.921C193.013 277.318 194.131 276.723 195.259 276.143M191.899 277.921C191.816 277.966 191.734 278.01 191.651 278.055M193.193 276.69C193.574 276.322 193.896 276.004 194.143 275.749M193.193 276.69C193.882 276.507 194.57 276.324 195.259 276.143M193.193 276.69C192.625 276.841 192.056 276.993 191.488 277.145M194.143 275.749C194.917 274.953 194.963 274.778 193.778 275.667C193.532 275.852 193.28 276.03 193.023 276.203M194.143 275.749C193.794 275.882 193.418 276.035 193.023 276.203M194.143 275.749C194.45 275.632 194.737 275.53 195 275.445C195.452 275.298 196.64 275.039 198.008 274.77M193.023 276.203C192.528 276.536 192.015 276.848 191.488 277.145M193.023 276.203C192.163 276.568 191.207 277.008 190.212 277.486M191.488 277.145C189.509 278.258 187.332 279.151 185.193 280.085M191.488 277.145C191.063 277.258 190.637 277.372 190.212 277.486M185.193 280.085C184.935 280.198 184.677 280.311 184.42 280.425M185.193 280.085C185.116 280.104 185.039 280.122 184.961 280.141M185.193 280.085C187.387 279.549 189.533 278.845 191.651 278.055M184.42 280.425C182.964 281.074 181.539 281.756 180.222 282.556C177.778 284.04 180.512 282.486 184.42 280.425ZM184.42 280.425C184.598 280.331 184.779 280.236 184.961 280.141M184.961 280.141C186.636 279.262 188.483 278.316 190.212 277.486M184.961 280.141C184.845 280.168 184.728 280.196 184.611 280.223C178.709 281.575 186.204 278.551 187.444 278.223C188.366 277.979 189.288 277.733 190.212 277.486M198.008 274.77C199.006 274.573 200.101 274.371 201.076 274.204M198.008 274.77C198.429 274.566 198.853 274.365 199.278 274.167C200.537 273.581 208.624 268.893 210.333 270.223C212.959 272.265 204.243 272.903 201.167 274.167C201.137 274.179 201.107 274.192 201.076 274.204M198.008 274.77C197.084 275.216 196.168 275.675 195.259 276.143M201.076 274.204C203.906 273.72 205.73 273.528 201.278 274.611C200.304 274.848 199.33 275.092 198.356 275.34M201.076 274.204C200.17 274.577 199.264 274.958 198.356 275.34M198.356 275.34C197.324 275.603 196.291 275.872 195.259 276.143M208.628 272.767C208.939 272.59 209.249 272.409 209.556 272.223C213.523 269.818 210.873 271.218 208.628 272.767ZM208.628 272.767C208.622 272.771 208.617 272.774 208.611 272.778C203.324 276.429 190.375 283.97 185.531 287.602M185.531 287.602C184.971 288.022 184.519 288.39 184.199 288.693M185.531 287.602C186.518 287.789 187.503 288.028 188.486 288.335M184.199 288.693C184.142 288.748 184.09 288.8 184.041 288.85M184.199 288.693C185.246 288.762 186.299 288.804 187.311 288.799M184.041 288.85C183.266 289.652 183.616 289.908 185.667 289.334C185.908 289.266 186.151 289.193 186.396 289.114M184.041 288.85C184.85 288.947 185.65 289.038 186.396 289.114M186.396 289.114C186.698 289.017 187.004 288.912 187.311 288.799M186.396 289.114C189.525 289.435 191.718 289.506 189.778 288.778C189.701 288.749 189.625 288.721 189.548 288.693M187.311 288.799C187.699 288.656 188.091 288.501 188.486 288.335M187.311 288.799C188.088 288.795 188.841 288.763 189.548 288.693M188.486 288.335C192.637 286.587 197.12 283.594 200.855 280.6M188.486 288.335C188.84 288.445 189.194 288.565 189.548 288.693M200.855 280.6C202.387 279.371 203.794 278.143 205 277C207.099 275.012 204.304 277.465 200.855 280.6ZM200.855 280.6C198.268 282.952 195.312 285.689 193.778 287.223C192.922 288.079 191.387 288.513 189.548 288.693M193 294C190.466 291.149 192.12 297.121 191.944 299.667C191.942 299.708 191.939 299.749 191.936 299.79M191.936 299.79C191.924 299.941 191.912 300.092 191.898 300.242M191.936 299.79C192.298 299.268 192.653 298.746 193 298.222C193.16 297.981 193.412 297.557 193.701 297.063M191.936 299.79C188.773 304.348 185.121 308.868 182.667 313.778C182.412 314.288 187.278 308.469 188.222 307C188.786 306.123 190.312 303.072 191.898 300.242M191.898 300.242C191.793 301.382 191.611 302.479 191.338 303.532M191.898 300.242C192.492 299.183 193.094 298.155 193.656 297.284M191.338 303.532C191.306 303.656 191.272 303.779 191.238 303.901M191.338 303.532C190.2 305.208 188.932 306.811 187.556 308.389C182.094 314.65 185.479 314.243 189.222 309.334C190.408 307.778 194.698 301.186 195.637 297.04M191.338 303.532C191.499 303.295 191.658 303.056 191.813 302.816M191.238 303.901C190.516 306.461 189.241 308.759 187.222 310.778C186.034 311.966 185.079 312.769 186.556 310.889C188.274 308.702 189.885 306.362 191.238 303.901ZM191.238 303.901C191.435 303.542 191.627 303.18 191.813 302.816M191.813 302.816C192.156 302.145 192.479 301.465 192.778 300.778C193.128 299.973 193.391 298.597 193.656 297.284M191.813 302.816C193.104 300.826 194.21 298.729 195.095 296.451M193.656 297.284C193.671 297.21 193.686 297.137 193.701 297.063M193.656 297.284C194.442 296.069 195.151 295.16 195.655 294.897M193.701 297.063C194.134 294.941 194.585 293.081 195.442 294.219M193.701 297.063C194.269 296.097 194.982 294.865 195.442 294.219M195.442 294.219C195.443 294.22 195.444 294.221 195.444 294.222C195.558 294.373 195.643 294.548 195.704 294.744M195.442 294.219C195.885 293.596 196.091 293.517 195.704 294.744M195.704 294.744C195.716 294.782 195.726 294.821 195.736 294.86M195.704 294.744C195.689 294.793 195.672 294.844 195.655 294.897M195.736 294.86C195.865 295.372 195.84 296.014 195.7 296.742M195.736 294.86C195.71 294.87 195.683 294.883 195.655 294.897M195.736 294.86C195.939 294.78 196.104 294.818 196.222 295C197.097 296.353 198.943 297.183 200.524 298.062M195.7 296.742C195.681 296.84 195.66 296.939 195.637 297.04M195.7 296.742C196.597 297.474 198.09 298.707 199.768 299.902M195.7 296.742C195.48 296.562 195.295 296.412 195.153 296.301M195.637 297.04C195.527 296.932 195.425 296.826 195.333 296.722C195.241 296.619 195.162 296.528 195.095 296.451M195.637 297.04C196.527 297.91 198.013 298.936 199.768 299.902M195.095 296.451C195.115 296.401 195.134 296.351 195.153 296.301M195.095 296.451C194.686 295.976 194.751 295.986 195.153 296.301M195.153 296.301C195.234 296.091 195.312 295.88 195.389 295.667C195.495 295.372 195.583 295.117 195.655 294.897M200.524 298.062C201.063 298.362 201.571 298.667 202 299C203.502 300.169 207.638 300.888 208.528 301.853M200.524 298.062C198.653 296.706 197.064 295.386 197.611 295.167C198.313 294.886 202.982 297.662 203.778 298C206.794 299.284 215.321 301.727 212.278 302.945C212.195 302.978 212.11 303.008 212.023 303.036M200.524 298.062C201.277 298.607 202.076 299.159 202.799 299.646M208.528 301.853C208.788 302.135 208.771 302.437 208.333 302.778C208.306 302.799 208.278 302.82 208.249 302.84M208.528 301.853C209.727 302.29 210.926 302.702 212.023 303.036M208.528 301.853C206.449 301.096 204.367 300.267 202.799 299.646M208.249 302.84C208.14 302.916 208.024 302.98 207.902 303.032M208.249 302.84C207.284 302.412 206.311 301.871 205.222 301.222C204.975 301.075 203.989 300.447 202.799 299.646M208.249 302.84C208.573 302.983 208.895 303.113 209.221 303.231M207.902 303.032C207.847 303.056 207.791 303.078 207.733 303.097M207.902 303.032C207.752 303.003 207.6 302.971 207.447 302.937M207.902 303.032C208.355 303.121 208.796 303.188 209.221 303.231M207.733 303.097C205.805 303.741 202.535 301.873 199.768 299.902M207.733 303.097C207.638 303.044 207.543 302.99 207.447 302.937M207.733 303.097C210.793 304.806 213.896 306.308 217.556 307.222C220.024 307.84 224.755 309.509 223 306M199.768 299.902C202.109 301.191 204.928 302.373 207.447 302.937M207.447 302.937C205.341 301.75 203.247 300.471 201 299.222C199.244 298.247 200.436 298.709 202.799 299.646M209.221 303.231C210.281 303.336 211.24 303.288 212.023 303.036M209.221 303.231C210.626 303.737 212.092 304 213.944 304C215.996 304 217.749 304.129 218.463 304.192M212.023 303.036C213.213 303.398 214.285 303.669 215.111 303.778C216.908 304.016 217.968 304.139 218.463 304.192M218.463 304.192C218.893 304.23 218.947 304.244 218.463 304.192Z" stroke="#E5BD8C" stroke-width="5" stroke-linecap="round"/>
</g>
<defs>
<clipPath id="clip0_243_692">
<rect width="356" height="356" fill="white"/>
</clipPath>
</defs>
</svg>
