<svg width="344" height="330" viewBox="0 0 344 330" fill="none" xmlns="http://www.w3.org/2000/svg">
<path d="M74 278C74 286.837 57.4345 294 37 294C16.5655 294 0 286.837 0 278C0 269.163 16.5655 262 37 262C57.4345 262 74 269.163 74 278Z" fill="url(#paint0_linear_274_387)"/>
<path d="M284 265.5C284 297.809 225.797 324 154 324C82.203 324 24 297.809 24 265.5C24 233.191 82.203 207 154 207C225.797 207 284 233.191 284 265.5Z" fill="url(#paint1_linear_274_387)"/>
<path d="M42 308C42 311.314 35.732 314 28 314C20.268 314 14 311.314 14 308C14 304.686 20.268 302 28 302C35.732 302 42 304.686 42 308Z" fill="url(#paint2_linear_274_387)"/>
<path d="M328 307.5C328 319.374 309.644 329 287 329C264.356 329 246 319.374 246 307.5C246 295.626 264.356 286 287 286C309.644 286 328 295.626 328 307.5Z" fill="url(#paint3_linear_274_387)"/>
<path d="M344 262C344 267.523 333.255 272 320 272C306.745 272 296 267.523 296 262C296 256.477 306.745 252 320 252C333.255 252 344 256.477 344 262Z" fill="url(#paint4_linear_274_387)"/>
<path d="M76.0001 42.8291C89.6667 46.4958 107.9 54 119.5 48C121.167 45.8333 126.1 40.8 132.5 38C138.9 35.2 138.667 16 142 0C145.333 7 149.624 12.4 145.624 16C149 12.9617 155 16 156.5 27.5C159 29.8333 162 29 162 39V46C164 47 168.2 50.1 169 54.5C169.667 55.8333 171.2 59.4 172 63C173 67.5 175 77 178.5 81C179.234 81.8386 179.529 83.5729 179.506 85C179.435 89.3774 176.194 95.0694 172 97.2247L174 104.5L172 107C175.186 107.876 180.008 109.696 184.394 112.362L185.959 113.363C190.089 116.151 193.571 119.727 194.5 124C196.5 133.2 192.667 131.167 190.5 129C194.5 136 200.9 152 194.5 160C193.796 160.88 193.129 161.644 192.5 162.303C192.046 164.657 191.56 167.241 191.058 170C193.539 169.833 199 172.4 201 184C203.5 198.5 209.5 221 206.5 230.5C204.591 236.547 202.276 242.188 201.232 244.588C203.031 242.176 208.409 249.16 206.5 252.5C204.5 256 198.5 257 194.5 256.5C190.5 256 184 243.25 184 240C184 237.4 183.022 234.583 182.533 233.5C182.166 241.434 182.519 247.336 184 249.5C189.2 257.1 179.167 257.333 173.5 256.5C170.731 254.781 166.376 248.862 163.161 236.75H154.099C153.699 243.268 153.851 248.208 155 249.5C159 254 158.5 254 157.5 258.5C156.7 262.1 147.08 259 142.369 257C140.667 254.04 138.124 248.681 135.5 241.464C134.432 238.635 122.356 244.143 116.451 247.25L119.5 249.5C121.667 250.667 125.15 253.8 121.748 257C118.346 260.2 113.498 261 111.5 261C101.9 267.8 87.5552 247.667 81.5828 236.75L80.1656 240C79.5266 242.706 79.9367 245 83.0001 245C88.6001 245 90.3334 253 90.5001 257C90.1667 259.333 89.1001 263.4 87.5001 261C85.9001 258.6 79.1667 256.667 76.0001 256C80.3334 257.667 89.1001 264.7 89.5001 279.5C90.0001 298 78.5001 302.5 74.0001 305C70.4001 307 70.1667 304.167 70.5001 302.5C83.0001 285.5 67.0001 286 70.5001 287C73.3001 287.8 71.6667 292 70.5001 294C69.3334 295.167 67.0001 296.8 67.0001 294C67.0001 291.2 62.3334 290.833 60.0001 291C53.3334 291 39.3001 286.3 36.5001 267.5C33.6149 248.128 52.4744 231.135 58.3493 226.882C57.432 226.909 56.5066 226.405 56.0001 226C59.6001 215.2 75.5001 218.5 83.0001 221.5C87.0001 199.833 96.6001 156.1 103 154.5C109.4 152.9 112.602 133.5 113.403 124C111.725 120 119.435 112 123.5 108.5L121.748 107L122 101.354C119.144 102.599 120.687 98.8344 122 96.5C113.5 102 117 95.5 111.5 89.5C108.926 86.692 106.797 83.094 105.273 80C102.015 80.0179 101.1 76.1062 87.5001 63C79.5887 59.7954 80.8895 50.9782 76.0001 42.8291Z" fill="#E3C097"/>
<path d="M261.5 294L224 279.5V247.25C224.7 242.906 227.046 236.528 231.75 233.5C231.921 233.39 232.096 233.284 232.274 233.182L273 208.5C281.833 205.667 300.6 206.1 305 230.5V261L261.5 294Z" fill="#E3C097"/>
<path d="M261.5 260.5V294L224 279.5V247.5C224.833 240.666 229.7 228.2 242.5 233C258.5 239 260 253 261.5 260.5Z" fill="#C0674B"/>
<path d="M224 247.5C233 250 253.1 255.9 261.5 259.5C249.5 256.333 225.2 249.5 224 247.5Z" fill="#D1885F"/>
<path d="M246.5 234C242.5 232 239.5 231.5 238.5 231.5L277 207.5C284.577 205.985 290.958 209.134 293.594 211.171C293.733 211.274 293.869 211.384 294 211.5C293.877 211.395 293.741 211.284 293.594 211.171C289.902 208.436 283.391 210.216 280.5 211.5L246.5 234Z" fill="#F2E3AD"/>
<path d="M305 231L262 260.5V293.5L305 260.5V231Z" fill="#D1885F"/>
<path d="M122 107V102C122.333 100.166 123 97.3995 123 100.999C123 104.599 126.333 101.5 128 99.4996C136.4 95.4996 142.833 97.8329 145 99.4996L151.5 98.4996C163.1 102.9 168.333 99.6663 169.5 97.4996H172L174 104.5C160.4 122.9 133.667 113.833 122 107Z" fill="#C0674B"/>
<path d="M169.5 87.9995C167.5 86.7995 163 86.1661 161 85.9995C162 82.9995 173 79.4995 172 80.4995C171.2 81.2995 170 85.8328 169.5 87.9995Z" fill="#C0674B"/>
<path d="M148 78.9995C146.8 80.1995 142.833 78.4995 141 77.4995C143.8 69.0996 146.833 70.333 148 71.9996C148.639 72.1739 149.131 72.4066 149.5 72.6827C151.67 74.307 149.567 77.4325 148 78.9995Z" fill="#C0674B"/>
<path d="M165.5 68.9997C163.9 69.3997 162.5 64.4997 162 61.9997C163 61.9997 164.5 60.4997 166.5 61.9997C168.1 63.1997 168.167 65.1663 168 65.9997C167.833 66.833 167.1 68.5997 165.5 68.9997Z" fill="#C0674B"/>
<path d="M133 37.5C133.104 37.4819 133.211 37.4634 133.321 37.4446C136.791 36.2551 139.868 16.1864 141 6C141.167 12 142 23.6 144 22C146.5 20 147.5 37.5 146 36.5C144.833 35.7217 137.261 36.7731 133.321 37.4446C133.215 37.4813 133.107 37.5 133 37.5Z" fill="#D1885F"/>
<path d="M87.2079 62.6984C87.1344 62.6314 87.0649 62.565 86.9999 62.5C87.0678 62.5646 87.1371 62.6307 87.2079 62.6984C88.4554 63.8348 90.8667 65.1441 91.9999 62.5C92.6666 65.5 95.0999 71.1 99.4999 69.5C100.833 72.8333 104.1 77.9 106.5 71.5C108.667 74.5 113.7 78.3 116.5 69.5C115.333 74.8333 112.5 84.1 110.5 78.5C109.333 79.5 107.2 82 108 84C108.8 86 106.667 82.1667 105.5 80C104.833 80.1667 102.9 79.7 100.5 76.5C98.1464 73.362 90.7925 66.1211 87.2079 62.6984Z" fill="#D1885F"/>
<path d="M142.5 61C139.7 65 140.667 68.3333 141.5 69.5C143.5 69.5 147.3 68.6 146.5 65C145.7 61.4 143.5 60.8333 142.5 61Z" fill="#D1885F"/>
<path d="M153.5 52.5C154.667 55.1667 157.6 59.6 160 56C162.4 52.4 156.667 52.1667 153.5 52.5Z" fill="#D1885F"/>
<path d="M123.5 95C117.9 97.4 114.167 93.3333 113 91C113.667 92.3333 115.2 95.5 116 97.5C116.8 99.5 120.333 98 122 97C118.8 101.8 121.667 101.333 123.5 100.5C122.7 104.9 125.833 101.667 127.5 99.5C137.5 95.9 143.667 98 145.5 99.5L151.5 98C161.5 102.4 167.333 99.8333 169 98L166 98.5C164 99.3333 159.1 100.2 155.5 97C151.9 93.8 149.667 93.6667 149 94C145.833 94.3333 137.9 95.4 131.5 97C125.1 98.6 126.833 95 128.5 93C129.167 92.6667 129.1 92.6 123.5 95Z" fill="#D1885F"/>
<path d="M172 107C170.8 109.4 165.167 112.333 162.5 113.5C165.7 113.5 173.833 110.5 177.5 109L172 107Z" fill="#D1885F"/>
<path d="M123.5 109L134.5 112.5C129 113 117 115.9 113 123.5C113.833 126 116.5 130.1 120.5 126.5C117.833 134 114.1 148.6 120.5 147C126.9 145.4 123.167 149.333 120.5 151.5C117.833 161.5 114.1 180 120.5 174C126.9 168 125.167 171.5 123.5 174L122 185.5C121.667 191.5 121.9 202.9 125.5 200.5C127.667 213.167 132.5 238.9 134.5 240.5C128.5 242 116.5 245.5 116.5 247.5C116.5 249.5 114.167 246.333 113 244.5C120 245.333 131.9 239.7 123.5 210.5C113 174 105.5 182 105.5 184.5C105.5 187 101 167 94.9999 178.5C90.1999 187.7 85.9999 215.667 84.4999 228.5C83.8333 225.5 78.8999 219.3 64.4999 218.5C70.5732 218.333 82.7758 218.8 82.9999 222C87.1666 199.167 96.7999 153.8 102 155C107.2 156.2 111.5 134.5 113 123.5C112.833 121.5 114.7 115.8 123.5 109Z" fill="#D1885F"/>
<path d="M65.4999 277C45.4999 275.8 38.8333 260.833 37.9999 253.5C31.5999 279.9 48.3333 289.167 57.4999 290.5C66.2999 290.5 67.4999 293.167 66.9999 294.5C72.9999 294.5 71.4999 289.167 69.9999 286.5C75.9999 286.9 75.8333 292 74.9999 294.5C69.7999 303.7 70.4999 305.667 71.4999 305.5C97.0999 297.1 89.8333 272 82.9999 260.5C81.9999 259.5 80.8999 258.9 84.4999 264.5C88.0999 270.1 84.9999 279.167 82.9999 283C82.9999 276.2 71.3333 276.167 65.4999 277Z" fill="#D1885F"/>
<path d="M87.4999 256C85.4999 254.4 80.9999 255.333 78.9999 256C81.7999 257.2 85.8333 259.5 87.4999 260.5C92.6999 260.5 89.6666 253.5 87.4999 250C88.6999 252 87.9999 254.833 87.4999 256Z" fill="#D1885F"/>
<path d="M122 251.5C104.8 266.3 88.8333 245.333 82.9999 233L81.4999 237C97.0999 265 109 264.333 113 260.5C124.6 258.5 123.833 253.667 122 251.5Z" fill="#D1885F"/>
<path d="M158 254C148.4 262 139.667 250.667 136.5 244L142 256.5C150.8 261.7 156.333 260.333 158 259V254Z" fill="#D1885F"/>
<path d="M163 236H153.5C154.7 232.4 157 210.833 158 200.5C159.2 219.7 161.833 232.167 163 236Z" fill="#D1885F"/>
<path d="M184.5 251.5C177.7 256.3 169.667 250.833 166.5 247.5C167.7 250.3 171.333 254.667 173 256.5C185 258.5 185.667 254 184.5 251.5Z" fill="#D1885F"/>
<path d="M182.5 233L184.5 238C182.5 238 185.333 244.333 187 247.5C190.6 256.7 194.833 257.333 196.5 256.5C209.7 256.167 208 250.361 205.5 247.5C207.5 253.1 200.333 254.167 196.5 254C190.5 252 191.333 246.5 192.5 244C185.3 241.2 184.167 218.167 184.5 207L182.5 233Z" fill="#D1885F"/>
<path d="M184.5 164.5C184.6 164.6 184.703 164.699 184.809 164.796C185.905 165.65 188.541 166.099 192.5 162.5L190 174C186.833 178.833 180.9 185.6 182.5 174C177.833 185.5 159.7 206.4 162.5 188C160.833 190.333 156.9 192.9 154.5 184.5C156.333 184.667 160.9 184.1 164.5 180.5C167.167 187 176.5 193.3 184.5 164.5Z" fill="#D1885F"/>
<path d="M151 95C148.667 102 146.2 116.351 165 120.751C170 120.751 182.5 121.233 182.5 99.5C182.5 97.1383 181 90 178.5 89" stroke="#F2E3AD" stroke-width="3"/>
<path d="M147.75 95.375C147.284 95.3168 148.615 94.3108 148.812 94.25C149.666 93.9872 150.518 94.1362 151.347 94.4028C152.682 94.8318 153.378 96.0022 154.5 96.75M169.125 87.5C169.125 88.0911 169.459 88.6905 169.625 89.2778C169.987 90.5554 170 91.8071 170 93.125M170.125 91.25C170.125 92.0312 171.279 92.6339 171.903 92.875C174.277 93.7925 176.425 91.8106 177.5 89.875M170.125 92.375C169.977 93.7055 169.648 95.1915 168.847 96.3056C167.852 97.689 166.339 98.9083 164.778 99.5972C162.9 100.426 160.634 100.089 158.75 99.5M154.625 97.125C154.624 97.1167 154.623 97.1088 154.622 97.1013M154.622 97.1013C154.588 96.8694 154.529 96.9707 154.622 97.1013ZM154.622 97.1013C154.658 97.1525 154.718 97.2081 154.812 97.25C155.263 97.4504 155.767 97.8967 156.187 98.1875C157.083 98.8078 158.283 99.1416 159.25 99.625M155.25 92.75H155.625M159.25 95C159.284 95.2704 159.276 94.8552 159.25 94.75M159.375 91C159.233 91 159.434 91.0813 159.5 91.125M163.125 93.125V93M174.625 87C174.477 86.9815 174.5 86.8745 174.5 86.75M174.5 83.875C174.5 83.7141 174.601 83.9513 174.625 84M177.25 85.625V85.375C177.438 85.3514 177.51 85.125 177.25 85.125M177.75 82.375L177.625 82.25" stroke="#C0674B" stroke-linecap="round"/>
<path d="M143.625 74.625C143.315 74.625 143.136 75.2361 143.319 75.2361C143.718 75.2361 143.625 74.754 143.625 74.5M163.75 63.25C163.75 64.5255 163.982 63.0358 163.875 63.25M143.25 74.5C142.943 74.5 144.566 73.8475 144.062 74.25C143.85 74.42 143.866 74.6668 143.722 74.8472C143.512 75.1101 143.818 74.4599 143.875 74.375" stroke="white" stroke-linecap="round"/>
<path d="M162.5 122C163.7 121.6 163 119.5 162.5 118.5C162.5 119.3 160.833 118.167 160 117.5C162 114.7 164.5 117 165.5 118.5C166.381 122.025 165.307 124.169 164 125.136L162.5 142L159 140C158.667 139.333 158.2 137.9 159 137.5C159.8 137.1 159.333 135.667 159 135L160 133L161.5 134L162.5 125.739C162.104 125.771 161.752 125.689 161.5 125.5C160.167 124.5 159.5 122.833 159 121C159.333 121.5 161.3 122.4 162.5 122Z" fill="#D1885F"/>
<path d="M169.241 122.227C170.201 121.403 168.76 119.723 167.919 118.986C168.221 119.727 166.25 119.307 165.227 119.004C166.021 115.656 169.204 116.842 170.697 117.853C172.844 120.784 172.659 123.175 171.814 124.564L176.794 140.746L172.798 140.216C172.238 139.724 171.264 138.573 171.854 137.901C172.444 137.228 171.47 136.077 170.91 135.586L171.08 133.356L172.847 133.716L170.653 125.689C170.298 125.868 169.941 125.925 169.637 125.845C168.025 125.423 166.778 124.131 165.622 122.623C166.12 122.96 168.281 123.05 169.241 122.227Z" fill="#D1885F"/>
<path d="M181.753 277.765C180.514 278.88 178.75 279.213 176.854 279.349C174.738 278.851 173.812 278.037 173.613 277.692C171.252 275.189 173.992 273.18 175.657 272.489C179.286 272.305 181.182 273.773 181.878 275.242L198.135 279.971L195.497 283.019C194.778 283.217 193.282 283.398 193.044 282.536C192.806 281.674 191.309 281.855 190.591 282.053L188.822 280.686L190.093 279.407L182.18 276.83C182.135 277.225 181.986 277.555 181.753 277.765Z" fill="#C0674B"/>
<path d="M111 237L224.5 248L235 251L147.5 309.5C74.7 285.5 86.8333 251.833 111 237Z" fill="white" fill-opacity="0.35"/>
<path d="M252 256.5L245.5 253.5L163.5 327C179.5 333.8 227.333 323.166 245.5 323.5L252 256.5Z" fill="white" fill-opacity="0.35"/>
<path d="M163.5 220L222 240.5L235 230.5L215.5 213C194.3 211.8 174.667 214.166 163.5 220Z" fill="white" fill-opacity="0.35"/>
<path d="M253.477 56.8735C247.894 46.7367 239.519 50.01 236.029 52.9138C232.54 54.9765 229.05 61.625 236.029 56.8735C241.613 53.0722 246.789 55.2896 248.679 56.8735C249.988 63.6048 245.19 64.5552 241.7 65.1887C237.338 65.9807 236.029 69.1484 236.029 75.4839C236.029 81.8194 239.519 77.4638 239.519 75.4839C239.519 73.9 240.973 70.6003 241.7 69.1484C247.952 69.2804 259.061 67.0103 253.477 56.8735Z" fill="#C0674B"/>
<path d="M236.029 83.0073C238.356 82.8753 242.311 83.1657 239.519 85.3831C236.029 88.1549 234.369 87.363 236.029 83.0073Z" fill="#C0674B"/>
<defs>
<linearGradient id="paint0_linear_274_387" x1="172" y1="207" x2="172" y2="329" gradientUnits="userSpaceOnUse">
<stop stop-color="#FFECBC"/>
<stop offset="0.3925" stop-color="#EAC8A4" stop-opacity="0.8"/>
<stop offset="0.785" stop-color="#D1885F" stop-opacity="0.6"/>
<stop offset="1" stop-color="#D1885F" stop-opacity="0.8"/>
</linearGradient>
<linearGradient id="paint1_linear_274_387" x1="172" y1="207" x2="172" y2="329" gradientUnits="userSpaceOnUse">
<stop stop-color="#FFECBC"/>
<stop offset="0.3925" stop-color="#EAC8A4" stop-opacity="0.8"/>
<stop offset="0.785" stop-color="#D1885F" stop-opacity="0.6"/>
<stop offset="1" stop-color="#D1885F" stop-opacity="0.8"/>
</linearGradient>
<linearGradient id="paint2_linear_274_387" x1="172" y1="207" x2="172" y2="329" gradientUnits="userSpaceOnUse">
<stop stop-color="#FFECBC"/>
<stop offset="0.3925" stop-color="#EAC8A4" stop-opacity="0.8"/>
<stop offset="0.785" stop-color="#D1885F" stop-opacity="0.6"/>
<stop offset="1" stop-color="#D1885F" stop-opacity="0.8"/>
</linearGradient>
<linearGradient id="paint3_linear_274_387" x1="172" y1="207" x2="172" y2="329" gradientUnits="userSpaceOnUse">
<stop stop-color="#FFECBC"/>
<stop offset="0.3925" stop-color="#EAC8A4" stop-opacity="0.8"/>
<stop offset="0.785" stop-color="#D1885F" stop-opacity="0.6"/>
<stop offset="1" stop-color="#D1885F" stop-opacity="0.8"/>
</linearGradient>
<linearGradient id="paint4_linear_274_387" x1="172" y1="207" x2="172" y2="329" gradientUnits="userSpaceOnUse">
<stop stop-color="#FFECBC"/>
<stop offset="0.3925" stop-color="#EAC8A4" stop-opacity="0.8"/>
<stop offset="0.785" stop-color="#D1885F" stop-opacity="0.6"/>
<stop offset="1" stop-color="#D1885F" stop-opacity="0.8"/>
</linearGradient>
</defs>
</svg>
