<svg width="53" height="53" viewBox="0 0 53 53" fill="none" xmlns="http://www.w3.org/2000/svg">
<g clip-path="url(#clip0_243_335)">
<path d="M0.770171 27.885C1.15495 25.9684 5.84921 22.0308 21.5481 21.6127C37.2469 21.1945 44.5064 24.2261 46.1737 25.7942C49.1237 28.5819 49.175 34.6799 25.7806 36.7707C29.6284 37.6418 35.477 38.3388 29.6284 42.5203C24.2385 46.3738 16.0454 45.7972 11.1591 44.6111C10.7432 44.5101 9.58734 44.184 9.23524 44.0884C6.02877 42.6945 0.385394 39.1751 8.08091 36.248C4.61793 34.6799 -0.768933 32.4846 0.770171 27.885Z" fill="#D1885F"/>
<path d="M52.3301 37.2934C53.6361 34.928 47.0715 33.6346 44.2499 34.1572C40.8638 34.5754 39.8891 35.5511 40.0173 36.248C40.4983 38.8615 43.9933 39.6221 46.1737 39.3842C48.0976 39.3842 51.1758 39.3842 52.3301 37.2934Z" fill="#D1885F"/>
<path d="M38.0934 15.8631L28.0893 19.5219V33.1119L38.0934 27.3623V15.8631Z" fill="#EDD597"/>
<path d="M28.0893 33.1119L13.083 27.8849V14.8177L28.0893 19.5219V24.2261C31.0392 21.9611 37.17 17.5357 38.0934 17.9538C39.0169 18.372 31.8088 22.3096 28.0893 24.2261V28.669C30.7827 26.6653 36.5543 22.658 38.0934 22.658C39.6325 22.658 32.0653 26.6653 28.0893 28.669V33.1119Z" fill="#F2E3AD"/>
<path d="M28.0893 24.2261C24.1132 22.3096 15.9303 18.6856 15.0069 19.5219C14.0834 20.3582 23.3437 23.0065 28.0893 24.2261Z" fill="#EDD597"/>
<path d="M28.0893 28.4076C26.8067 28.5819 22.3946 27.9895 15.0069 24.2261L28.0893 28.4076Z" fill="#EDD597"/>
<path d="M19.6242 24.2262C17.1616 22.9717 16.8025 27.1881 16.9308 29.4531L22.3176 31.5438C22.4459 29.6273 22.0868 25.4806 19.6242 24.2262Z" fill="#E3C097"/>
<path d="M19.0443 24.2261C18.403 24.0519 17.2764 25.7299 17.2764 29.9114L16.3611 29.4581C16.3523 29.4791 16.348 29.4807 16.3509 29.453C16.5543 27.4754 17.3362 23.4526 19.0443 24.2261Z" fill="#C0674B"/>
<path d="M28.985 20.0446L13.4678 15.0268L20.2802 8.75446L30.1204 7.5L36.5543 15.0268L28.985 20.0446Z" fill="#C0674B"/>
<path d="M11.1591 16.9084L20.1239 8.54538L33.0913 7.5L40.0173 18.4765L29.2436 22.1353L20.7921 9.59076L13.4978 15.5146L13.083 16.3857L11.1591 16.9084Z" fill="#D1885F"/>
<path d="M8.46569 34.68L7.69614 32.0665C9.54306 29.9758 13.083 31.1954 14.6221 32.0665L13.8526 34.68C12.3134 35.9344 9.62002 35.2027 8.46569 34.68Z" fill="#F2E3AD"/>
<path d="M14.6221 32.0665C12.1595 33.321 8.97872 32.5892 7.69614 32.0665L8.46569 34.68C10.3126 35.9344 12.8265 35.7253 13.8526 35.2026L14.6221 32.0665Z" fill="#E3C097"/>
</g>
<defs>
<clipPath id="clip0_243_335">
<rect width="52" height="52" fill="white" transform="translate(0.5 0.5)"/>
</clipPath>
</defs>
</svg>
