<svg width="15" height="19" viewBox="0 0 15 19" fill="none" xmlns="http://www.w3.org/2000/svg">
<path d="M7.5 0.9C4.73828 0.9 2.525 3.06795 2.525 5.78125V7.80885C1.59987 7.85713 0.9 8.57295 0.9 9.5V16.4062C0.9 17.3664 1.65078 18.1 2.625 18.1H12.375C13.3492 18.1 14.1 17.3664 14.1 16.4062V9.5C14.1 8.57295 13.4001 7.85713 12.475 7.80885V5.78125C12.475 3.06795 10.2617 0.9 7.5 0.9ZM12.8167 9.5V16.4062C12.8167 16.5423 12.7709 16.6482 12.6977 16.72C12.6243 16.792 12.5154 16.8375 12.375 16.8375H2.625C2.48465 16.8375 2.37571 16.792 2.30231 16.72C2.22909 16.6482 2.18333 16.5423 2.18333 16.4062V9.5C2.18333 9.36394 2.22909 9.25806 2.30231 9.18624C2.37571 9.11425 2.48465 9.06875 2.625 9.06875H3.16667H11.8333H12.375C12.5154 9.06875 12.6243 9.11425 12.6977 9.18624C12.7709 9.25806 12.8167 9.36394 12.8167 9.5ZM3.80833 7.80625V5.78125C3.80833 3.76643 5.44089 2.1625 7.5 2.1625C9.55911 2.1625 11.1917 3.76643 11.1917 5.78125V7.80625H3.80833Z" fill="#9CB4B6" stroke="#9CB4B6" stroke-width="0.2"/>
</svg>
