<svg width="26" height="24" viewBox="0 0 26 24" fill="none" xmlns="http://www.w3.org/2000/svg">
<path d="M6.89157 4.925L0 15L5.95181 12.4L11.5904 2L6.89157 4.925Z" fill="#F2E3AD"/>
<path d="M18.1687 12.4H6.26506L5.95181 12.075L11.5904 2.325L22.8675 2L18.1687 12.4Z" fill="#EDD597"/>
<path d="M23.1807 15L18.1687 12.4L22.241 2L26 4.6L23.1807 15Z" fill="#E3C097"/>
<path d="M12.6367 4.05022C12.5753 4.04432 12.5393 3.96875 12.5958 4.0148C12.7626 4.15072 12.9248 4.294 13.0823 4.43785C13.1379 4.4887 13.191 4.54073 13.2422 4.59357M13.2422 4.59357C13.4054 4.76199 13.5499 4.93877 13.7006 5.11276M13.2422 4.59357C13.0358 4.7108 12.8332 4.83685 12.6367 4.96321C12.5202 5.03814 12.4558 5.07734 12.3094 5.07734M13.2422 4.59357C13.3112 4.55434 13.3807 4.5161 13.4505 4.47917C13.6468 4.37534 13.8523 4.28291 14.0461 4.17615C14.1193 4.13587 14.3139 4.12165 14.2325 4.22731M12.1866 5.85653C12.0805 5.86674 11.8184 6.03259 11.8184 6.13988M11.2046 7.09616C11.0483 7.11119 11 7.5145 11 7.62743M11.3683 8.51288C11.3831 8.61533 11.6305 8.78957 11.7274 8.82377C11.7752 8.84062 12.0435 8.94677 11.9411 8.90247M12.9641 8.7608C13.124 8.7608 13.2704 8.76478 13.4233 8.71751C13.5744 8.67079 13.6826 8.55349 13.8234 8.51288M14.519 7.94619C14.5285 7.87995 14.7158 7.75517 14.7599 7.71007C14.8886 7.57864 15.109 7.40572 15.1737 7.23783M15.9102 6.67118C15.8422 6.66383 16.374 6.12819 16.483 6.317M17.3832 6.60031C17.5343 6.60031 18.0434 6.86939 17.997 6.98991M17.997 7.87535C17.997 8.14238 17.8668 8.39694 17.7924 8.65455M17.5878 9.57541C17.3623 9.57541 17.2802 9.7354 17.1377 9.85876M17.2196 9.71713C17.1082 9.71713 16.8352 9.72863 16.9582 9.89422C17.1121 10.1015 17.6012 9.96043 17.7697 9.8411C17.9857 9.68811 17.8985 9.64513 17.6606 9.60301C17.3417 9.54655 17.1906 9.67409 16.8922 9.71713" stroke="#C0674B" stroke-linecap="round"/>
<path d="M1.2639 19.1718L7.99094 13L9 13.3429L3.05834 20.3562C3.08497 20.554 2.96407 20.7416 2.60931 20.8862C1.2639 21.4348 0.591201 19.8576 1.2639 19.1718Z" fill="#D1885F"/>
<path d="M7.90962 12.0667C7.49617 12.2696 7.19412 11.7858 7.15532 11.4202C7.08682 10.7747 7.71615 10.4632 8.11471 10.0937C8.50893 9.72826 7.41424 10.9543 7.29661 11.4739C7.27747 11.5584 7.21685 11.6813 7.21685 11.5052C7.21685 10.9808 7.52318 10.3857 7.84125 9.9774C8.13842 9.59595 8.67192 9.38432 9.0741 9.12963C9.43079 8.90374 9.83722 8.77675 10.2295 8.62185C10.6942 8.43835 11.1699 8.29835 11.6515 8.16329C11.946 8.0807 11.0618 8.33037 10.7787 8.44514C9.94484 8.78321 9.30154 9.25144 8.64796 9.86109C8.55922 9.94386 7.85034 10.6922 8.17852 10.8386C8.41137 10.9425 8.87057 10.3737 8.98295 10.2682C9.53797 9.74709 11.2557 8.24088 10.7126 8.77396C10.3033 9.17567 9.75597 9.4743 9.30882 9.83424C8.95121 10.1221 8.61302 10.4334 8.27879 10.7469C8.18871 10.8314 7.91417 11.0204 7.91417 11.1764C7.91417 11.3292 8.664 10.7425 8.68442 10.7268C9.39785 10.177 10.1093 9.62368 10.863 9.12739C10.9432 9.07458 11.177 8.86344 11.2869 8.86344C11.4559 8.86344 11.0345 9.08454 10.904 9.19002C10.0512 9.87913 9.15105 10.5444 8.41324 11.3576C8.36102 11.4151 8.24446 11.6012 8.31525 11.5678C8.5392 11.4623 8.74435 11.2584 8.93054 11.1048C9.64531 10.5149 10.3479 9.9033 11.1045 9.3645C12.0078 8.7213 7.95665 12.4579 8.82799 11.7736C9.6489 11.129 10.4262 10.4197 11.3005 9.84319C11.6305 9.62562 10.7347 10.3913 10.4482 10.6619C10.3887 10.7181 9.05232 12.0297 9.08094 12.0465C9.16225 12.0944 9.55083 11.7597 9.58001 11.7378C10.0942 11.3521 10.5952 10.9524 11.1228 10.5836C11.3868 10.3991 12.1315 9.81248 11.9432 10.0714C11.8969 10.1349 11.8267 10.1778 11.7677 10.2302C11.4502 10.5115 11.1394 10.8004 10.8311 11.0914C10.3022 11.5905 9.76167 12.09 9.29059 12.6438C9.23499 12.7091 8.99553 13.018 9.25869 12.8272C10.2635 12.0986 11.14 11.1999 12.2098 10.5545C12.2165 10.5505 12.3904 10.443 12.4513 10.436C12.4809 10.4326 12.4245 10.4892 12.4035 10.5098C12.1102 10.7977 11.7815 11.0562 11.4737 11.3285C11.1297 11.6328 10.7511 11.9332 10.4574 12.2881C10.2692 12.5154 10.5311 12.3444 10.6078 12.2859C10.8352 12.1124 11.0536 11.9274 11.2732 11.7445C11.353 11.6781 11.5089 11.4968 11.6241 11.4806C11.626 11.4803 11.5242 11.6907 11.4942 11.7266C10.8402 12.5113 9.71066 12.8773 8.70949 12.7064C8.21949 12.6228 8.70168 11.5547 9.00802 11.6327C9.25213 11.6948 8.93085 12.1923 8.87129 12.2792C8.72376 12.4942 8.44 12.6647 8.16485 12.6527C7.87035 12.6399 8.66996 11.3417 8.87129 11.9526C9.04855 12.4904 8.75479 13.0434 8.13294 12.7511C7.71913 12.5566 8.01697 11.8723 8.42691 11.9593C9.05093 12.0917 8.35751 13.1413 7.74554 12.7332C7.38295 12.4915 7.64915 11.665 8.07141 11.6305C8.29724 11.612 8.38727 11.9616 8.39501 12.1248C8.40946 12.4297 8.21031 12.6668 7.91873 12.7646C7.53877 12.8919 7.16072 12.5867 7.31712 12.1919C7.37311 12.0506 7.59135 11.9574 7.73642 11.9638C7.94906 11.973 7.84377 12.2879 7.74326 12.3619C7.44604 12.5807 7.06185 12.368 7.13937 12.013C7.17313 11.8583 7.32112 12.1504 7.33535 12.1874C7.41948 12.4063 7.55884 12.5902 7.7501 12.731C8.34882 13.1718 9.01914 13.0127 9.63242 12.6706C9.87276 12.5366 10.4218 12.3756 9.78738 12.3507C9.49426 12.3392 9.19916 12.3599 8.94877 12.5275C8.75327 12.6583 9.05463 12.8326 9.15842 12.8719C9.52688 13.0117 9.87306 12.8992 10.2158 12.7422C10.5547 12.5869 11.068 12.3813 11.3279 12.1092C11.4804 11.9495 11.1603 11.9608 11.0658 11.9705C10.6454 12.0135 10.0129 12.1551 9.78282 12.5409C9.59739 12.8518 10.0579 12.9233 10.2614 12.8943C10.7347 12.8269 11.1546 12.639 11.5398 12.3709C11.7501 12.2245 12.008 12.0801 12.1072 11.8295C12.203 11.5878 11.3552 11.903 11.3005 11.928C11.0335 12.0501 10.6846 12.2605 10.5622 12.5409C10.4098 12.89 10.9135 12.873 11.1091 12.825C11.606 12.703 12.0647 12.3118 12.4377 11.9839C12.652 11.7955 13.2989 11.1744 13.1418 10.8274C12.9782 10.4661 11.1635 11.5585 11.2686 12.0599C11.3328 12.3661 11.9209 12.196 12.0822 12.1114C12.3627 11.9643 12.612 11.7529 12.8205 11.5186C12.8539 11.4811 13.3461 10.8866 13.0324 10.9035C12.6887 10.922 12.3493 11.2982 12.244 11.5969C12.1036 11.9949 12.5129 11.7488 12.6678 11.6193C12.9302 11.3999 13.2098 11.172 13.3766 10.8699C13.4954 10.6546 12.7621 11.1136 12.7089 11.1585C12.6292 11.2256 12.1429 11.6953 12.5379 11.6953C12.9556 11.6953 13.3179 11.2975 13.5703 11.0108C13.7072 10.8553 13.8754 10.5722 13.7981 10.3532C13.7005 10.0763 13.2711 10.43 13.1806 10.5232C13.013 10.6957 12.7335 11.0101 12.7567 11.2726C12.7806 11.5423 13.327 11.0465 13.3652 11.0019C13.629 10.6935 13.8711 10.2722 13.8711 9.85661C13.8711 9.31593 12.5131 10.3881 12.3784 10.6261C12.1788 10.9788 12.5115 11.0304 12.7772 10.9303C13.2153 10.7654 13.6002 10.4263 13.7571 9.98188C13.8479 9.72485 13.8018 9.3764 13.4518 9.47634C12.8942 9.63554 12.4608 10.1578 12.2485 10.6664C12.0376 11.1716 12.5633 10.866 12.7727 10.7044C13.0466 10.4929 13.7767 9.85313 13.5748 9.42713C13.3428 8.93755 12.4831 9.64485 12.285 9.81188C12.2346 9.85437 11.4495 10.6829 11.9249 10.6395C12.3523 10.6005 12.9617 9.98773 13.0416 9.58819C13.1481 9.05535 12.1439 9.37783 11.9386 9.47858C11.7172 9.58723 11.5139 9.75086 11.3712 9.95056C11.2602 10.1058 11.2495 10.2757 11.5011 10.2056C11.8457 10.1096 12.12 9.82738 12.3351 9.56134C12.3955 9.48669 12.7269 9.12665 12.4673 9.06476C12.0244 8.95919 11.4474 9.44302 11.141 9.68661C11.0143 9.78737 10.5573 10.3886 11.0316 10.1519C11.3615 9.98722 11.8984 9.65455 12.0184 9.27502C12.1231 8.94386 11.3105 9.10134 11.2003 9.14528C10.9569 9.24226 10.5416 9.48892 10.4619 9.76266C10.4367 9.84919 10.6027 9.7721 10.6123 9.76714C10.8762 9.63175 11.1149 9.40485 11.3074 9.18555C11.3508 9.1361 11.8133 8.45582 11.7722 8.44961C11.4198 8.39639 10.9476 8.86844 10.7035 9.05134C10.557 9.16107 10.3028 9.37448 10.5348 9.09607C10.6568 8.94975 10.8111 8.7681 10.9724 8.66659C11.0685 8.6061 11.6476 8.38803 11.6264 8.66883C11.6075 8.91999 11.1286 9.00069 10.9359 9.0066C10.8668 9.00872 10.6093 9.04723 10.5576 8.98199C10.4752 8.87795 10.7136 8.60167 10.7901 8.54133C11.1424 8.26317 11.7651 8.38394 12.1118 8.60172C12.5655 8.88675 11.5976 8.89349 11.4281 8.87686C10.9361 8.82856 11.2579 8.35851 11.574 8.30422C11.8994 8.24831 12.2755 8.29951 12.5607 8.46751C12.9567 8.70074 12.873 8.96686 12.5584 9.24818C12.2406 9.53242 11.4549 10.0489 10.9997 9.77161C10.7321 9.60858 11.3711 8.99283 11.4874 8.90817C11.8395 8.6519 12.2519 8.56832 12.6815 8.62856C12.9055 8.65997 13.2588 8.88273 12.9778 9.11844C12.7198 9.33479 12.2619 9.45465 11.9386 9.52108C11.7946 9.55067 11.3113 9.61383 11.4942 9.29963C11.676 8.98739 12.1227 8.682 12.4878 8.6308C12.7076 8.59999 13.1393 8.69983 12.9367 9.0066C12.689 9.3818 12.0925 9.17869 12.3215 8.72922C12.5196 8.34014 13.2288 8.61709 13.4244 8.86344C13.671 9.17396 13.6483 9.29594 13.5725 9.63069C13.4974 9.96264 13.8279 8.90056 13.6432 8.61291C13.4558 8.32112 12.2806 8.34904 12.5949 8.5033C12.8385 8.62287 13.1142 8.63185 13.3446 8.79186C13.5625 8.94312 13.7748 9.17143 13.8392 9.43161C13.8865 9.62294 13.8243 9.7873 13.7343 9.95504C13.7158 9.98963 13.5429 10.2315 13.5908 10.1094C13.7779 9.63182 13.9411 9.16872 13.5748 8.72922C13.4901 8.62756 13.4525 8.53937 13.3059 8.52567C13.2427 8.51976 12.9209 8.44717 13.1145 8.50106C13.5006 8.60853 14.086 8.96867 13.8164 9.44503C13.7397 9.58046 13.7728 9.41399 13.7776 9.33989C13.7949 9.07746 13.7926 8.86803 13.5703 8.69343C13.5438 8.6727 13.3654 8.5446 13.4654 8.57264C13.7502 8.6525 13.9386 8.8637 13.9964 9.14752C14.0165 9.24626 13.9461 9.83481 13.9394 9.59266C13.926 9.10546 13.5362 8.70241 13.0803 8.5458C12.8406 8.46345 12.5963 8.36238 12.3397 8.36238C12.0284 8.36238 11.7401 8.46825 11.4464 8.55475C11.3193 8.59218 11.2115 8.60878 11.0863 8.66659C11.0317 8.69181 11.4291 8.40886 11.5147 8.36685C11.8943 8.18058 12.3401 8.2312 12.7499 8.29079C12.8871 8.31074 13.0436 8.31483 13.1737 8.36238C13.2017 8.3726 13.411 8.45212 13.3766 8.4183C13.0326 8.08066 12.3713 8.23416 11.9477 8.24158C11.6247 8.24724 11.3331 8.43689 11.0476 8.56146C10.7877 8.67482 10.5256 8.7785 10.2705 8.9037C10.2508 8.91339 9.83296 9.14221 9.83296 9.06923C9.83296 8.94237 10.2265 8.75462 10.3138 8.70238C10.5779 8.54429 10.9091 8.36238 11.2299 8.36238C11.3032 8.36238 11.9173 8.41658 11.8794 8.36238C11.7135 8.1255 10.5871 8.50387 10.3548 8.60396C9.99178 8.7604 9.65727 8.98959 9.30427 9.16765C8.96366 9.33946 8.63671 9.53692 8.32209 9.74924C8.1267 9.8811 7.94224 10.0557 7.77744 10.2235C7.63115 10.3724 7.36972 10.7531 7.51993 10.3107C7.73927 9.6648 8.29997 9.39809 8.80748 8.98423C9.02452 8.80723 9.30954 8.69473 9.57317 8.58383C9.9638 8.41949 10.3797 8.23386 10.7946 8.12527C11.0157 8.0674 11.2466 8.11041 11.4692 8.07158C11.7263 8.02671 11.9556 8 12.2166 8C12.3874 8 13.2075 8.05358 12.7225 8.21027C11.8827 8.48159 11.0671 8.76659 10.2523 9.10726C9.75885 9.31355 9.26645 9.58684 8.85306 9.92372C8.63158 10.1042 8.36108 10.2766 8.22865 10.5366C8.17671 10.6386 8.19835 10.7542 8.15573 10.8587C8.11335 10.9627 8.07592 11.2194 7.98254 11.2927C7.83659 11.4073 7.65864 10.7017 7.68629 10.597C7.70936 10.5097 7.84641 10.3107 7.74098 10.4807C7.64964 10.628 7.54539 10.7595 7.54044 10.9393C7.53101 11.282 7.49943 10.6234 7.49943 10.5322C7.49943 10.3882 7.51616 10.2698 7.60425 10.1519C7.63443 10.1115 7.8648 9.90463 7.80023 9.99083C7.68898 10.1393 7.53992 10.2741 7.50854 10.465C7.48238 10.6243 7.53246 10.7989 7.49715 10.9549C7.46964 11.0764 7.23349 10.7582 7.22141 10.729C7.15174 10.5607 7.19621 10.2987 7.31484 10.1564C7.38485 10.0724 7.38124 10.0469 7.35586 10.1765C7.323 10.3442 7.27275 10.5071 7.24419 10.6753C7.20079 10.9309 7.17127 11.1659 7.17127 11.4247C7.17127 11.5058 7.21514 11.9398 7.15304 11.8072C7.05165 11.5906 7.09236 11.3703 7.15304 11.1495C7.18942 11.0172 7.27104 10.9229 7.17127 11.0601C6.93616 11.3832 7.12506 11.8265 7.28521 12.1293C7.35101 12.2537 7.54934 12.3979 7.57918 12.5297C7.61499 12.6878 7.15189 12.3441 7.08923 12.2501C6.91225 11.9844 7.02987 11.7746 7.17127 11.5432" stroke="white" stroke-opacity="0.35" stroke-linecap="round"/>
<path d="M7.34742 13C6.89694 12.4961 6.93496 11.8766 7.17633 11.2266C7.35293 10.751 7.5677 10.2915 7.8802 9.90868C8.2241 9.48733 8.63588 9.19289 9.04969 8.87178C9.31575 8.66532 9.53507 8.50454 9.83153 8.37513C10.1143 8.2517 10.4062 8.09693 10.7022 8.02142C10.9065 7.9693 11.1453 8.02869 11.354 8.02869C11.9117 8.02869 12.5577 8.22447 13 8.59559" stroke="white" stroke-opacity="0.35" stroke-linecap="round"/>
<path d="M11.012 11.9475C10.631 11.8876 10.2213 12.3319 10.025 12.7944C9.9203 13.041 10.1725 13.0145 10.2686 12.973C10.6242 12.8194 10.9941 12.3678 11.2629 12.0215C11.3455 11.9149 11.4161 11.7844 11.4956 11.672C11.5857 11.5446 11.539 11.5743 11.4541 11.6312C11.15 11.8348 10.7896 11.8878 10.5158 12.1745C10.4584 12.2347 10.272 12.4967 10.4165 12.5648C10.8094 12.75 11.2333 12.2413 11.5191 11.9424C11.5493 11.9108 12.2748 11.1429 12.1741 11.0393C12.1249 10.9887 11.812 11.2209 11.7627 11.2485C11.5245 11.382 11.2887 11.5579 11.0734 11.7536C10.9047 11.9069 10.5156 12.2292 10.5248 12.5801C10.5341 12.9364 11.267 12.3342 11.326 12.2842C11.7127 11.957 12.1117 11.5444 12.3618 11.0036C12.4618 10.7873 12.3025 10.8967 12.2138 10.9628C11.9178 11.1835 11.6315 11.4416 11.3477 11.6924C11.1207 11.8929 10.7584 12.1967 10.7522 12.6363C10.7456 13.1044 11.3033 12.5004 11.4162 12.3965C11.8732 11.976 12.3354 11.4557 12.6325 10.7995C12.6752 10.7052 12.9042 9.85 12.6668 10.001C12.5532 10.0733 12.4981 10.227 12.4376 10.3709C12.3214 10.6472 12.1877 10.9013 12.055 11.1618C12.0413 11.1887 11.7611 11.6973 11.8782 11.598C12.2046 11.3211 12.4423 10.9493 12.6505 10.5036C12.6955 10.4073 13.1001 9.40909 12.9104 9.49849C12.8024 9.54937 12.777 9.68491 12.7462 9.82247C12.6932 10.0584 12.6088 10.2751 12.5386 10.501C12.5208 10.5584 12.3064 11.2077 12.3311 11.2077C12.507 11.2077 12.7421 10.6946 12.831 10.524C12.9944 10.2101 13.0428 9.77119 12.9609 9.39645C12.9182 9.20114 12.8278 9.10375 12.701 9.01889C12.6637 8.99389 12.4635 8.99352 12.5134 9.01889C13.1821 9.35923 13.0108 10.3402 12.6613 10.9628C12.2868 11.6299 11.7938 12.0796 11.2322 12.3607C11.2001 12.3768 10.8056 12.54 10.9471 12.4067" stroke="white" stroke-opacity="0.35" stroke-linecap="round"/>
<path d="M12 11.6697V11.9567C12 11.9567 12 11.6596 12 11.4996C12 11.3096 12 11.8118 12 11.9939C12 12.0579 12 11.5988 12 11.5262C12 11.4103 12 11.0703 12 11" stroke="white" stroke-linecap="round"/>
<path d="M14.327 9.2326C14.5594 9.73191 14.4835 10.3935 14.0343 11.1037C13.5885 11.8087 12.8069 12.4981 11.7827 12.9746C10.7585 13.4512 9.72781 13.6051 8.90143 13.4922C8.06876 13.3784 7.51377 13.0105 7.28142 12.5112C7.04908 12.0119 7.125 11.3503 7.57421 10.64C8.02002 9.9351 8.80155 9.24571 9.82575 8.76912C10.85 8.29252 11.8807 8.13862 12.707 8.25155C13.5397 8.36533 14.0947 8.7333 14.327 9.2326Z" stroke="#D1885F"/>
</svg>
