<svg width="107" height="67" viewBox="0 0 107 67" fill="none" xmlns="http://www.w3.org/2000/svg">
<g clip-path="url(#clip0_243_718)">
<path d="M9.19945 64.9769C8.70521 65.2095 6.38133 65.6848 7.77544 65.7093C10.178 65.7514 12.3172 66.5064 14.692 65.9127C21.0146 64.3321 28.1467 65.91 34.5264 66.4416C41.3016 67.0062 48.0323 67.955 54.8083 68.5573C58.7399 68.9068 62.7082 68.4821 66.6479 68.8217C72.2169 69.3018 78.0914 69.2108 83.6139 68.3539C84.4346 68.2265 82.0232 68.0799 81.9458 68.0691C78.7993 67.6286 75.6413 67.378 72.466 67.2553C64.5601 66.95 56.4507 66.8349 48.5427 67.1943C47.4362 67.2446 46.8836 67.4615 48.3393 67.6215C52.1454 68.0398 55.9646 68.315 59.772 68.72C60.4135 68.7883 73.1813 69.9641 68.9873 67.3571C66.6182 65.8844 63.5623 65.6759 60.8705 65.3431C55.3315 64.6583 49.5948 64.2574 44.0266 64.8549C43.1722 64.9465 39.1311 65.1707 38.4526 66.0755C38.1348 66.4991 39.4741 66.3686 39.9987 66.4416C41.7535 66.6858 43.5181 66.7569 45.2878 66.7875C49.3028 66.8567 53.5485 67.1603 57.5343 66.5637C57.8997 66.509 62.3461 65.1913 62.3352 65.1804C61.3449 64.1901 58.4787 64.4849 57.3105 64.4277C52.3745 64.1857 47.483 64.3585 42.5619 64.7735C42.1257 64.8103 38.1597 65.1548 40.8937 64.8956C44.7458 64.5303 48.5743 63.8073 52.3875 63.1664C54.8989 62.7443 57.3728 62.1178 59.894 61.7627C60.0431 61.7417 60.1968 61.7431 60.3416 61.7017C60.6937 61.6011 59.609 61.6897 59.2431 61.7017C57.3702 61.7631 55.5004 61.8852 53.6284 61.9662C52.4265 62.0182 48.1388 61.9951 52.1434 62.2306C56.9526 62.5135 61.6728 62.7784 66.4445 63.4919C70.8973 64.1577 84.3743 63.9343 79.9115 64.5294C75.4483 65.1245 61.9406 64.036 66.4038 64.6311C73.9984 65.6437 81.5346 67.6204 89.2286 66.2789C91.0211 65.9663 93.3986 65.5389 94.9449 64.4684C95.1837 64.3031 90.8891 64.2589 90.5915 64.2649C87.0328 64.3368 83.6514 64.8624 80.1963 65.7093C79.8747 65.7881 74.2482 67.2082 75.5174 67.5401C81.2375 69.0362 87.9981 67.5676 93.6633 66.523C94.6677 66.3378 97.7157 66.0755 96.6944 66.0755C93.7499 66.0755 90.785 66.5311 87.9266 67.2147C85.1772 67.8721 82.1845 68.6744 79.8301 70.3068C77.6394 71.8257 82.3156 71.0532 82.8816 70.9578C88.849 69.9512 94.0687 66.7269 99.7459 64.8345C100.787 64.4875 100.672 64.4128 99.4 64.2446C98.6597 64.1467 91.2692 63.2882 91.1408 64.1225C90.9959 65.0646 94.7871 65.7731 95.3111 65.8517C98.6355 66.3503 101.887 65.3152 104.791 63.736C104.853 63.702 107.628 62.0423 107.171 61.7627C105.673 60.8473 101.47 62.2019 100.01 62.4951C89.6698 64.5726 79.2481 65.9834 68.8856 67.9063C68.8406 67.9147 63.5459 68.9643 65.6714 69.0048C69.7987 69.0834 73.8956 69.0866 78.0196 69.371C78.2512 69.387 84.1303 69.3375 84.3869 70.022C84.661 70.7528 82.8279 70.1067 82.0475 70.1237C78.9877 70.1902 75.9303 70.3369 72.8728 70.4695C65.9175 70.7712 58.9647 71.0482 52.0213 71.568C51.626 71.5976 40.858 72.6776 40.9344 72.8496C41.4355 73.9771 49.0923 74.3603 50.0074 74.4974C55.4528 75.3134 60.996 76.0388 66.4445 74.8636C66.5102 74.8494 70.1837 74.0298 69.0891 73.582C66.6541 72.5859 63.263 72.8433 60.7078 72.7479C48.458 72.2909 36.1251 71.6087 23.8667 71.6087C21.3214 71.6087 21.2544 71.8364 23.8464 72.097C31.4581 72.8622 39.0886 73.6774 46.7525 73.521C47.0799 73.5143 50.342 73.3993 51.1466 73.1141C52.5068 72.632 48.4576 72.007 47.0373 71.7511C39.3625 70.3687 31.49 70.1364 23.7243 69.5744C20.9961 69.377 18.2047 69.0048 15.4651 69.0048C13.0313 69.0048 20.306 69.5138 22.7275 69.7575C27.2233 70.2099 31.7713 70.9796 36.2962 71.0391C36.6676 71.044 39.988 71.0051 37.9237 70.3882C29.6059 67.9024 20.2311 68.2725 11.6406 68.2725C10.5132 68.2725 9.57254 68.1979 11.1524 68.8014C13.8335 69.8256 16.6228 70.4064 19.493 70.4695C19.5129 70.47 21.8199 70.4695 20.5508 70.4695C17.893 70.4695 15.2223 70.3375 12.5967 69.8999C9.18167 69.3307 5.10681 65.5039 4.31714 62.0069C3.74808 59.4867 6.91755 66.6178 8.93499 68.2318C9.40732 68.6097 7.71581 68.237 7.12447 68.1097C6.00566 67.869 3.17613 67.6103 2.48628 66.5637C2.18287 66.1033 1.9688 62.1862 2.40491 63.4716C3.18328 65.7657 4.01402 67.8942 6.35144 69.0252C10.1782 70.8768 15.3184 70.6944 19.493 70.8154C26.1911 71.0095 33.1829 69.6912 39.7139 68.3539C47.9164 66.6743 56.2187 65.4219 64.4509 63.8784C66.7566 63.4461 68.9559 62.8528 71.2047 62.2103C72.5385 61.8292 71.4142 62.0475 70.6758 62.0475C69.3526 62.0475 68.0637 62.0364 66.7496 61.8848C65.0256 61.6859 69.3956 63.0638 69.6587 63.1257C75.1995 64.4294 81.0287 64.3266 86.584 63.1461C89.2081 62.5884 87.719 62.2678 85.9737 62.4341C84.6162 62.5633 86.9237 63.1208 87.0722 63.1461C88.9062 63.4582 90.792 63.4457 92.5241 62.6985C94.3481 61.9117 95.9707 60.6145 97.5285 59.403C97.9007 59.1135 100.161 56.7683 99.5628 58.1824C98.6862 60.2543 98.4555 65.6725 101.902 62.8002C103.941 61.1015 105.441 58.6415 106.927 56.4736C107.658 55.4074 107.123 55.0977 106.317 55.904C104.913 57.3076 107.056 60.0804 107.863 61.2542C108.244 61.8083 108.463 61.5082 108.432 60.949C108.344 59.312 106.814 57.7644 105.869 56.555C105.274 55.794 104.079 53.3107 104.079 54.2765C104.079 55.7927 105.09 57.1906 105.035 58.7927C104.792 65.8441 93.4209 68.8709 88.2928 71.2019" stroke="#E3C097" stroke-width="5" stroke-linecap="round"/>
<path d="M74.7193 17.0001H67.2193C61.3859 11.0001 45.2193 2.60006 27.2193 17.0001C4.71926 35.0001 3.21926 44.0001 0.219261 57.5001C-2.18074 68.3001 15.7193 68.0001 24.7193 66.5001C52.2193 66.5001 52.7193 55.6667 52.2193 47.0001C53.7193 56.5001 52.7193 65.0001 78.7193 66.5001C99.5193 67.7001 106.053 61.0001 106.719 57.5001C108.719 36.7001 86.2193 21.8334 74.7193 17.0001Z" fill="#F2E3AD"/>
<path d="M51.4629 47.6288C51.4045 47.7657 51.3382 47.8895 51.2693 48C51.33 47.877 51.3945 47.7533 51.4629 47.6288C52.3124 45.635 51.4731 40.8485 32.0014 33.7242C11.192 26.1104 23.5449 12.2167 34.2494 5.34315C38.7452 2.43512 51.5905 -3.78938 65.7204 3.18989C79.8503 10.1692 81.456 21.6955 80.4926 26.5863C72.3891 30.6149 55.4495 40.3674 51.4629 47.6288Z" fill="#D1885F"/>
<path d="M29.7193 26.5C25.7193 25.3 23.0526 20.6667 22.2193 18.5C21.5526 19.3333 20.6193 22.1 22.2193 26.5C23.8193 30.9 37.2193 36.3333 43.7193 38.5C38.5193 35.7 37.8859 33 38.2193 32C40.8859 31.5 46.2193 29.7 46.2193 26.5C46.2193 23.3 44.5526 21.5 43.7193 21C40.8859 19.5 34.9193 17.4 33.7193 21C32.5193 24.6 38.2193 26.1667 41.2193 26.5C39.0526 27 33.7193 27.7 29.7193 26.5Z" fill="#C0674B"/>
<path d="M72.2965 26C76.3153 24.8 78.9944 20.1667 79.8317 18C80.5015 18.8333 81.4392 21.6 79.8317 26C78.2242 30.4 64.7614 35.8333 58.231 38C63.4553 35.2 64.0916 32.5 63.7567 31.5C61.0776 31 55.7193 29.2 55.7193 26C55.7193 22.8 57.3937 21 58.231 20.5C61.0776 19 67.0722 16.9 68.2778 20.5C69.4834 24.1 63.7567 25.6667 60.7427 26C62.9195 26.5 68.2778 27.2 72.2965 26Z" fill="#C0674B"/>
<path d="M51.7192 46.5C50.1193 38.9 50.0526 27 50.7192 22C52.3193 25.6 52.7193 39.8334 53.2193 46.5L51.7192 46.5Z" fill="#C0674B"/>
<path d="M49.7249 2.22564C38.091 3.54798 30.8737 9.75564 28.7193 12.6942C31.4123 17.102 35.1825 17.1019 40.5686 12.6942C45.9546 8.28643 46.4932 8.28637 49.7249 8.28637C52.3102 8.28637 61.5742 11.2249 65.883 12.6942C71.4845 10.0495 71.0896 8.65371 70.1919 8.28637C68.217 5.71515 61.3587 0.903302 49.7249 2.22564Z" fill="#E3C097"/>
<path d="M52.408 47.4007C52.408 47.4164 52.4081 47.4325 52.4081 47.449M52.4081 47.449C52.4096 47.8072 52.4274 48.3545 52.4722 48.9281M52.4081 47.449C52.409 47.3132 52.4153 47.2287 52.4264 47.1884M52.4081 47.449C52.4081 47.4597 52.408 47.4708 52.408 47.4821C52.408 48.0582 52.4267 48.588 52.4732 49.105M52.4722 48.9281C52.513 49.4508 52.5762 49.9953 52.6698 50.4384M52.4722 48.9281C52.4666 48.186 52.4433 47.5585 52.4264 47.1884M52.4722 48.9281C52.4726 48.9864 52.473 49.0454 52.4732 49.105M52.6698 50.4384C52.7071 50.6149 52.7492 50.7754 52.7967 50.912M52.6698 50.4384C52.6684 50.4449 52.6669 50.4514 52.6655 50.4579M52.6698 50.4384C52.7021 50.2928 52.7338 50.1526 52.764 50.0213M52.7967 50.912C52.8035 50.9316 52.8104 50.9506 52.8174 50.9692M52.7967 50.912C52.8002 50.9604 52.8041 51.0102 52.8083 51.061M52.7967 50.912C52.7825 50.7176 52.7742 50.5447 52.7742 50.4115C52.7742 50.292 52.7706 50.1607 52.764 50.0213M52.8174 50.9692C52.8298 51.0019 52.8425 51.0331 52.8556 51.0625C53.0268 51.4478 53.0955 51.7899 53.1228 52.1495M52.8174 50.9692C52.8552 50.5597 52.8572 50.1404 52.8342 49.7211M52.8174 50.9692C52.8146 50.9999 52.8115 51.0305 52.8083 51.061M53.1228 52.1495C53.1438 52.4255 53.1404 52.7117 53.1404 53.0357C53.1404 53.1181 53.1372 53.1699 53.1314 53.1955M53.1228 52.1495C53.0525 51.9639 52.9892 51.778 52.9369 51.5914C52.8926 51.4328 52.8515 51.2775 52.8137 51.1246M53.1228 52.1495C53.1691 52.2718 53.2185 52.3941 53.2697 52.5163M53.1314 53.1955C53.1185 53.2528 53.0927 53.179 53.0605 53.0216M53.1314 53.1955C53.5401 54.201 53.9258 55.1966 54.422 56.1889C54.5364 56.4177 54.7144 56.7418 54.9122 57.0885M53.1314 53.1955C53.1079 53.1376 53.0842 53.0796 53.0605 53.0216M53.0605 53.0216C52.9842 52.6482 52.8725 51.8044 52.8137 51.1246M53.0605 53.0216C52.9932 52.8571 52.9251 52.6923 52.8556 52.5272C52.7658 52.314 52.6929 52.1308 52.634 51.9954M52.8137 51.1246C52.8118 51.1032 52.81 51.082 52.8083 51.061M52.8137 51.1246C52.8108 51.1131 52.808 51.1015 52.8052 51.09M52.8083 51.061C52.8073 51.0707 52.8062 51.0804 52.8052 51.09M52.764 50.0213C52.72 49.0837 52.5445 47.7756 52.4574 47.1671M52.764 50.0213C52.7885 49.9148 52.812 49.8141 52.8342 49.7211M52.4574 47.1671C52.4571 47.1647 52.4567 47.1623 52.4564 47.1599M52.4574 47.1671C52.4681 47.2191 52.4792 47.2705 52.4894 47.3194C52.6463 48.0689 52.7888 48.8948 52.8342 49.7211M52.4574 47.1671C52.5413 47.2617 52.723 48.2221 52.9378 49.3035M52.4574 47.1671C52.4572 47.1669 52.4576 47.1673 52.4574 47.1671ZM52.4574 47.1671C52.4448 47.1534 52.4344 47.1596 52.4264 47.1884M52.4564 47.1599C52.427 46.9548 52.408 46.8311 52.408 46.8311C52.408 46.8311 52.4108 46.8756 52.4151 46.9579M52.4564 47.1599C52.4429 47.0941 52.4291 47.0263 52.4151 46.9579M52.4151 46.9579C52.4182 47.0164 52.4221 47.094 52.4264 47.1884M52.4151 46.9579C52.2428 46.1165 52.0419 45.1815 52.0419 46.6684C52.0419 48.8785 51.4911 55.1486 51.9537 54.0714M52.4732 49.105C52.4761 49.9576 52.4543 50.9404 52.3735 51.851M52.4732 49.105C52.5139 49.5583 52.576 50.0018 52.6655 50.4579M52.3735 51.851C52.3314 52.325 52.2733 52.7795 52.1945 53.1857M52.3735 51.851C52.2291 52.5893 52.1337 53.1864 52.1945 53.1857M52.3735 51.851C52.4608 51.4046 52.566 50.9067 52.6655 50.4579M52.1945 53.1857C52.1556 53.3859 52.1117 53.5744 52.0622 53.7477C52.0279 53.8678 51.9972 53.9619 51.9697 54.0322M52.1945 53.1857C52.2241 53.1854 52.2907 53.0434 52.4068 52.7068M51.9697 54.0322C51.9643 54.0462 51.9589 54.0592 51.9537 54.0714M51.9697 54.0322C51.9708 54.012 51.9718 53.9918 51.9728 53.9717M51.9697 54.0322C51.9355 54.6948 51.8906 55.433 51.8384 55.6193C51.7066 56.0902 51.4826 56.5945 51.2587 57.1028M51.9537 54.0714C51.7874 54.8966 51.4347 55.6962 51.3299 56.5347C51.3196 56.6168 51.2894 56.8411 51.2587 57.1028M51.9537 54.0714C51.9604 54.0382 51.9668 54.005 51.9728 53.9717M52.8342 49.7211C52.8741 49.5534 52.9095 49.4106 52.9378 49.3035M52.8052 51.09C52.771 51.3995 52.7155 51.7028 52.634 51.9954M52.8052 51.09C52.7525 50.8753 52.7062 50.6653 52.6655 50.4579M52.634 51.9954C52.6204 52.0441 52.6061 52.0925 52.5911 52.1406C52.5193 52.3706 52.4582 52.5577 52.4068 52.7068M52.634 51.9954C52.459 51.5932 52.408 51.6136 52.408 52.5272C52.408 52.5871 52.4076 52.647 52.4068 52.7068M52.4068 52.7068C52.3849 54.2964 52.074 55.8123 51.5967 57.318M52.9378 49.3035C52.9448 49.2774 52.9512 49.2533 52.9573 49.2316C53.0997 48.7191 53.1376 47.5549 53.1448 46.8791M52.9378 49.3035C53.1422 50.332 53.3771 51.4705 53.5879 52.0796C53.5943 52.0979 53.6005 52.116 53.6067 52.134M53.1448 46.8791C53.1498 46.415 53.1404 46.1811 53.1404 46.5463C53.1404 46.6576 53.1419 46.7685 53.1448 46.8791ZM53.1448 46.8791C53.1831 48.3347 53.456 49.7295 53.5065 51.1438C53.5189 51.4902 53.5567 51.8267 53.6067 52.134M53.6067 52.134C53.858 53.6788 54.4175 54.4886 53.6067 52.134ZM53.2697 52.5163C53.3207 52.638 53.3736 52.7596 53.427 52.8813M53.2697 52.5163C53.464 53.4881 53.8494 54.3814 54.2319 55.2921M53.2697 52.5163C53.1883 52.1089 53.1404 51.6876 53.1404 51.2455C53.1404 50.5306 53.2946 52.0818 53.427 52.8813M53.427 52.8813C53.7503 53.6169 54.0975 54.3536 54.2098 55.1114M53.427 52.8813C53.4551 53.0507 53.4821 53.1863 53.5065 53.2595C53.7108 53.8722 53.9487 54.4944 54.2098 55.1114M54.2098 55.1114C54.2187 55.1715 54.2261 55.2317 54.2319 55.2921M54.2098 55.1114C54.6002 56.0343 55.0422 56.9455 55.5002 57.796C56.5421 59.731 56.0156 58.9537 55.363 57.8605M54.2319 55.2921C54.2346 55.3198 54.2369 55.3475 54.2389 55.3752C54.276 55.8948 54.5212 56.2886 54.7771 56.6774M54.2319 55.2921C54.4224 55.7456 54.6121 56.2034 54.7771 56.6774M54.7771 56.6774C55.0134 57.0363 55.2587 57.391 55.3578 57.8367C55.3595 57.8447 55.3613 57.8526 55.363 57.8605M54.7771 56.6774C54.8244 56.813 54.8696 56.95 54.9122 57.0885M55.363 57.8605C55.6736 59.2689 55.177 58.0076 54.9712 57.2874C54.9522 57.2207 54.9325 57.1544 54.9122 57.0885M55.363 57.8605C55.2136 57.6101 55.0575 57.3432 54.9122 57.0885M51.5967 57.318C51.5312 57.525 51.4624 57.7317 51.3909 57.9384C51.2244 58.4194 51.175 58.3413 51.1782 58.0544M51.5967 57.318C51.4636 57.582 51.3238 57.8307 51.1782 58.0544M51.5967 57.318C52.0941 56.3318 52.4975 55.1333 52.7539 54.236C52.9452 53.5661 52.886 55.3743 52.7429 56.2898M51.1782 58.0544C51.1809 57.8148 51.2202 57.4296 51.2587 57.1028M51.1782 58.0544C51.1015 58.1724 51.0231 58.2833 50.9433 58.3859C50.7922 58.5803 50.6827 58.7671 50.6051 58.9328M51.2587 57.1028C50.9845 57.725 50.7103 58.353 50.6051 58.9328M51.9728 53.9717C52.0155 53.7371 52.0419 53.5002 52.0419 53.2595C52.0419 52.4273 52.0164 53.1199 51.9728 53.9717ZM50.6051 58.9328C50.5937 58.9952 50.5844 59.0571 50.5772 59.1183C50.4847 59.9042 50.3031 59.5778 50.6051 58.9328ZM52.7429 56.2898C52.7345 56.3436 52.7258 56.3944 52.7168 56.4414M52.7429 56.2898C52.7562 56.3196 52.7698 56.3499 52.7837 56.3805M52.7429 56.2898C52.5876 55.9412 52.4707 55.6446 52.408 55.4565M52.7168 56.4414C52.709 56.4823 52.701 56.5203 52.6928 56.5551C52.6551 56.7154 52.546 56.9641 52.4193 57.2197M52.7168 56.4414C52.6219 56.5315 52.54 56.6267 52.4894 56.7178C52.0172 57.5677 51.9535 57.649 52.1861 57.5206M52.7168 56.4414C52.7385 56.4208 52.7609 56.4005 52.7837 56.3805M52.4193 57.2197C52.3896 57.2795 52.359 57.3396 52.3282 57.3991M52.4193 57.2197C52.5934 56.9982 52.7643 56.7884 52.8997 56.631M52.4193 57.2197C52.3412 57.3189 52.2626 57.4204 52.1861 57.5206M52.3282 57.3991C52.3179 57.4188 52.3077 57.4384 52.2975 57.4578M52.3282 57.3991C52.3108 57.4221 52.2935 57.4457 52.2764 57.4697M52.3282 57.3991C52.5404 57.1172 52.7648 56.9118 52.967 56.7716M52.2975 57.4578C52.0735 57.8839 51.8472 58.257 51.8791 58.1825C51.9973 57.9067 52.1334 57.6703 52.2764 57.4697M52.2975 57.4578C52.3867 57.4076 52.499 57.3464 52.6318 57.2874C52.8191 57.2042 52.9764 57.1258 53.107 57.0534M52.2975 57.4578C52.2903 57.4619 52.2833 57.4658 52.2764 57.4697M52.2764 57.4697C52.2426 57.4889 52.2124 57.5061 52.1861 57.5206M52.967 56.7716C53.6127 56.3237 54.0324 56.54 53.107 57.0534M52.967 56.7716C53.0119 56.8642 53.0586 56.9584 53.107 57.0534M52.967 56.7716C52.9441 56.7242 52.9216 56.6773 52.8997 56.631M53.107 57.0534C53.3558 57.5424 53.6474 58.0527 53.9513 58.4756M52.1861 57.5206C51.7256 58.1242 51.3454 58.6795 51.6757 58.3859C51.903 58.1839 52.2311 58.0232 52.5247 57.9154M52.7837 56.3805C53.2122 56.0062 53.8041 55.7653 53.12 56.3923C53.0709 56.4373 52.9939 56.5214 52.8997 56.631M52.7837 56.3805C52.8205 56.4618 52.8592 56.5455 52.8997 56.631M52.5247 57.9154C52.5825 57.8941 52.6389 57.875 52.693 57.8579M52.5247 57.9154C52.4381 57.9944 52.3381 58.0897 52.2249 58.2028C52.2214 58.2064 52.2179 58.2099 52.2143 58.2134M52.5247 57.9154C52.9991 57.4828 53.0722 57.5404 52.693 57.8579M52.693 57.8579C53.249 57.6825 53.5548 57.7323 52.4894 58.1011C52.3962 58.1334 52.3102 58.1686 52.2316 58.2053M52.693 57.8579C52.5799 57.9526 52.4265 58.0704 52.2316 58.2053M52.2316 58.2053C52.2258 58.208 52.2201 58.2107 52.2143 58.2134M52.2316 58.2053C52.2219 58.212 52.212 58.2188 52.202 58.2257M52.2143 58.2134C51.9598 58.3344 51.7854 58.4687 51.7012 58.5573M52.2143 58.2134C52.2102 58.2175 52.2061 58.2216 52.202 58.2257M51.7012 58.5573C51.5471 58.7194 51.6941 58.729 52.202 58.2257M51.7012 58.5573C51.7769 58.5056 51.8631 58.4485 51.9605 58.3859C52.0469 58.3304 52.1274 58.2769 52.202 58.2257M51.7012 58.5573C50.8037 59.1708 51.3723 59.0427 52.2249 58.569C53.3501 57.9439 52.7073 58.5574 52.0015 59.0579M52.0015 59.0579C51.9852 59.0695 51.9688 59.0811 51.9524 59.0925M52.0015 59.0579C52.133 59.017 52.2644 58.9766 52.3914 58.9382M52.0015 59.0579C50.9026 59.4001 49.8037 59.7783 51.3299 59.3014C51.5304 59.2387 51.7389 59.1672 51.9524 59.0925M51.9524 59.0925C51.7207 59.2544 51.4864 59.4009 51.3095 59.4844C48.7869 60.6757 51.7299 59.4483 52.909 58.9351M51.9524 59.0925C52.0967 59.042 52.2433 58.99 52.3914 58.9382M52.909 58.9351C52.9969 58.8968 53.0751 58.8625 53.1404 58.8335C53.1905 58.8112 53.2334 58.7915 53.2695 58.7742M52.909 58.9351C52.8363 59.0264 52.9327 59.1183 53.3438 59.1183C53.4695 59.1183 53.9065 59.0604 54.282 58.99M52.909 58.9351C52.9608 58.87 53.0985 58.8052 53.2695 58.7742M53.2695 58.7742C53.2994 58.7598 53.3247 58.7472 53.3455 58.7361M53.2695 58.7742C53.4539 58.7407 53.677 58.7465 53.8727 58.8335C53.9246 58.8565 54.0869 58.9164 54.282 58.99M53.3455 58.7361C53.4949 58.6566 53.418 58.6579 53.2136 58.7065M53.3455 58.7361C53.4908 58.7613 53.7051 58.735 53.9198 58.6874M53.3455 58.7361C53.338 58.7348 53.3306 58.7333 53.3235 58.7317C53.2827 58.7227 53.2461 58.7143 53.2136 58.7065M53.2136 58.7065C53.0234 58.7518 52.7227 58.838 52.3914 58.9382M53.2136 58.7065C53.1865 58.7 53.1621 58.694 53.1405 58.6883M52.3914 58.9382C52.6383 58.8518 52.8893 58.7659 53.1405 58.6883M53.1405 58.6883C53.2005 58.6698 53.2606 58.6517 53.3206 58.6342M53.1405 58.6883C52.8643 58.6166 53.0215 58.6129 53.3206 58.6342M53.3206 58.6342C53.5322 58.5726 53.7432 58.5181 53.9513 58.4756M53.3206 58.6342C53.4921 58.6464 53.7101 58.6669 53.9198 58.6874M53.9513 58.4756C54.1735 58.4302 54.3924 58.3984 54.6051 58.3859C54.8472 58.3717 54.4961 58.5368 54.0799 58.6482M53.9513 58.4756C53.9939 58.535 54.0368 58.5926 54.0799 58.6482M54.0799 58.6482C54.0272 58.6623 53.9735 58.6755 53.9198 58.6874M54.0799 58.6482C54.0955 58.6683 54.1111 58.6882 54.1267 58.7078M53.9198 58.6874C53.9905 58.6943 54.0601 58.7012 54.1267 58.7078M54.1267 58.7078C54.3408 58.7291 54.5235 58.7473 54.6051 58.7521C55.1306 58.783 54.8115 58.8863 54.3584 58.9754M54.1267 58.7078C54.2037 58.8044 54.2811 58.8941 54.3584 58.9754M54.3584 58.9754C54.3334 58.9803 54.3078 58.9852 54.282 58.99M54.3584 58.9754C54.3812 58.9993 54.404 59.0226 54.4268 59.045M54.282 58.99C54.3288 59.0077 54.3774 59.0261 54.4268 59.045M54.4268 59.045C54.8925 59.2232 55.4313 59.4438 55.1543 59.4438C54.9249 59.4438 54.677 59.2915 54.4268 59.045ZM53.8727 57.2874C52.5954 57.447 55.349 61.8906 53.9541 58.752C52.97 56.5378 54.3207 59.0154 55.0523 60.0556M55.0523 60.0556C55.0879 60.1062 55.122 60.1533 55.1543 60.1964C55.1833 60.235 55.2087 60.2713 55.2308 60.3053M55.0523 60.0556C56.0198 59.9052 56.8554 59.8411 55.256 60.2981C55.2477 60.3005 55.2393 60.3029 55.2308 60.3053M55.0523 60.0556C54.7717 60.0992 54.4799 60.1501 54.2332 60.1977M55.2308 60.3053C55.2563 60.3446 55.2773 60.3808 55.2941 60.4142M55.2308 60.3053C55.1612 60.3252 55.0895 60.3457 55.016 60.3666M55.2941 60.4142C55.3013 60.4285 55.3078 60.4423 55.3134 60.4555M55.2941 60.4142C55.2023 60.3951 55.1095 60.3796 55.016 60.3666M55.2941 60.4142C55.4052 60.4373 55.5148 60.4657 55.6222 60.5015C55.7992 60.5605 55.6321 60.5285 55.3134 60.4555M55.3134 60.4555C55.3376 60.5119 55.3481 60.559 55.3468 60.5977M55.3134 60.4555C55.2145 60.4329 55.101 60.4063 54.9786 60.3773M55.3468 60.5977C55.3395 60.8067 54.986 60.7738 54.547 60.6503M55.3468 60.5977C55.0815 60.6095 54.8146 60.6277 54.547 60.6503M55.3468 60.5977C55.5618 60.5882 55.7759 60.5829 55.9884 60.5829C58.1498 60.5829 56.7306 61.3153 55.3374 61.3153M54.547 60.6503C54.4612 60.6262 54.3721 60.5986 54.2817 60.5686M54.547 60.6503C54.1937 60.6802 53.8392 60.7179 53.4855 60.7587M54.2817 60.5686C54.1072 60.5108 53.9278 60.4444 53.7575 60.3773M54.2817 60.5686C54.0235 60.6362 53.7554 60.7016 53.4855 60.7587M54.2817 60.5686C54.3771 60.5437 54.4712 60.5184 54.5635 60.4932M53.7575 60.3773C53.7123 60.3595 53.6678 60.3417 53.6243 60.324M53.7575 60.3773C53.686 60.3661 53.6147 60.3541 53.5444 60.3412M53.7575 60.3773C54.0387 60.4215 54.3231 60.4545 54.5635 60.4932M53.6243 60.324C53.0421 60.0877 52.6199 59.8711 52.9776 60.0336C53.2684 60.1658 53.5854 60.226 53.9121 60.2628M53.6243 60.324C53.7353 60.3002 53.8329 60.2795 53.9121 60.2628M53.6243 60.324C53.5984 60.3296 53.5717 60.3353 53.5444 60.3412M53.9121 60.2628C54.2193 60.2975 54.5352 60.3116 54.8462 60.3457M53.9121 60.2628C53.9605 60.2527 54.002 60.244 54.0355 60.2371C54.0969 60.2244 54.1633 60.2111 54.2332 60.1977M54.8462 60.3457C54.903 60.3519 54.9596 60.3588 55.016 60.3666M54.8462 60.3457C54.8913 60.3565 54.9355 60.367 54.9786 60.3773M54.8462 60.3457C54.6509 60.299 54.4398 60.2479 54.2332 60.1977M55.016 60.3666C55.0036 60.3702 54.9911 60.3737 54.9786 60.3773M54.9786 60.3773C54.8455 60.4151 54.7066 60.4541 54.5635 60.4932M54.2332 60.1977C53.7675 60.0843 53.3249 59.9754 53.1404 59.9319C52.9857 59.8955 52.7794 59.9057 52.5573 59.9467M52.5573 59.9467C51.9966 60.0502 51.3353 60.3506 51.1515 60.5955M52.5573 59.9467C52.5303 59.9167 52.5075 59.8847 52.4894 59.8506C52.2743 59.4444 52.6383 58.01 52.0215 58.9351C51.9402 59.0572 51.8418 59.1809 51.7305 59.3046M52.5573 59.9467C52.7425 60.152 53.1261 60.2642 53.5444 60.3412M51.1515 60.5955C51.064 60.7121 51.0846 60.8161 51.2757 60.8803M51.1515 60.5955C51.3071 60.5916 51.4314 60.5938 51.4926 60.6033C51.6603 60.6291 51.8255 60.6598 51.9889 60.6937M51.1515 60.5955C50.8123 60.604 50.3242 60.6417 50.0151 60.6976M51.2757 60.8803C51.2851 60.8834 51.295 60.8865 51.3052 60.8895M51.2757 60.8803C51.4562 60.8266 51.7084 60.7617 51.9889 60.6937M51.2757 60.8803C51.2631 60.884 51.2509 60.8877 51.239 60.8914M51.3052 60.8895C51.3614 60.9057 51.4302 60.919 51.5129 60.9287C51.5706 60.9355 51.6296 60.9407 51.6896 60.9444M51.3052 60.8895C51.5055 60.8849 51.7093 60.8893 51.9125 60.8975M51.3052 60.8895C51.2831 60.89 51.261 60.8906 51.239 60.8914M51.6896 60.9444C51.7511 60.9482 51.8138 60.9505 51.8775 60.9512M51.6896 60.9444C51.7677 60.9271 51.8421 60.9114 51.9125 60.8975M51.6896 60.9444C51.62 60.9599 51.5475 60.9766 51.4724 60.9947M51.8775 60.9512C52.0616 60.9535 52.2542 60.9437 52.4519 60.9245M51.8775 60.9512C51.8237 60.9574 51.77 60.9635 51.7164 60.9694C51.6256 60.9795 51.5445 60.9879 51.4724 60.9947M51.8775 60.9512C51.9893 60.9384 52.1016 60.9252 52.2142 60.9118M52.4519 60.9245C52.5139 60.9185 52.5765 60.9115 52.6394 60.9037M52.4519 60.9245C52.5007 60.9271 52.5492 60.9296 52.5975 60.932M52.4519 60.9245C52.3732 60.9203 52.2939 60.9159 52.2142 60.9118M52.6394 60.9037C52.6909 60.8973 52.7427 60.8904 52.7947 60.8829M52.6394 60.9037C52.6279 60.9125 52.6139 60.9219 52.5975 60.932M52.6394 60.9037C52.6646 60.8845 52.6783 60.8683 52.6811 60.8551M52.7947 60.8829C53.0229 60.8502 53.2548 60.8075 53.4855 60.7587M52.7947 60.8829C52.8809 60.9046 52.9669 60.9265 53.0528 60.9483M52.7947 60.8829C52.7575 60.8735 52.7203 60.8642 52.683 60.8549M53.4855 60.7587C53.2172 60.7896 52.9494 60.8223 52.683 60.8549M54.5635 60.4932C54.7236 60.519 54.8642 60.5472 54.9712 60.5829M53.5444 60.3412C53.1077 60.4353 52.5011 60.5695 51.9889 60.6937M51.9889 60.6937C52.1646 60.7302 52.3381 60.7704 52.5104 60.8123M51.239 60.8914C50.8966 60.9961 50.8567 61.0529 51.4724 60.9947M51.239 60.8914C50.9639 60.9006 50.6963 60.9282 50.4469 60.9882M51.4724 60.9947C51.4063 61.0106 51.3383 61.0275 51.2684 61.0454M52.2142 60.9118C52.3692 60.8932 52.5249 60.8742 52.6811 60.8551M52.2142 60.9118C52.1141 60.9065 52.0134 60.9015 51.9125 60.8975M52.6811 60.8551C52.6818 60.855 52.6824 60.855 52.683 60.8549M52.6811 60.8551C52.6243 60.8409 52.5675 60.8262 52.5104 60.8123M52.6811 60.8551C52.6812 60.8549 52.6811 60.8553 52.6811 60.8551ZM52.6811 60.8551C52.6874 60.8225 52.6265 60.808 52.5104 60.8123M55.3374 61.3153C54.5993 61.3153 53.9179 61.1646 53.2366 60.9945M55.3374 61.3153C55.3557 61.3153 55.3757 61.3167 55.3971 61.3194M53.2366 60.9945C53.1753 60.9792 53.1141 60.9638 53.0528 60.9483M53.2366 60.9945C52.9575 61.0085 52.6761 61.0231 52.3948 61.0338M53.2366 60.9945C53.7034 60.9711 54.1635 60.9491 54.6051 60.9491H53.1607C53.1251 60.9491 53.0891 60.9488 53.0528 60.9483M53.0528 60.9483C52.9056 60.9461 52.7532 60.9398 52.5975 60.932M52.5104 60.8123C52.3774 60.8172 52.1721 60.8459 51.9125 60.8975M50.0151 60.6976C49.7777 60.7406 49.6459 60.7945 49.7682 60.8542M50.0151 60.6976C49.9315 60.752 49.849 60.8042 49.7682 60.8542M50.0151 60.6976C50.1612 60.6027 50.3105 60.5015 50.4593 60.3957M49.7682 60.8542C49.8174 60.8782 49.9075 60.9032 50.0482 60.9287C50.1793 60.9526 50.3123 60.9722 50.4469 60.9882M49.7682 60.8542C49.6011 60.9576 49.4414 61.0511 49.2956 61.1322C48.7168 61.4537 49.205 61.0414 49.6661 60.6658M50.4469 60.9882C50.7153 61.0202 50.99 61.0377 51.2684 61.0454M50.4469 60.9882C50.3946 61.0008 50.343 61.0149 50.2924 61.0305C49.8987 61.1516 49.7345 61.2488 49.7192 61.3228M51.2684 61.0454C51.6394 61.0556 52.0169 61.0481 52.3948 61.0338M51.2684 61.0454C51.164 61.0721 51.0554 61.101 50.9433 61.1322C50.6241 61.2209 50.1766 61.2658 49.7192 61.3228M52.3948 61.0338C52.1871 61.1254 51.8597 61.2459 51.3909 61.3966C50.8918 61.557 49.675 61.5381 49.7192 61.3228M52.3948 61.0338C52.4837 60.9946 52.5507 60.9607 52.5975 60.932M49.7192 61.3228C49.097 61.4004 48.4564 61.5002 48.0953 61.7628C47.5546 62.156 44.711 62.8239 45.6338 62.4138C47.0383 61.7896 48.2503 61.1171 49.6661 60.6658M49.6661 60.6658C49.7786 60.6299 49.8923 60.5955 50.0076 60.5626C50.1665 60.5171 50.3175 60.4603 50.4593 60.3957M49.6661 60.6658C49.9074 60.4693 50.1413 60.2828 50.211 60.2167C51.4004 59.0899 51.8253 59.0196 51.7305 59.3046M50.4593 60.3957C51.17 60.0718 51.6478 59.5531 51.7305 59.3046M50.4593 60.3957C50.927 60.0629 51.3895 59.6836 51.7305 59.3046M55.3971 61.3194C55.7688 61.3651 56.5736 61.7817 56.2732 61.6815C55.9914 61.5876 55.6917 61.4652 55.3971 61.3194ZM55.3971 61.3194C54.8981 61.0723 54.4138 60.7579 54.0558 60.3999C53.2327 59.5768 55.0657 60.5248 56.0742 61.1267M56.0742 61.1267C56.3241 61.2758 56.5233 61.4036 56.619 61.4781C58.3196 62.8007 56.8737 61.7883 56.0742 61.1267ZM56.0742 61.1267C55.9979 61.0635 55.9275 61.0036 55.8663 60.9492C55.1904 60.3484 57.9109 61.6053 58.633 61.9663C59.9689 62.6343 56.5656 60.6268 55.0055 59.4563M55.0055 59.4563C54.8879 59.368 54.7807 59.2845 54.6869 59.2073M55.0055 59.4563C54.5001 58.2462 53.7369 56.3631 53.8727 57.6536C53.8964 57.8784 54.2837 58.5579 54.6869 59.2073M55.0055 59.4563C55.0799 59.6344 55.1487 59.798 55.2083 59.9347M54.6869 59.2073C54.659 59.1844 54.6323 59.162 54.6068 59.1402M54.6869 59.2073C54.7141 59.251 54.7413 59.2947 54.7685 59.338M54.6068 59.1402C54.6063 59.1397 54.6057 59.1391 54.6051 59.1386C54.274 58.8548 53.54 58.5211 53.5065 58.0198C53.4965 57.8685 54.1134 58.5443 54.6068 59.1402ZM54.6068 59.1402C54.6627 59.2076 54.7169 59.2739 54.7685 59.338M54.7685 59.338C54.9398 59.5507 55.0817 59.7376 55.1543 59.8506C55.1729 59.8796 55.1909 59.9076 55.2083 59.9347M54.7685 59.338C54.9733 59.6642 55.1761 59.9743 55.3315 60.205M55.2083 59.9347C55.7837 60.8328 55.6694 60.7064 55.3315 60.205M55.2083 59.9347C55.256 60.0441 55.2977 60.1363 55.3315 60.205M55.3315 60.205C55.3335 60.209 55.3355 60.213 55.3374 60.2168M52.0419 59.8505C51.3393 59.8505 49.1687 61.3655 49.1938 61.3152C49.5603 60.5824 50.2732 59.754 50.5182 59.4815M50.5182 59.4815C50.6213 59.3668 50.6416 59.3507 50.5182 59.4815ZM50.5182 59.4815C50.3801 59.628 50.062 59.9589 49.4786 60.5422C47.9446 62.0762 47.511 61.8589 49.1125 60.2574C50.8325 58.5374 52.1195 57.3205 52.408 54.7241M72.9137 47.0346C72.8851 47.0314 72.8571 47.0259 72.8297 47.0185M72.8297 47.0185C72.6505 46.9697 72.4961 46.8354 72.348 46.695M72.8297 47.0185C72.7923 47.0699 72.7525 47.1227 72.7103 47.177C72.4515 47.5096 71.7822 47.4735 71.3969 47.2467M72.8297 47.0185C72.9683 46.8281 73.0746 46.6572 73.1529 46.5047M72.348 46.695C72.0858 46.4463 71.8437 46.1785 71.5195 46.3321M72.348 46.695C72.2114 46.6811 72.0621 46.6466 71.8966 46.587C71.7333 46.5282 71.6095 46.4408 71.5195 46.3321M72.348 46.695C72.674 46.7281 72.9272 46.6441 73.1529 46.5047M71.5195 46.3321C71.4463 46.3668 71.369 46.423 71.2863 46.5057C71.2713 46.5206 71.2574 46.5354 71.2446 46.5502M71.5195 46.3321C71.4755 46.279 71.4396 46.2209 71.411 46.1586M71.2446 46.5502C71.1863 46.6171 71.1489 46.6823 71.1293 46.7448M71.2446 46.5502C71.27 46.4099 71.3288 46.2785 71.411 46.1586M71.2446 46.5502C71.2057 46.7649 71.2448 47.0004 71.3969 47.2467M71.1293 46.7448C71.0787 46.906 71.1464 47.0502 71.2791 47.1636M71.1293 46.7448C71.0564 46.3708 71.1456 46.0167 71.3225 45.7208M71.1293 46.7448C71.1561 46.8823 71.2048 47.0225 71.2791 47.1636M71.2791 47.1636C71.3142 47.1935 71.3538 47.2213 71.3969 47.2467M71.2791 47.1636C71.2815 47.168 71.2839 47.1725 71.2863 47.177C71.3224 47.2442 71.3594 47.3056 71.3971 47.3616M71.3969 47.2467C71.4339 47.3066 71.4776 47.3672 71.5285 47.4283M73.1529 46.5047C73.1568 46.4972 73.1606 46.4897 73.1643 46.4823M73.1529 46.5047C73.1552 46.5033 73.1575 46.5019 73.1599 46.5004M73.1643 46.4823C73.3605 46.0909 73.3693 45.8226 73.2654 45.6566M73.1643 46.4823C73.1628 46.4883 73.1613 46.4944 73.1599 46.5004M73.1643 46.4823C73.2416 46.1635 73.2766 45.8584 73.2654 45.6566M73.2654 45.6566C72.9811 45.2027 71.8543 45.5127 71.411 46.1586M73.2654 45.6566C73.264 45.633 73.2621 45.6108 73.2595 45.5902C73.1211 44.4832 71.8428 44.8504 71.3225 45.7208M71.411 46.1586C71.3513 46.0283 71.3239 45.8797 71.3225 45.7208M71.5285 47.4283C71.5659 47.4731 71.6071 47.5182 71.6524 47.5635C71.6672 47.5782 71.6818 47.5923 71.6964 47.6058M71.5285 47.4283C71.4837 47.4074 71.4399 47.3852 71.3971 47.3616M71.5285 47.4283C71.8528 47.5792 72.2253 47.6577 72.5991 47.6573M71.6964 47.6058C71.8604 47.7575 72.0132 47.8296 72.154 47.8407M71.6964 47.6058C71.6267 47.574 71.5625 47.5398 71.5035 47.5036M71.6964 47.6058C71.7587 47.6343 71.8253 47.6609 71.8966 47.6855C72.0677 47.7448 72.2321 47.7805 72.3895 47.7954M72.154 47.8407C72.2405 47.8475 72.3224 47.8313 72.3997 47.7963M72.154 47.8407C71.9331 47.8473 71.7102 47.7491 71.5035 47.5036M72.154 47.8407C72.233 47.8383 72.3118 47.8226 72.3895 47.7954M72.3997 47.7963C72.4136 47.79 72.4274 47.7831 72.441 47.7756M72.3997 47.7963C72.3963 47.796 72.3929 47.7957 72.3895 47.7954M72.3997 47.7963C72.855 47.8368 73.2513 47.7026 73.5808 47.4579M72.441 47.7756C72.4963 47.7452 72.549 47.7052 72.5991 47.6573M72.441 47.7756C72.4239 47.7828 72.4067 47.7894 72.3895 47.7954M72.441 47.7756C72.5139 47.7452 72.5857 47.705 72.6557 47.6566M72.5991 47.6573C72.8603 47.4075 73.0506 46.9425 73.1599 46.5004M72.5991 47.6573C72.618 47.6572 72.6368 47.657 72.6557 47.6566M73.1599 46.5004C73.3118 46.4056 73.4515 46.2858 73.5929 46.1601M71.3225 45.7208C71.3219 45.6506 71.3264 45.5784 71.3354 45.5049M71.3971 47.3616C71.432 47.4135 71.4675 47.4608 71.5035 47.5036M71.3971 47.3616C71.3193 47.3188 71.245 47.2714 71.1749 47.2197M71.5035 47.5036C71.3666 47.4194 71.2581 47.3239 71.1749 47.2197M72.6557 47.6566C73.1015 47.3482 73.4738 46.7077 73.5929 46.1601M72.6557 47.6566C72.9745 47.6494 73.2925 47.5845 73.5808 47.4579M73.5929 46.1601C73.6081 46.0904 73.6191 46.0222 73.6257 45.9564C73.6802 45.4115 73.412 44.6274 72.9887 44.1259M73.5929 46.1601C73.8285 45.9507 74.0688 45.7247 74.3784 45.5699M72.9887 44.1259C72.7992 43.9014 72.5787 43.7336 72.3422 43.6691M72.9887 44.1259C73.771 43.8123 74.5217 43.9575 74.7032 45.0285M72.9887 44.1259C72.3681 44.3746 71.7275 44.912 71.3354 45.5049M72.3422 43.6691C72.0081 43.578 71.6421 43.693 71.2863 44.1459C70.148 45.5945 70.419 46.6623 71.1749 47.2197M72.3422 43.6691C72.412 43.6131 72.4809 43.5679 72.5475 43.5356C74.0824 42.7901 74.739 43.8029 74.7032 45.0285M72.3422 43.6691C71.8967 44.0265 71.4195 44.8224 71.3354 45.5049M71.1749 47.2197C70.7991 46.7487 70.9426 46.099 71.3354 45.5049M73.5808 47.4579C74.2406 47.1682 74.7446 46.5551 74.7446 45.5699C74.7446 45.3679 74.7302 45.1879 74.7032 45.0285M73.5808 47.4579C74.2784 46.94 74.6769 45.927 74.7032 45.0285M81.7018 40.4435C81.7629 39.8937 81.8121 39.5202 81.8541 39.2823M81.8541 39.2823C81.9867 38.5311 82.0474 39.1341 82.1839 39.8161M81.8541 39.2823C81.4346 38.2831 81.9297 37.0752 83.1665 37.1479C83.3463 37.1585 83.4632 37.2923 83.5331 37.5018M81.8541 39.2823C81.9136 39.4241 81.9915 39.5617 82.0884 39.6908C82.1205 39.7337 82.1524 39.7754 82.1839 39.8161M82.1839 39.8161C82.3285 40.5385 82.5583 41.3496 83.0488 40.7334M82.1839 39.8161C82.5043 40.2293 82.7923 40.5285 83.0488 40.7334M83.0488 40.7334C83.0782 40.6965 83.1086 40.6544 83.1399 40.6069M83.0488 40.7334C83.387 41.0035 83.6707 41.1096 83.9025 41.0966M83.1399 40.6069C83.1487 40.5936 83.1576 40.5798 83.1665 40.5655C83.1952 40.5199 83.2279 40.4448 83.2623 40.347M83.1399 40.6069C82.3041 39.6068 81.874 37.2834 83.5331 37.5018M83.1399 40.6069C83.3558 40.8653 83.5988 41.0354 83.8399 41.0505M83.2623 40.347C83.2647 40.3401 83.2672 40.333 83.2697 40.3258M83.2623 40.347C83.255 40.3331 83.2479 40.3191 83.2409 40.305M83.2623 40.347C83.3397 40.4954 83.4304 40.6317 83.5327 40.7486C83.6482 40.8806 83.7502 40.9799 83.8399 41.0505M83.2697 40.3258C83.3927 39.9667 83.5349 39.3272 83.5929 38.7155M83.2697 40.3258C83.2599 40.3189 83.2503 40.312 83.2409 40.305M83.2697 40.3258C83.4961 40.4861 83.7962 40.624 84.1837 40.7283C84.2614 40.7492 84.3343 40.752 84.4022 40.7392M83.5929 38.7155C83.6182 38.4489 83.6275 38.1875 83.6122 37.9569M83.5929 38.7155C83.5411 38.4552 83.524 38.2349 83.553 38.104C83.569 38.0322 83.589 37.9842 83.6122 37.9569M83.5929 38.7155C83.7176 39.3422 84.0433 40.2006 84.4088 40.6013M83.6122 37.9569C83.6108 37.936 83.6092 37.9153 83.6074 37.8948M83.6122 37.9569C83.6853 37.8711 83.79 37.992 83.8997 38.23M83.6074 37.8948C83.6009 37.8208 83.5916 37.7503 83.5793 37.6843M83.6074 37.8948C83.7742 37.8368 83.9757 37.8236 84.2148 37.8685M83.6074 37.8948C82.8236 38.1676 82.8061 39.4307 83.2409 40.305M83.5793 37.6843C83.567 37.6187 83.5517 37.5576 83.5331 37.5018M83.5793 37.6843C83.6457 37.635 83.7135 37.5908 83.7815 37.5523M83.5793 37.6843C82.7996 38.2623 82.1931 39.5329 83.2409 40.305M83.5331 37.5018C83.5914 37.5095 83.6523 37.5203 83.7158 37.5344C83.7381 37.5394 83.76 37.5453 83.7815 37.5523M83.9025 41.0966C84.1053 41.0852 84.2684 40.9827 84.3936 40.819M83.9025 41.0966C83.8824 41.0829 83.8615 41.0675 83.8399 41.0505M83.9025 41.0966C84.2033 41.3011 84.3488 41.1475 84.3936 40.819M84.3936 40.819C84.416 40.7896 84.4373 40.7582 84.4574 40.7251M84.3936 40.819C84.3964 40.7979 84.3989 40.7761 84.401 40.7536M84.4574 40.7251C84.4668 40.7095 84.4759 40.6936 84.4847 40.6773M84.4574 40.7251C84.4432 40.7297 84.4288 40.7336 84.4141 40.7368M84.4574 40.7251C84.4766 40.7188 84.4955 40.7112 84.5138 40.7024M84.4847 40.6773C84.5166 40.6186 84.545 40.5551 84.5701 40.4876M84.4847 40.6773C84.4791 40.6722 84.4735 40.6669 84.4678 40.6616M84.4847 40.6773C84.4944 40.686 84.5041 40.6944 84.5138 40.7024M84.5701 40.4876C84.828 39.7918 84.7278 38.6672 84.3223 38.0197M84.5701 40.4876C84.5368 40.5515 84.5027 40.6094 84.4678 40.6616M84.5701 40.4876C84.7018 40.2343 84.8197 39.8865 84.916 39.4263C84.9701 39.1682 85.0041 38.9384 85.0207 38.7348M84.3223 38.0197C84.2886 37.9658 84.2527 37.9152 84.2148 37.8685M84.3223 38.0197C84.5426 38.1392 84.8107 38.4016 85.0207 38.7348M84.3223 38.0197C84.1212 37.9105 83.96 37.9204 83.9192 38.104C83.9111 38.1406 83.9046 38.183 83.8997 38.23M84.2148 37.8685C84.0919 37.717 83.9471 37.6057 83.7815 37.5523M84.2148 37.8685C84.3192 37.8881 84.4308 37.9188 84.5499 37.9616C84.7939 38.0495 84.9494 38.3456 85.0224 38.7139M83.7815 37.5523C84.4384 37.181 85.127 37.3471 85.0224 38.7139M83.8399 41.0505C84.0331 41.0626 84.2252 40.9751 84.401 40.7536M84.401 40.7536C84.4054 40.7481 84.4097 40.7425 84.4141 40.7368M84.401 40.7536C84.4014 40.7488 84.4018 40.744 84.4022 40.7392M84.4141 40.7368C84.4322 40.7132 84.4501 40.6881 84.4678 40.6616M84.4141 40.7368C84.4102 40.7376 84.4062 40.7384 84.4022 40.7392M84.4678 40.6616C84.4481 40.6429 84.4284 40.6228 84.4088 40.6013M85.0207 38.7348C85.0213 38.7278 85.0218 38.7209 85.0224 38.7139M85.0207 38.7348C85.0234 38.7391 85.0261 38.7434 85.0288 38.7477M85.0224 38.7139C85.0246 38.7251 85.0267 38.7364 85.0288 38.7477M84.4022 40.7392C84.4058 40.6955 84.408 40.6495 84.4088 40.6013M84.5138 40.7024C84.976 40.4815 85.1626 39.4823 85.0288 38.7477M84.5138 40.7024C84.7317 40.8827 84.9579 40.8833 85.1601 40.5655C85.5371 39.9731 85.3564 39.2741 85.0288 38.7477M84.4088 40.6013C84.4131 40.3491 84.3801 40.0395 84.3245 39.7216M84.3245 39.7216C84.2264 39.1604 84.0579 38.5733 83.8997 38.23M84.3245 39.7216C83.9885 39.8375 83.8451 38.7519 83.8997 38.23M84.3245 39.7216C84.4133 39.6909 84.5156 39.5762 84.6312 39.3449M90.818 32.7655C90.8424 32.8707 90.8562 32.9891 90.8562 33.12C90.6808 33.4707 90.1732 33.8231 90.1238 34.2185M90.818 32.7655C90.6785 32.1639 90.1903 31.9936 89.9277 32.3908M90.818 32.7655C91.1415 32.791 91.43 33.0473 91.5682 33.6693C91.6511 34.0423 91.6434 34.3183 91.5754 34.5097M90.818 32.7655C90.681 32.7546 90.5378 32.7852 90.397 32.8469M89.9277 32.3908C89.8256 32.5453 89.7577 32.7857 89.7577 33.12C89.7577 33.13 89.7577 33.14 89.7579 33.1499M89.9277 32.3908C89.9321 32.3964 89.9364 32.4022 89.9407 32.408C90.044 32.5456 90.1551 32.6911 90.2658 32.8431M89.9277 32.3908C89.2782 31.5335 89.2942 32.2323 89.5998 33.2091M89.7579 33.1499C89.7579 33.1509 89.7579 33.152 89.7579 33.153M89.7579 33.1499C89.9217 32.98 90.0931 32.8633 90.2658 32.8431M89.7579 33.1499C89.7566 33.1512 89.7554 33.1525 89.7541 33.1538M89.7579 33.153C89.759 33.2189 89.7634 33.2835 89.7709 33.3467M89.7579 33.153C89.8225 33.1395 89.8902 33.1361 89.9594 33.1439M89.7579 33.153C89.7567 33.1533 89.7554 33.1535 89.7541 33.1538M89.7709 33.3467C89.8552 34.0641 90.3288 34.601 90.7766 34.7859M89.7709 33.3467C89.8294 33.2744 89.8927 33.2063 89.9594 33.1439M89.7709 33.3467C89.7404 33.3843 89.7112 33.423 89.6834 33.4627M90.7766 34.7859C90.8635 34.8218 90.9495 34.8444 91.0314 34.8525M90.7766 34.7859C90.6579 34.8699 90.4881 34.8936 90.3088 34.8691M90.7766 34.7859C90.9685 34.6499 91.0266 34.356 90.7748 33.8523C90.543 33.3888 90.2387 33.1754 89.9594 33.1439M91.0314 34.8525C91.2742 34.8765 91.4819 34.7731 91.5754 34.5097M91.0314 34.8525C91.028 34.8785 91.0238 34.9045 91.0189 34.9305C90.9671 35.2067 90.8504 35.3666 90.7012 35.4389M91.0314 34.8525C91.1244 34.1576 90.7239 33.4792 90.3021 32.8933M91.5754 34.5097C91.6715 34.889 91.6719 35.2568 91.5071 35.5205C91.2861 35.8742 90.9956 35.7731 90.7012 35.4389M91.5754 34.5097C91.4082 33.85 90.9516 33.156 90.5714 32.9166C90.5134 32.8801 90.4552 32.8574 90.397 32.8469M90.397 32.8469C90.3652 32.8608 90.3335 32.8763 90.3021 32.8933M90.397 32.8469C90.3532 32.839 90.3094 32.8379 90.2658 32.8431M90.3021 32.8933C90.1827 32.9578 90.0666 33.0435 89.9594 33.1439M90.3021 32.8933C90.29 32.8765 90.2779 32.8597 90.2658 32.8431M89.6834 33.4627C89.5971 33.586 89.5251 33.7181 89.4729 33.8523C89.2668 34.3823 89.8226 34.8028 90.3088 34.8691M89.6834 33.4627C89.6641 33.4069 89.6456 33.3517 89.6279 33.2972M89.6834 33.4627C89.8483 33.938 90.0696 34.4506 90.3088 34.8691M90.3088 34.8691C90.4365 35.0926 90.5693 35.2891 90.7012 35.4389M89.7541 33.1538C89.7003 33.1654 89.6485 33.184 89.5998 33.2091M89.7541 33.1538C89.7115 33.1983 89.6694 33.2463 89.6279 33.2972M89.5998 33.2091C89.3681 33.3283 89.2038 33.5929 89.1996 33.9382M89.5998 33.2091C89.6089 33.2383 89.6183 33.2676 89.6279 33.2972M89.1996 33.9382C89.196 34.2255 89.3032 34.5687 89.5746 34.9305C89.8691 35.3232 90.3667 35.6011 90.7012 35.4389M89.1996 33.9382C89.3302 33.7114 89.4748 33.485 89.6279 33.2972M89.1996 33.9382C88.9621 34.3506 88.7709 34.7646 88.6591 34.9509M35.5641 46.6684C35.5641 47.5096 35.946 48.1963 36.3913 48.5244M36.3913 48.5244C36.6912 48.7452 37.0199 48.8035 37.28 48.6369M36.3913 48.5244C36.2586 48.217 36.2543 47.8455 36.3274 47.485M36.3913 48.5244C36.4567 48.6758 36.5532 48.8116 36.687 48.923M37.28 48.6369C37.4275 48.5425 37.553 48.3758 37.6388 48.1256M37.28 48.6369C36.924 48.4913 36.5751 48.0295 36.3274 47.485M37.28 48.6369C37.4747 48.7165 37.6715 48.7017 37.8551 48.5543M37.6388 48.1256C37.6427 48.1142 37.6465 48.1026 37.6502 48.0909M37.6388 48.1256C36.7867 48.017 36.8334 46.7581 37.2988 46.0509M37.6388 48.1256C37.6463 48.1265 37.6538 48.1274 37.6615 48.1282M37.6502 48.0909C37.691 47.9629 37.7218 47.8143 37.7405 47.6436M37.6502 48.0909C37.486 47.5358 37.3877 46.7183 37.3949 46.465C37.3994 46.3088 37.4143 46.1811 37.4374 46.0791M37.6502 48.0909C37.654 48.1035 37.6577 48.1159 37.6615 48.1282M37.7405 47.6436C37.754 47.5201 37.7611 47.3851 37.7611 47.238C37.7611 46.9732 37.7427 46.759 37.7099 46.5893M37.7405 47.6436C37.6759 47.3271 37.6799 46.915 37.7099 46.5893M37.7405 47.6436C37.8 47.9355 37.9178 48.1462 38.1273 48.1331C38.1436 48.1321 38.1596 48.1289 38.1753 48.1236M37.7099 46.5893C37.6539 46.2998 37.5563 46.1397 37.4374 46.0791M37.7099 46.5893C37.7276 46.3967 37.7544 46.2343 37.7815 46.1395C37.8971 45.7346 38.2865 46.9544 38.3357 47.7031M37.4374 46.0791C37.3937 46.0568 37.3472 46.0479 37.2988 46.0509M37.4374 46.0791C37.549 45.5861 37.8515 45.6912 38.0868 46.0711M37.2988 46.0509C36.9383 46.0736 36.475 46.7571 36.3274 47.485M37.2988 46.0509C37.4252 45.8588 37.5825 45.7075 37.7611 45.6309C37.775 45.625 37.7888 45.6195 37.8023 45.6145M36.3274 47.485C36.046 46.8665 35.8949 46.1413 36.0116 45.6513C36.1238 45.1801 36.5173 44.9188 36.9755 44.8406M36.687 48.923C36.8579 49.0653 37.0897 49.1677 37.3949 49.2113C38.3532 49.3482 38.693 48.7654 38.6666 47.9797M36.687 48.923C35.8201 48.7062 35.1448 47.7383 35.6454 45.9361C35.953 44.8288 36.4621 44.5982 36.9755 44.8406M36.687 48.923C37.3999 49.1013 38.2423 48.7714 38.6666 47.9797M38.6666 47.9797C38.6593 47.762 38.6239 47.5287 38.5657 47.2908M38.6666 47.9797C38.9558 47.4403 39.0507 46.6864 38.7783 45.7326C38.5831 45.0496 37.6987 44.7172 36.9755 44.8406M38.5657 47.2908C38.4857 46.9634 38.3625 46.6274 38.2103 46.3114M38.5657 47.2908C38.5213 47.5808 38.4406 47.8367 38.3343 47.9883M38.5657 47.2908C38.6931 46.4597 38.5225 45.3493 37.8023 45.6145M38.2103 46.3114C38.171 46.2298 38.1297 46.1495 38.0868 46.0711M38.2103 46.3114C38.3728 46.6923 38.46 47.2131 38.3357 47.7031M38.2103 46.3114C38.1726 46.2231 38.1309 46.1423 38.0868 46.0711M38.0868 46.0711C37.9985 45.9097 37.9029 45.7561 37.8023 45.6145M37.8023 45.6145C37.5479 45.2565 37.2611 44.9754 36.9755 44.8406M37.8551 48.5543C37.968 48.4637 38.0759 48.3231 38.1753 48.1236M37.8551 48.5543C37.784 48.4677 37.7189 48.3145 37.6615 48.1282M37.8551 48.5543C37.989 48.7172 38.1443 48.6443 38.3104 48.1128C38.3215 48.0773 38.3293 48.0354 38.3343 47.9883M38.1753 48.1236C38.2077 48.0585 38.2392 47.9872 38.2697 47.9093C38.2962 47.8415 38.3181 47.7726 38.3357 47.7031M38.1753 48.1236C38.2329 48.1042 38.2862 48.0569 38.3343 47.9883M38.3357 47.7031C38.3427 47.8098 38.3428 47.9069 38.3343 47.9883M37.6615 48.1282C37.6935 48.1314 37.7267 48.1331 37.7611 48.1331M23.4804 38.9788C23.4743 38.9794 23.4683 38.9802 23.4623 38.9811M23.4623 38.9811C23.3403 38.9987 23.2245 39.057 23.117 39.1462M23.4623 38.9811C23.7606 39.0787 23.9948 39.4187 24.118 39.8454M23.4623 38.9811C23.4117 38.9645 23.3593 38.9549 23.3053 38.9531M23.117 39.1462C22.4748 39.6789 22.126 41.3132 22.495 41.9676M23.117 39.1462C23.1421 39.1172 23.1683 39.0885 23.1956 39.0601C23.2328 39.0214 23.2694 38.9858 23.3053 38.9531M23.117 39.1462C22.1143 40.3067 22.812 42.0307 23.4661 42.0673M22.495 41.9676C22.6196 42.1886 22.8261 42.2979 23.1306 42.2154M22.495 41.9676C21.9727 41.5402 21.7248 40.6154 22.3818 39.6297C22.7114 39.1354 23.0294 38.9435 23.3053 38.9531M22.495 41.9676C22.6815 42.1202 22.9029 42.2094 23.1306 42.2154M23.1306 42.2154C23.2298 42.1885 23.3394 42.1412 23.46 42.0709C23.462 42.0697 23.4641 42.0685 23.4661 42.0673M23.1306 42.2154C23.6044 42.2277 24.1055 41.8798 24.3755 40.9927C24.4656 40.6964 24.5371 40.4277 24.5915 40.1849M23.4661 42.0673C23.774 41.8856 23.9764 41.6013 24.0919 41.2768M23.4661 42.0673C23.7116 42.0811 23.9509 41.8573 24.0919 41.2768M24.0919 41.2768C24.2527 40.8255 24.2456 40.2964 24.1213 39.8571M24.0919 41.2768C24.1359 41.0959 24.1703 40.8803 24.1924 40.6266C24.2023 40.5127 24.1461 40.2347 24.0599 39.9613M24.1213 39.8571C24.1202 39.8532 24.1191 39.8493 24.118 39.8454M24.1213 39.8571C24.3549 40.0612 24.5789 40.3851 24.5789 40.179C24.5789 40.067 24.5812 39.9578 24.5849 39.8529M24.1213 39.8571C24.1192 39.8553 24.1171 39.8534 24.115 39.8516M24.118 39.8454C24.117 39.8475 24.116 39.8496 24.115 39.8516M24.118 39.8454C24.15 39.7783 24.1817 39.7064 24.2127 39.6297C24.299 39.4166 24.3693 39.2451 24.4263 39.1108M23.3053 38.9531C23.8446 38.4617 24.2249 38.6381 24.4263 39.1108M24.5915 40.1849C25.7813 34.8779 18.8694 41.9127 22.748 42.5591C23.9799 42.7644 24.5616 41.3641 24.5915 40.1849ZM24.5915 40.1849C24.5944 40.0716 24.5922 39.9604 24.5849 39.8529M24.5849 39.8529C24.566 39.5706 24.5126 39.3135 24.4263 39.1108M24.5849 39.8529C24.6198 38.8806 24.7818 38.273 24.4263 39.1108M24.0599 39.9613C24.0382 39.8927 24.0147 39.8243 23.9898 39.7589M24.0599 39.9613C23.6608 40.7178 23.2472 40.7096 23.5007 39.5687C23.6176 39.0428 23.8307 39.3401 23.9898 39.7589M24.0599 39.9613C24.0783 39.9264 24.0967 39.8898 24.115 39.8516M23.9898 39.7589C24.031 39.7833 24.0731 39.8154 24.115 39.8516M23.9898 39.7589C23.9399 39.7293 23.8914 39.7111 23.8465 39.7111M17.6216 33.4861C17.5828 33.1756 17.434 33.0568 17.231 33.0556M17.231 33.0556C17.1781 33.0553 17.1215 33.063 17.0623 33.0774M17.231 33.0556C17.5245 34.0901 15.8879 36.741 14.916 36.741C14.4254 36.741 14.7572 35.3959 15.3301 34.288M17.231 33.0556C17.2167 33.0052 17.1978 32.9587 17.1741 32.9165C17.1114 32.805 17.0278 32.7681 16.9312 32.7878M17.0623 33.0774C17.0207 33.0874 16.9778 33.1008 16.934 33.117M17.0623 33.0774C17.3243 33.7067 16.2035 36.3768 15.5059 35.6018C15.4344 35.5223 15.382 35.4109 15.347 35.277M17.0623 33.0774C17.049 33.0453 17.032 33.0186 17.0113 32.9979C16.9886 32.9752 16.9655 32.9553 16.9419 32.9382M16.934 33.117C16.691 33.2066 16.4179 33.3831 16.1722 33.5698M16.934 33.117C16.8725 33.7855 16.4737 34.7021 16.34 34.9101C16.0848 35.3071 15.6919 35.4139 15.4246 35.3139M16.934 33.117C16.9397 33.055 16.9425 32.9951 16.9419 32.9382M16.1722 33.5698C15.8354 33.8258 15.5501 34.1011 15.4653 34.1981C15.4074 34.2642 15.3581 34.3283 15.3166 34.3901M16.1722 33.5698C16.373 33.2542 16.5859 32.9878 16.7718 32.8614M16.1722 33.5698C15.7761 34.1924 15.4269 35.0064 15.4246 35.3139M15.3166 34.3901C15.0276 34.8201 15.1164 35.1407 15.347 35.277M15.3166 34.3901C15.3206 34.3562 15.3251 34.3222 15.3301 34.288M15.3166 34.3901C15.277 34.722 15.2839 35.036 15.347 35.277M15.347 35.277C15.3713 35.2914 15.3973 35.3038 15.4246 35.3139M15.4246 35.3139C15.4246 35.315 15.4246 35.316 15.4246 35.317M16.9419 32.9382C16.9414 32.8854 16.9379 32.835 16.9312 32.7878M16.9419 32.9382C16.8873 32.8985 16.8304 32.8734 16.7718 32.8614M16.9312 32.7878C16.897 32.5476 16.7777 32.3876 16.5231 32.3876C15.9251 32.3876 15.4621 33.3828 15.3301 34.288M16.9312 32.7878C16.8812 32.798 16.8277 32.8234 16.7718 32.8614M15.3301 34.288C15.757 33.4624 16.3177 32.7686 16.7718 32.8614M62.2947 50.6963C62.2947 49.9528 62.6497 49.5978 63.3932 49.5978M66.3226 47.7669C67.9976 47.7669 69.0991 47.0727 70.7167 46.6683M71.8152 45.936C72.3717 45.8741 72.754 45.3789 73.2799 45.2036M75.1107 44.4714C75.8418 44.3901 76.1335 43.739 76.9416 43.739M79.5048 41.9082C80.212 41.8296 81.0406 41.0337 81.3357 40.4435M83.1665 39.711C83.3069 38.5883 86.7135 36.8964 87.5606 36.0493M15.4246 34.9508C15.5283 34.1213 16.9428 36.2592 17.2554 36.4155M21.2833 38.9787C22.4579 39.1255 19.7232 38.374 19.9 38.5311C20.9913 39.5012 22.684 39.5715 23.8465 40.4434M23.8465 41.1758C24.7797 42.1089 26.0062 41.959 27.1421 42.6405M32.6347 46.6683C32.7868 46.0601 36.0719 47.0345 36.6626 47.0345M40.6905 48.1331C40.7733 48.7956 41.5561 48.7657 41.789 49.2316M43.2537 49.2316C43.5133 49.264 43.7587 49.4841 43.986 49.5977M82.068 53.6257C82.3503 53.5904 82.5551 52.993 82.6752 52.6116M82.6752 52.6116C82.7579 52.3492 82.8004 52.189 82.8004 52.3848C82.8004 52.4441 82.8028 52.5032 82.8076 52.5613M82.6752 52.6116C82.5765 51.7151 83.5659 50.5599 84.4278 50.7167C84.5733 50.7431 84.6968 50.7837 84.8006 50.836M82.6752 52.6116C82.6852 52.7022 82.7063 52.7902 82.7397 52.8739M82.8076 52.5613C82.8292 52.8224 82.8981 53.0656 83.0062 53.2412M82.8076 52.5613C82.8769 52.3485 82.9943 52.1399 83.1665 51.9576C83.927 51.1524 84.6124 52.3683 84.0616 53.0764C83.7939 53.4207 83.5561 53.5399 83.3611 53.5115M82.8076 52.5613C82.7737 52.6654 82.7514 52.7704 82.7397 52.8739M83.0062 53.2412C83.098 53.3904 83.218 53.4907 83.3611 53.5115M83.0062 53.2412C83.0054 53.2406 83.0046 53.2399 83.0038 53.2392C82.88 53.1331 82.7938 53.0091 82.7397 52.8739M83.0062 53.2412C83.1304 53.3476 83.2487 53.4372 83.3611 53.5115M83.3611 53.5115C83.6202 53.6827 83.8483 53.7726 84.0482 53.7984M82.7397 52.8739C82.6493 53.678 83.2066 54.3881 84.0482 53.7984M84.0482 53.7984C84.1441 53.7312 84.2437 53.6471 84.3464 53.5443C84.7313 53.1595 85.1716 52.4447 85.2522 51.8257M84.0482 53.7984C84.9462 53.9142 85.2717 52.7356 85.2522 51.8257M85.2522 51.8257C85.2824 51.5936 85.2621 51.3749 85.1693 51.1922M85.2522 51.8257C85.247 51.5865 85.218 51.3658 85.1693 51.1922M85.1693 51.1922C85.0957 51.0471 84.9764 50.9247 84.8006 50.836M85.1693 51.1922C85.0913 50.9142 84.9628 50.7566 84.8006 50.836M84.8006 50.836C84.6473 50.9111 84.4641 51.1978 84.2651 51.7948M93.4194 44.1052C93.4194 44.1563 93.4211 44.208 93.4244 44.26M93.4244 44.26C93.4465 44.6036 93.5396 44.9607 93.6767 45.2547M93.4244 44.26C93.4872 43.4739 94.1221 43.2413 94.6274 43.4391M93.4244 44.26C93.4211 44.3017 93.4194 44.3451 93.4194 44.39C93.4194 44.7037 93.5211 45.0032 93.6767 45.2547M93.6767 45.2547C93.8667 45.6621 94.1413 45.9484 94.429 45.91M93.6767 45.2547C93.8737 45.573 94.1569 45.8143 94.429 45.91M94.429 45.91C94.5053 45.8998 94.5826 45.8668 94.6594 45.8071M94.429 45.91C94.5606 45.9562 94.6896 45.9684 94.8049 45.9388M94.6594 45.8071C94.7957 45.7012 94.9306 45.5114 95.0568 45.2165M94.6594 45.8071C94.5827 45.7691 94.5126 45.7238 94.4487 45.6724M94.6594 45.8071C94.7204 45.8373 94.7857 45.8628 94.8553 45.8829M95.0568 45.2165C95.095 45.1272 95.1325 45.0282 95.1689 44.9189C95.1912 44.8518 95.2091 44.7866 95.2228 44.7233M95.0568 45.2165C95.0517 45.5047 94.9772 45.7311 94.8553 45.8829M95.0568 45.2165C95.0608 44.9873 95.0208 44.7189 94.9257 44.4178M95.2228 44.7233C95.368 44.0516 95.0411 43.601 94.6274 43.4391M95.2228 44.7233C95.2454 44.8511 95.2555 44.9849 95.2502 45.1223C95.2337 45.552 95.0995 45.7956 94.9107 45.8976M95.2228 44.7233C95.1589 44.3619 94.9955 44.0482 94.8008 43.8338M94.6274 43.4391C94.6987 43.5727 94.756 43.7047 94.8008 43.8338M94.6274 43.4391C94.594 43.3766 94.5576 43.3138 94.5179 43.2508C93.4479 41.5514 92.4449 43.5852 93.0532 44.8375C93.6476 46.0612 94.4147 46.3236 94.8049 45.9388M94.8049 45.9388C94.8417 45.9294 94.877 45.9157 94.9107 45.8976M94.8049 45.9388C94.8225 45.9215 94.8393 45.9029 94.8553 45.8829M94.9107 45.8976C94.8919 45.8931 94.8735 45.8882 94.8553 45.8829M94.9107 45.8976C95.0145 45.9226 95.1275 45.9361 95.2502 45.9361M94.8008 43.8338C94.7268 43.7523 94.6482 43.6852 94.5689 43.6352M94.8008 43.8338C94.8714 44.0374 94.9109 44.2338 94.9257 44.4178M94.5689 43.6352C94.3821 43.5175 94.1908 43.4949 94.0438 43.6044M94.5689 43.6352C94.6188 43.7045 94.6698 43.7926 94.7213 43.9018C94.8068 44.0827 94.8743 44.255 94.9257 44.4178M94.5689 43.6352C94.3581 43.3423 94.1679 43.3867 94.0438 43.6044M94.0438 43.6044C93.8757 43.7296 93.7653 44.0273 93.7856 44.5527C93.8226 45.5156 94.1523 45.802 94.4487 45.6724M94.0438 43.6044C93.7966 44.038 93.8116 45.1591 94.4487 45.6724M94.4487 45.6724C94.7278 45.5503 94.9773 45.0597 94.9257 44.4178M26.0436 53.2595C26.0221 53.2353 26.0004 53.2117 25.9785 53.1886M25.9785 53.1886C25.818 53.019 25.6482 52.8796 25.4844 52.7878M25.9785 53.1886C25.9747 53.0319 25.9745 52.8761 25.9803 52.7227M25.9785 53.1886C25.9816 53.3118 25.9868 53.4357 25.993 53.5593M25.4844 52.7878C25.3669 52.7219 25.2524 52.6804 25.1467 52.6698M25.4844 52.7878C25.4524 52.7053 25.4257 52.6234 25.406 52.5457M25.4844 52.7878C25.6072 53.1044 25.8085 53.4298 25.993 53.5593M25.1467 52.6698C24.822 52.6371 24.5789 52.8944 24.5789 53.6257C24.5789 53.7972 24.6129 53.9687 24.6724 54.1339M25.1467 52.6698C25.2196 52.5964 25.3082 52.5569 25.406 52.5457M25.1467 52.6698C25.0358 52.7813 24.9611 52.9712 24.9451 53.2595C24.9341 53.4563 24.9522 53.6241 24.9924 53.7646M24.6724 54.1339C24.9512 54.9082 25.7904 55.5457 26.3207 55.411M24.6724 54.1339C24.7441 53.9795 24.8563 53.8563 24.9924 53.7646M24.6724 54.1339C24.597 54.2962 24.5662 54.493 24.5992 54.7242C24.8242 56.2988 25.7515 56.1851 26.3207 55.411M26.3207 55.411C26.5873 55.3432 26.7759 55.0802 26.7759 54.5411C26.7759 54.4629 26.7681 54.3894 26.7534 54.3206M26.3207 55.411C26.5333 55.1218 26.696 54.7405 26.7534 54.3206M26.7534 54.3206C26.715 54.1405 26.6294 53.9927 26.5134 53.8771M26.7534 54.3206C26.7681 54.2132 26.7759 54.1034 26.7759 53.9918C26.7759 53.8501 26.7419 53.7038 26.6832 53.5611M26.5134 53.8771C26.3746 53.7386 26.1923 53.6463 25.9951 53.5998M26.5134 53.8771C26.3808 54.0583 26.2105 54.1889 26.0312 54.2624M26.5134 53.8771C26.5811 53.7846 26.6389 53.6791 26.6832 53.5611M25.9951 53.5998C25.6562 53.5198 25.2734 53.5752 24.9924 53.7646M25.9951 53.5998C25.9944 53.5863 25.9937 53.5728 25.993 53.5593M25.9951 53.5998C26.0067 53.823 26.0212 54.0454 26.0312 54.2624M24.9924 53.7646C25.1442 54.2949 25.6123 54.4343 26.0312 54.2624M26.6832 53.5611C26.615 53.3956 26.5136 53.2349 26.3932 53.092M26.6832 53.5611C26.7719 53.3249 26.8062 53.039 26.7556 52.7102C26.7133 52.4356 26.4428 52.0931 26.1511 51.904M26.3932 53.092C26.2702 52.9458 26.1273 52.8182 25.9803 52.7227M26.3932 53.092C26.3958 53.156 26.3948 53.2071 26.3894 53.2392C26.3242 53.6302 26.166 53.6808 25.993 53.5593M26.3932 53.092C26.3792 52.7401 26.257 51.9997 26.1511 51.904M25.9803 52.7227C25.7842 52.5955 25.5805 52.5256 25.406 52.5457M25.9803 52.7227C25.9895 52.4797 26.0141 52.2429 26.0639 52.0186C26.0856 51.9209 26.1108 51.8856 26.1375 51.8953M25.406 52.5457C25.3748 52.4223 25.3613 52.3096 25.3723 52.222C25.4401 51.6791 25.8007 51.683 26.1375 51.8953M26.0312 54.2624C26.0386 54.4197 26.0436 54.5742 26.0436 54.7242M26.1511 51.904C26.1466 51.9011 26.142 51.8981 26.1375 51.8953M26.1511 51.904C26.1465 51.8999 26.142 51.8969 26.1375 51.8953M12.8614 45.5698C12.716 45.588 12.5819 45.6224 12.4584 45.67M12.4584 45.67C12.4433 45.6758 12.4283 45.6818 12.4135 45.6881M12.4584 45.67C12.708 45.8549 12.8686 46.1547 12.8088 46.5566M12.4584 45.67C12.4394 45.6559 12.4198 45.6425 12.3999 45.6297M12.4135 45.6881C11.6911 45.9915 11.3478 46.7523 11.2717 47.3153M12.4135 45.6881C12.4465 45.8698 12.4148 46.1364 12.2918 46.5056C12.0981 47.0866 11.9226 47.4683 11.7734 47.6981M12.4135 45.6881C12.4098 45.6675 12.4052 45.6481 12.3999 45.6297M11.2717 47.3153C11.1929 47.8993 11.4017 48.2705 11.7734 47.6981M11.2717 47.3153C11.2522 47.2848 11.2328 47.2522 11.2136 47.2176C10.915 46.6801 10.8646 46.273 10.9573 45.9859M11.2717 47.3153C11.4333 47.5682 11.6041 47.6839 11.7734 47.6981M11.7734 47.6981C12.175 47.7316 12.568 47.1935 12.8088 46.5566M12.3999 45.6297C12.3135 45.3328 12.0218 45.3111 11.686 45.4568M12.3999 45.6297C12.1901 45.496 11.9298 45.4361 11.686 45.4568M11.686 45.4568C11.446 45.5609 11.1835 45.7504 10.9573 45.9859M11.686 45.4568C11.3602 45.4843 11.064 45.6556 10.9573 45.9859M10.9573 45.9859C10.9469 45.9967 10.9367 46.0076 10.9265 46.0185M10.9265 46.0185C10.751 46.2073 10.5997 46.4236 10.5016 46.648C9.99934 47.796 11.0288 48.9078 12.0476 47.8482C12.5323 47.3441 12.7561 46.9107 12.8088 46.5566M10.9265 46.0185C11.3394 44.9223 12.6778 44.0659 12.9834 44.9392C13.1193 45.3274 13.026 45.9822 12.8088 46.5566M10.9265 46.0185C10.7551 46.4734 10.7431 46.9696 11.0305 47.4007M8.83345 42.6405C9.0371 44.2697 10.8413 45.4185 11.9459 46.3022C12.3725 46.6435 12.9015 47.1763 13.2275 47.5838C13.7484 48.235 14.7436 47.8698 15.0584 48.4993M15.4246 48.4993C15.6842 48.5317 15.9295 48.7518 16.1569 48.8654M18.7201 49.5978H19.0863M22.748 51.4286V52.1609M25.6774 53.9918C26.5829 54.105 27.9056 54.8769 28.973 55.0903M30.8038 55.4565H31.17M33.7332 55.4565H34.0994M72.5475 57.6536C72.4842 58.1599 71.8524 58.2514 71.449 58.3859M69.6181 59.4844C69.6753 59.0271 71.3437 58.7521 71.8152 58.7521M76.2093 57.2873C76.6879 57.2873 76.748 57.3084 76.9416 56.9211M79.871 55.4565C80.5158 55.3848 81.0209 54.8603 81.7019 54.7241M83.5327 53.2595C83.8745 53.2215 83.9922 53.0752 84.2651 52.8933M86.0959 52.161C86.3555 52.1285 86.6009 51.9085 86.8283 51.7948M90.8562 48.4993C91.2544 48.4495 91.7934 47.7233 91.9547 47.4008M92.3209 47.4007C93.1069 46.5164 94.3679 45.5037 94.8841 44.4713M95.2502 44.1051C95.5733 43.7417 95.6164 43.4785 95.6164 43.0066M94.9436 55.7598C95.0718 55.5221 95.3481 55.3536 95.7792 55.4768C96.4242 55.6611 95.3595 57.0626 95.2502 56.1888C95.1001 56.1137 94.9991 55.9532 94.9436 55.7598ZM94.9436 55.7598C94.7653 56.0905 94.8735 56.555 95.2502 56.555C96.1234 56.555 96.3118 54.9192 95.5961 54.5614C95.0267 54.2767 94.7744 55.1708 94.9436 55.7598ZM95.9826 55.0904C95.8392 55.2338 95.6896 55.4918 95.5663 55.7924M95.5663 55.7924C95.1608 56.7803 95.0384 58.2274 96.3488 57.5722C96.4085 57.5424 96.4654 57.5032 96.5195 57.4562M95.5663 55.7924C95.5132 55.374 95.6196 54.9977 95.9826 54.8056C96.4606 54.5525 96.7751 54.6519 96.9547 54.9293M95.5663 55.7924C95.6439 56.4051 96.0633 57.1081 96.5195 57.4562M96.5195 57.4562C97.102 56.9494 97.3414 55.5266 96.9547 54.9293M96.5195 57.4562C96.8475 57.7065 97.1946 57.7733 97.4473 57.4908C98.3971 56.4292 97.5968 55.0736 96.9547 54.9293M96.9547 54.9293C96.6317 54.8567 96.3488 55.0906 96.3488 55.8227M101.475 50.6963C101.603 50.553 102.039 49.2832 102.187 49.8012C102.261 50.0608 102.415 50.516 102.617 50.6219M102.617 50.6219C102.737 50.6845 102.874 50.6249 103.021 50.3301C103.04 50.2917 103.058 50.2543 103.076 50.2177M102.617 50.6219C102.419 50.2127 102.402 49.8618 102.474 49.5946M102.617 50.6219C102.629 50.6465 102.642 50.6713 102.655 50.6963C103.342 51.9946 104.476 48.6163 102.94 47.8482C101.621 47.1887 101.824 48.6313 102.474 49.5946M103.076 50.2177C103.762 48.7434 102.697 48.7775 102.474 49.5946M103.076 50.2177C102.857 50.0782 102.649 49.8537 102.474 49.5946M103.076 50.2177C103.151 50.2661 103.228 50.3042 103.306 50.3301M103.306 49.2316C103.143 50.5362 100.933 51.9709 100.01 52.8933M98.912 54.358C98.5749 54.6576 98.186 54.9041 97.8134 55.0904M97.0811 55.8226C97.029 56.2397 96.3258 56.3262 95.9826 56.555M94.1517 58.3859C93.262 58.2747 92.9349 57.7324 91.9547 58.3859M90.8562 58.7521C90.5144 58.7901 90.3967 58.9363 90.1238 59.1182M89.0253 59.4844C88.9423 60.1484 86.9727 59.8505 86.4621 59.8505M20.0747 60.0041C20.3658 59.9002 20.6707 59.8506 20.9172 59.8506L22.0157 59.8506M20.0747 60.0041C19.847 60.0854 19.6277 60.1999 19.4515 60.35M20.0747 60.0041C19.8897 60.2518 19.6653 60.5089 19.4282 60.7452M20.0747 60.0041C20.3596 59.6227 20.551 59.2635 20.551 59.0369C20.551 58.0358 20.1764 57.8526 19.6941 58.0712M19.4515 60.35C19.4435 60.3567 19.4357 60.3635 19.428 60.3704M19.4515 60.35C19.4554 60.476 19.4461 60.6119 19.4282 60.7452M19.4515 60.35C19.4513 60.3454 19.4511 60.3408 19.451 60.3363M19.428 60.3704C19.4277 60.3706 19.4282 60.3702 19.428 60.3704ZM19.428 60.3704C19.3029 60.4818 19.2006 60.6126 19.1358 60.7625M19.428 60.3704C19.3839 60.4933 19.3249 60.6252 19.249 60.766C19.1872 60.8809 19.1269 60.9849 19.0684 61.0786M19.428 60.3704C19.4355 60.3494 19.4429 60.3277 19.4496 60.3072M19.428 60.3704C19.3347 60.5063 19.2359 60.6388 19.1358 60.7625M19.428 60.3704C19.4356 60.3593 19.4434 60.3474 19.451 60.3363M19.1358 60.7625C19.0928 60.8617 19.0661 60.9696 19.0592 61.0864M19.1358 60.7625C18.7309 61.2624 18.2907 61.6279 17.9847 61.5781M19.0592 61.0864C19.0591 61.0889 19.059 61.0914 19.0588 61.0938M19.0592 61.0864C18.6822 61.408 18.3075 61.6427 18.035 61.6779M19.0592 61.0864C19.0623 61.0838 19.0654 61.0812 19.0684 61.0786M19.0588 61.0938C19.0528 61.2127 19.0674 61.3407 19.1066 61.478C19.1722 61.7075 19.3609 61.2446 19.4282 60.7452M19.0588 61.0938C18.569 61.8715 18.2024 61.9291 18.035 61.6779M19.0588 61.0938C19.062 61.0888 19.0652 61.0837 19.0684 61.0786M19.4282 60.7452C19.3103 60.8627 19.1893 60.975 19.0684 61.0786M19.451 60.3363C19.4506 60.3265 19.4501 60.3168 19.4496 60.3072M19.451 60.3363C19.9575 59.5885 20.3156 58.7324 20.1034 58.4673C19.962 58.2905 19.8255 58.1606 19.6941 58.0712M19.4496 60.3072C19.423 59.8426 19.201 59.5376 18.537 60.054C17.9885 60.4807 17.8447 61.2072 17.9847 61.5781M19.4496 60.3072C19.7718 59.3152 19.0892 58.9386 18.4597 59.1622M17.9847 61.5781C17.9987 61.6151 18.0155 61.6486 18.035 61.6779M17.9847 61.5781C17.8271 61.5524 17.7052 61.4166 17.642 61.1322C17.6355 61.103 17.6295 61.0741 17.624 61.0455M18.035 61.6779C17.796 61.7088 17.6357 61.5862 17.6216 61.2339C17.6194 61.1788 17.6202 61.1155 17.624 61.0455M18.4597 59.1622C18.2726 59.2287 18.0902 59.3482 17.9403 59.5204M18.4597 59.1622C18.8482 58.683 19.306 58.247 19.6941 58.0712M18.4597 59.1622C18.1512 59.5429 17.8864 59.9509 17.7351 60.2774M17.9403 59.5204C17.6587 59.8439 17.4918 60.3531 17.624 61.0455M17.9403 59.5204C18.2852 58.4838 18.8941 57.5268 19.6941 58.0712M17.9403 59.5204C17.8556 59.775 17.7869 60.0343 17.7351 60.2774M17.624 61.0455C17.6354 60.8371 17.673 60.569 17.7351 60.2774M17.7351 60.2774C17.6827 60.3905 17.6439 60.4939 17.6216 60.5829M5.89246 53.5613C5.89728 53.581 5.90117 53.6024 5.90407 53.6256C5.90407 53.6204 5.90192 53.6211 5.89778 53.6272M5.89246 53.5613C5.74259 52.9479 4.69347 53.9794 4.52265 54.3538M5.89246 53.5613C5.89449 53.5826 5.89627 53.6045 5.89778 53.6272M5.89246 53.5613C5.77584 52.3399 4.81394 53.3451 4.52265 54.3538M4.52265 54.3538C4.522 54.3552 4.52137 54.3566 4.52075 54.358C4.4423 54.5345 4.42075 54.6946 4.44045 54.8314M4.52265 54.3538C4.4758 54.516 4.4463 54.6783 4.44045 54.8314M4.44045 54.8314C4.48685 55.1537 4.76203 55.3467 5.06149 55.3204M4.44045 54.8314C4.43974 54.8501 4.43938 54.8686 4.43938 54.8869C4.43938 56.0033 4.73552 55.8333 5.06149 55.3204M5.06149 55.3204C5.46115 55.2854 5.90407 54.8596 5.90407 53.8291C5.90407 53.7564 5.90192 53.6892 5.89778 53.6272M5.06149 55.3204C5.43266 54.7364 5.84249 53.7077 5.89778 53.6272M5.90407 53.2595C5.92886 53.0363 6.02112 52.4147 6.03277 51.9557M6.03277 51.9557C6.04764 51.3698 5.93113 51.049 5.37515 52.161C5.10208 52.7071 4.45312 55.9717 5.70064 54.7242C5.96286 54.4619 7.77256 51.8355 6.43299 51.8355C6.29262 51.8355 6.15822 51.8791 6.03277 51.9557ZM6.03277 51.9557C5.21769 52.4536 4.78011 54.3453 5.5379 54.7242M4.80556 51.4287C4.80556 50.351 4.4644 51.5765 4.80556 52.3441C5.18584 53.1997 5.91172 53.8186 6.47368 54.5411C6.89832 55.0871 7.30067 55.6435 7.81631 56.1075C8.74049 56.9393 9.19739 55.4498 9.5658 56.5551M10.2981 57.2874H11.7628M12.4952 57.6536C12.5374 57.9909 12.614 57.8961 12.8614 58.0197M14.326 59.1182C14.3682 58.7809 14.4449 58.8757 14.6922 58.7521M17.2554 59.8505C17.7639 59.8505 17.94 59.7603 18.354 59.4844" stroke="#E3C097" stroke-linecap="round"/>
</g>
<defs>
<clipPath id="clip0_243_718">
<rect width="107" height="67" fill="white"/>
</clipPath>
</defs>
</svg>
