<svg width="28" height="28" viewBox="0 0 28 28" fill="none" xmlns="http://www.w3.org/2000/svg">
<path d="M1 15.9401C1 9.08482 3.53913 10.0929 6.07826 9.58882C5.57043 -2.00386 13.1878 1.52431 13.6956 2.02843C19.2817 -0.995772 22.3287 3.03642 21.8209 9.08479C27.3682 8.07672 27.1502 13.8835 26.8991 16.8686C25.6937 28.2121 17.7192 27.4337 14.2035 25.9411C5.16294 30.1203 2.0045 20.9153 1 15.9401Z" fill="#D08A63"/>
<path d="M6.99998 23C4.99998 20.2 7.49998 17.8333 8.99998 17.5C9.49998 16.5 10.3333 16.0001 10.5 15.5001C10.9 11.5 13 11.8334 14 12.0001C15.5 11.5001 17 14 17.5 15.5001C17.9743 16.9231 18.5 16.5 20 18.5C21.5 20.5 21 22.5 19 24C17 25.5 15 24 14.5 23.5C14 23 14 23 13.5 23.5C13 24 9.49998 26.5 6.99998 23Z" fill="#C0674B"/>
<path d="M2.99998 17.5C0.999981 15.1 2.83331 12.5 3.99998 11.5C6.39999 12.7 6.66664 15 6.49997 16C6.99997 16.4999 5.49998 20.5 2.99998 17.5Z" fill="#C0674B"/>
<path d="M7.99997 8.5C6.79997 5.69996 8.49997 3.33332 9.49997 2.5C11 2.5 11.5 3.5 12.5 5.5C13.5 7.5 11 11 11 10.5C11 10 9.49997 12.0001 7.99997 8.5Z" fill="#C0674B"/>
<path d="M14.5 6.5C14.1 4.5 16 2.66667 17 2C19 2.5 20 5 20 6.5C20 8 18 10.5 17 10.1875C16 9.875 15 9 14.5 6.5Z" fill="#C0674B"/>
<path d="M25.5 15C25.9 12.6 24 10.7917 23 10.1875C21.5 10.1875 21 12.0001 20.5 13C20 13.9999 21 17 22 18C23 19 25 18 25.5 15Z" fill="#C0674B"/>
</svg>
