<svg width="26" height="24" viewBox="0 0 26 24" fill="none" xmlns="http://www.w3.org/2000/svg">
<circle cx="13" cy="12" r="11.5" fill="#F2E3AD" stroke="#D08A63"/>
<path d="M8.96774 11.6751C6.43871 12.4318 4.60215 16.0891 4 17.8231C8.06452 24.4441 15.7419 23.4982 18 21.6065C16.9161 15.5531 14.8387 12.4633 13.9355 11.6751C15.3806 10.9184 14.8387 8.83755 14.3871 7.8917C13.9355 7.26113 12.671 6 11.2258 6C9.78064 6 8.8172 7.26113 8.51613 7.8917C7.43226 9.40506 8.36559 11.0445 8.96774 11.6751Z" fill="#EDD597"/>
<path d="M15.2884 23C14.5172 18.8095 15.449 15.2222 16.2523 14.4286L17.6983 16.3333L20.5901 15.381L21.5541 13C22.3252 13.7619 22.8393 15.8571 23 16.8095C21.4577 20.2381 17.2163 23 15.2884 23Z" fill="#E3C097"/>
<path d="M19.1937 6.09261C18.7641 6.09261 18.6566 7.2049 18.6566 6.83386C18.5671 6.09261 17.851 5.84559 17.5825 6.09265C16.938 6.68562 16.9559 7.2048 17.0454 7.57543C17.0454 8.46494 18.2986 9.75291 18.6566 10L19.1937 8.85714C20.053 8.56064 19.9993 7.32803 19.9993 6.83386C19.9993 6.83386 19.6234 6.09261 19.1937 6.09261Z" fill="#D1885F"/>
</svg>
