<svg width="52" height="52" viewBox="0 0 52 52" fill="none" xmlns="http://www.w3.org/2000/svg">
<path d="M22.2117 11.628C20.4013 11.628 22.2115 19.6892 23.9086 23.7199C24.814 23.7199 23.9086 21.5216 23.9086 19.3229C23.9086 18.7734 23.517 16.8144 23.3431 16.0252C22.7141 13.1692 23.858 12.4646 25.0399 12.1775C29.1131 11.7378 26.3599 19.3229 24.4742 23.1703L25.0399 22.6207C26.3599 20.7885 29 16.3547 29 13.2767C29 10.1987 24.8517 10.8952 22.2117 11.628Z" fill="#D1885F"/>
<path d="M10.3314 23.1703C15.7624 14.8156 21.2688 20.4222 23.3431 24.2698V24.8194C19.7226 20.4223 16.9315 20.4223 15.9885 20.9719C13.9799 21.4846 13.3077 23.9396 12.5944 24.8194C12.5944 26.4684 12.7657 25.5723 13.1601 26.4684C17.1202 28.6669 23.3431 25.3691 23.3431 25.3691C23.3431 25.3691 23.7203 26.4684 22.7775 27.018C17.4974 29.0334 4.90039 31.5251 10.3314 23.1703Z" fill="#D1885F"/>
<path d="M34.3303 3.47353C35.6607 -0.0101794 37.4714 0.933324 38.2105 1.84054C38.4928 2.07157 38.8756 2.37554 39.3189 2.7147C41.7209 2.24174 46.4141 1.73135 45.9707 3.47353C45.4163 5.65125 46.5281 6.19558 45.1408 6.73991C45.5298 7.41705 45.0395 8.01357 44.3077 8.37289C43.1991 8.91722 39.8732 11.6389 39.3189 12.7275C38.8754 13.5985 37.2864 13.0904 36.5473 12.7275C34.7734 16.6467 24.257 32.1419 19.2206 39.3997C19.9721 40.1499 20.0649 41.0644 18.8092 42.1213C17.8854 45.5687 15.3725 52.137 12.7118 50.8306C12.3229 50.6396 11.953 50.3689 11.6031 50.0384C3.62099 46.7919 5.88446 44.1334 8.01397 43.21C7.89519 42.8085 7.7979 42.4403 7.72292 42.1213C7.72292 41.2141 8.94241 38.9642 13.8204 37.2223C13.8304 37.2242 13.8405 37.226 13.8505 37.2279C15.7209 37.4676 27.1546 20.3002 32.6674 11.6389C31.0044 11.6389 32.113 8.91722 32.6674 8.91722C33.1108 8.91722 33.9608 5.28809 34.3303 3.47353Z" fill="#F2E3AD"/>
<path d="M32.6674 11.6389C31.0044 11.6389 32.113 8.91722 32.6674 8.91722C33.1108 8.91722 33.9608 5.28809 34.3303 3.47353C35.6607 -0.0101794 37.4714 0.933324 38.2105 1.84054C38.4928 2.07157 38.8756 2.37554 39.3189 2.7147M32.6674 11.6389C33.9977 11.6389 35.8083 12.3646 36.5473 12.7275M32.6674 11.6389C27.1241 20.3481 15.5942 37.6578 13.8204 37.2223M36.5473 12.7275C37.2864 13.0904 38.8754 13.5985 39.3189 12.7275C39.8732 11.6389 43.1991 8.91722 44.3077 8.37289C45.0395 8.01357 45.5298 7.41705 45.1408 6.73991M36.5473 12.7275C34.7734 16.6467 24.257 32.1419 19.2206 39.3997M39.3189 2.7147C40.6164 3.70758 42.4312 5.00208 43.7534 5.65125C44.507 6.02126 44.9404 6.39127 45.1408 6.73991M39.3189 2.7147C41.7209 2.24174 46.4141 1.73135 45.9707 3.47353C45.4163 5.65125 46.5281 6.19558 45.1408 6.73991M13.8204 37.2223C8.94241 38.9642 7.72292 41.2141 7.72292 42.1213C7.7979 42.4403 7.89519 42.8085 8.01397 43.21M13.8204 37.2223C15.5808 37.5465 18.1143 38.2952 19.2206 39.3997M8.01397 43.21C8.64499 45.3425 9.88252 48.4132 11.6031 50.0384M8.01397 43.21C5.88446 44.1334 3.62099 46.7919 11.6031 50.0384M11.6031 50.0384C11.953 50.3689 12.3229 50.6396 12.7118 50.8306C15.3725 52.1369 17.8854 45.5687 18.8092 42.1213C20.0649 41.0644 19.9721 40.1499 19.2206 39.3997" stroke="#E3C097" stroke-width="0.4"/>
<path d="M13.6148 37.7939C9.57213 39.5497 8.18716 41.4517 8 42.1833C8.56148 43.2806 8.25505 41.6346 10.8074 46.024C12.8492 49.5355 16.15 42.732 17.5451 38.8912C16.1975 38.0134 14.3634 37.7939 13.6148 37.7939Z" fill="#FBF6D0"/>
<path d="M18.1066 37.7939C17.2082 36.4771 16.235 36.5137 15.8607 36.6966C17.6574 34.5016 21.4754 29.1982 23.1598 26.8209C24.0582 26.382 25.4058 26.638 25.9672 26.8209L18.1066 37.7939Z" fill="#FBF6D0"/>
<path d="M32.7049 12.5552L26.5287 21.8827C26.9779 21.4437 28.2131 21.334 28.7746 21.3341L34.3894 13.1039C33.491 11.7871 32.8921 12.1894 32.7049 12.5552Z" fill="#FBF6D0"/>
<path d="M32.7049 10.3606C32.7049 9.04379 33.4536 8.71458 33.8279 8.71458C34.6955 8.16591 36.6353 11.4579 36.0738 10.9093C35.6246 10.4703 33.6407 10.3606 32.7049 10.3606Z" fill="#FBF6D0"/>
<path d="M43.9345 5.97036C43.4853 5.97036 39.2555 2.67833 37.1967 1.03231C34.9508 0.593368 34.3894 4.73585 34.3894 6.86196C34.9508 8.14315 36.2984 10.5266 37.1967 9.81107C38.0951 9.0955 39.0683 8.78193 39.4426 8.71458C45.0574 8.16676 44.4959 5.97036 43.9345 5.97036Z" fill="#FBF6D0"/>
<path d="M45.3689 3C44.4705 2.12212 42.7486 2.63422 42 3C43.3475 4.75575 44.4331 5.19469 44.8074 5.19469C45.3689 4.82891 46.2672 3.87788 45.3689 3Z" fill="#FBF6D0"/>
<path d="M30.8889 22.6555C29.5556 20.4915 25.8888 21.7538 24.2222 22.6555C24.0381 22.6555 24.4067 22.7482 24.2222 22.905C23.6667 23.543 22.5558 25.0356 22.5558 25.9016C24.778 25.036 27.3703 25.9016 28.6667 26.4425C30.4444 25.1442 30.8889 23.3768 30.8889 22.6555Z" fill="#D1885F"/>
<path d="M25.8886 29.1476L26.9997 27.5247C27.4078 27.8317 27.8334 28.1945 28.2617 28.6066C32.1091 32.3087 36.1764 39.9902 29.7776 47C29.9627 45.7377 30.222 43.1049 29.7776 42.6722C29.222 44.1148 27.6664 47 25.8886 47C28.4812 43.7541 32.9998 34.341 25.8886 29.1476Z" fill="#D1885F"/>
<path d="M40.8888 18.869C39.111 17.5706 34.4075 18.8693 32 19.9512L33.6665 17.246C38.5554 13.7837 41.2592 15.0821 41.9999 16.1641C41.5555 15.7313 39.2221 16.3444 38.111 16.705C39.8888 17.1378 40.7036 18.328 40.8888 18.869Z" fill="#D1885F"/>
<path d="M19.5796 22.2034C17.3923 20.4783 14.2935 24.3597 13.0175 26.516C10.3928 23.7287 9.37198 25.3546 9.18967 26.516C8.09599 25.9772 12.4706 18.1093 16.2985 18.1093C18.7537 18.1093 21.1387 20.4195 22.5514 22.2615L21.7668 15.5711C21.0719 11.6895 22.571 10.8996 23.4074 11.2591C27.3448 9.96535 28.8178 12.1014 29 13C28.1251 12.1375 25.7771 12.3206 25.0479 12.5003C24.4815 12.7795 24.0526 13.1415 23.7315 13.5278L25.0479 22.7421C26.1416 22.0236 28.6571 20.9099 29.9695 22.2034C28.5113 23.1017 25.9229 25.114 27.2353 25.9765C26.3239 25.7968 24.2824 25.4374 23.4074 25.4374C23.4074 24.539 23.7355 22.7421 25.0479 22.7421L23.7315 13.5278C23.0607 14.3349 22.8607 15.2482 22.8607 15.7342C22.4233 14.4404 22.1314 15.0321 21.7668 15.5711L22.5514 22.2615C22.9007 22.717 23.1906 23.1438 23.4074 23.5L22.8607 24.8984L22.8555 24.8545C22.7723 24.489 21.6803 23.86 19.5796 22.2034Z" fill="#E4AB77"/>
<path d="M30.5164 42.1487C28.7665 45.5988 26.8708 46.8207 26.1416 47.0004C29.5729 43.6178 30.4846 36.5777 30.5416 32.4454L30.5164 31.5C36.645 40.33 31.3938 45.4555 30.1793 46.7011C30.1196 46.8905 30.0501 47.0004 29.9695 47.0004C29.8941 47.0004 29.9851 46.9004 30.1793 46.7011C30.4436 45.863 30.5164 43.4679 30.5164 42.1487Z" fill="#E4AB77"/>
<path d="M34.8911 18.9686C38.3707 18.1062 40.3511 18.6093 40.9063 18.9686C40.9063 17.6749 39.0835 16.992 38.1721 16.8123C39.922 16.3233 41.4532 16.2491 42 16.2732C40.6876 14.1168 37.0784 15.3747 35.4379 16.2732C37.1878 15.8419 35.8025 17.8905 34.8911 18.9686Z" fill="#E4AB77"/>
</svg>
