<svg width="29" height="29" viewBox="0 0 29 29" fill="none" xmlns="http://www.w3.org/2000/svg">
<path fill-rule="evenodd" clip-rule="evenodd" d="M4.53082 4.53085C2.89999 6.16168 2.89999 8.78646 2.89999 14.036V14.964C2.89999 20.2136 2.89999 22.8384 4.53082 24.4692C6.16165 26.1 8.78643 26.1 14.036 26.1H14.964C20.2136 26.1 22.8383 26.1 24.4692 24.4692C26.1 22.8384 26.1 20.2136 26.1 14.964V14.036C26.1 8.78646 26.1 6.16168 24.4692 4.53085C22.8383 2.90002 20.2136 2.90002 14.964 2.90002H14.036C8.78643 2.90002 6.16165 2.90002 4.53082 4.53085ZM6.81503 10.15C6.94101 16.2183 9.96452 19.865 15.2654 19.865H15.5659V16.3933C17.5137 16.5878 18.9866 18.0173 19.5778 19.865H22.33C21.5742 17.1032 19.5874 15.5764 18.347 14.9929C19.5874 14.2733 21.3318 12.5229 21.7485 10.15H19.2482C18.7055 12.0755 17.097 13.826 15.5659 13.9913V10.15H13.0656V16.8795C11.515 16.4905 9.55752 14.604 9.47031 10.15H6.81503Z" fill="#518EF8"/>
</svg>
